solid OpenSCAD_Model
  facet normal 0.2334452610964762 -0.9723699450680271 0
    outer loop
      vertex 13.090170003473759 -9.510564997792244 -5
      vertex 11.564345002174377 -9.876883000135422 5
      vertex 11.564345002174377 -9.876883000135422 -5
    endloop
  endfacet
  facet normal 0.2334452610964762 -0.9723699450680271 0
    outer loop
      vertex 13.090170003473759 -9.510564997792244 -5
      vertex 13.090170003473759 -9.510564997792244 5
      vertex 11.564345002174377 -9.876883000135422 5
    endloop
  endfacet
  facet normal 0.38268348621039167 -0.9238795102078305 0
    outer loop
      vertex 14.539904996752739 -8.91006500273943 -5
      vertex 13.090170003473759 -9.510564997792244 5
      vertex 13.090170003473759 -9.510564997792244 -5
    endloop
  endfacet
  facet normal 0.38268348621039167 -0.9238795102078305 0
    outer loop
      vertex 14.539904996752739 -8.91006500273943 -5
      vertex 14.539904996752739 -8.91006500273943 5
      vertex 13.090170003473759 -9.510564997792244 5
    endloop
  endfacet
  facet normal 0.5224982909999918 -0.8526403320873861 0
    outer loop
      vertex 15.877852998673916 -8.090170003473759 -5
      vertex 14.539904996752739 -8.91006500273943 5
      vertex 14.539904996752739 -8.91006500273943 -5
    endloop
  endfacet
  facet normal 0.5224982909999918 -0.8526403320873861 0
    outer loop
      vertex 15.877852998673916 -8.090170003473759 -5
      vertex 15.877852998673916 -8.090170003473759 5
      vertex 14.539904996752739 -8.91006500273943 5
    endloop
  endfacet
  facet normal 0.6494480940416935 -0.7604059265587109 0
    outer loop
      vertex 17.07106799632311 -7.071067996323109 -5
      vertex 15.877852998673916 -8.090170003473759 5
      vertex 15.877852998673916 -8.090170003473759 -5
    endloop
  endfacet
  facet normal 0.6494480940416935 -0.7604059265587109 0
    outer loop
      vertex 17.07106799632311 -7.071067996323109 -5
      vertex 17.07106799632311 -7.071067996323109 5
      vertex 15.877852998673916 -8.090170003473759 5
    endloop
  endfacet
  facet normal 0.7604059265587109 -0.6494480940416935 0
    outer loop
      vertex 18.09017000347376 -5.877852998673916 -5
      vertex 17.07106799632311 -7.071067996323109 5
      vertex 17.07106799632311 -7.071067996323109 -5
    endloop
  endfacet
  facet normal 0.7604059265587109 -0.6494480940416935 0
    outer loop
      vertex 18.09017000347376 -5.877852998673916 -5
      vertex 18.09017000347376 -5.877852998673916 5
      vertex 17.07106799632311 -7.071067996323109 5
    endloop
  endfacet
  facet normal 0.8526403320873861 -0.5224982909999918 0
    outer loop
      vertex 18.91006500273943 -4.539904996752739 -5
      vertex 18.09017000347376 -5.877852998673916 5
      vertex 18.09017000347376 -5.877852998673916 -5
    endloop
  endfacet
  facet normal 0.8526403320873861 -0.5224982909999918 0
    outer loop
      vertex 18.91006500273943 -4.539904996752739 -5
      vertex 18.91006500273943 -4.539904996752739 5
      vertex 18.09017000347376 -5.877852998673916 5
    endloop
  endfacet
  facet normal 0.9238795102078305 -0.38268348621039167 0
    outer loop
      vertex 19.510564997792244 -3.0901700034737587 -5
      vertex 18.91006500273943 -4.539904996752739 5
      vertex 18.91006500273943 -4.539904996752739 -5
    endloop
  endfacet
  facet normal 0.9238795102078305 -0.38268348621039167 0
    outer loop
      vertex 19.510564997792244 -3.0901700034737587 -5
      vertex 19.510564997792244 -3.0901700034737587 5
      vertex 18.91006500273943 -4.539904996752739 5
    endloop
  endfacet
  facet normal 0.9723699450680271 -0.2334452610964762 0
    outer loop
      vertex 19.87688300013542 -1.5643450021743774 -5
      vertex 19.510564997792244 -3.0901700034737587 5
      vertex 19.510564997792244 -3.0901700034737587 -5
    endloop
  endfacet
  facet normal 0.9723699450680271 -0.2334452610964762 0
    outer loop
      vertex 19.87688300013542 -1.5643450021743774 -5
      vertex 19.87688300013542 -1.5643450021743774 5
      vertex 19.510564997792244 -3.0901700034737587 5
    endloop
  endfacet
  facet normal 0.9999837024285929 -0.005709192342455456 0
    outer loop
      vertex 20 20 -5
      vertex 19.87688300013542 -1.5643450021743774 5
      vertex 19.87688300013542 -1.5643450021743774 -5
    endloop
  endfacet
  facet normal 0.9999837024285929 -0.005709192342455456 0
    outer loop
      vertex 20 20 -5
      vertex 20 20 5
      vertex 19.87688300013542 -1.5643450021743774 5
    endloop
  endfacet
  facet normal 0.9969173148848417 0.07845933521766142 0
    outer loop
      vertex 19.87688300013542 21.564345002174377 -5
      vertex 20 20 5
      vertex 20 20 -5
    endloop
  endfacet
  facet normal 0.9969173148848417 0.07845933521766142 0
    outer loop
      vertex 19.87688300013542 21.564345002174377 -5
      vertex 19.87688300013542 21.564345002174377 5
      vertex 20 20 5
    endloop
  endfacet
  facet normal 0.9723699450680271 0.2334452610964762 0
    outer loop
      vertex 19.510564997792244 23.09017000347376 -5
      vertex 19.87688300013542 21.564345002174377 5
      vertex 19.87688300013542 21.564345002174377 -5
    endloop
  endfacet
  facet normal 0.9723699450680271 0.2334452610964762 0
    outer loop
      vertex 19.510564997792244 23.09017000347376 -5
      vertex 19.510564997792244 23.09017000347376 5
      vertex 19.87688300013542 21.564345002174377 5
    endloop
  endfacet
  facet normal 0.9238795102078305 0.38268348621039167 0
    outer loop
      vertex 18.91006500273943 24.53990499675274 -5
      vertex 19.510564997792244 23.09017000347376 5
      vertex 19.510564997792244 23.09017000347376 -5
    endloop
  endfacet
  facet normal 0.9238795102078305 0.38268348621039167 0
    outer loop
      vertex 18.91006500273943 24.53990499675274 -5
      vertex 18.91006500273943 24.53990499675274 5
      vertex 19.510564997792244 23.09017000347376 5
    endloop
  endfacet
  facet normal 0.8526403320873861 0.5224982909999918 0
    outer loop
      vertex 18.09017000347376 25.877852998673916 -5
      vertex 18.91006500273943 24.53990499675274 5
      vertex 18.91006500273943 24.53990499675274 -5
    endloop
  endfacet
  facet normal 0.8526403320873861 0.5224982909999918 0
    outer loop
      vertex 18.09017000347376 25.877852998673916 -5
      vertex 18.09017000347376 25.877852998673916 5
      vertex 18.91006500273943 24.53990499675274 5
    endloop
  endfacet
  facet normal 0.7604059265587109 0.6494480940416935 0
    outer loop
      vertex 17.07106799632311 27.07106799632311 -5
      vertex 18.09017000347376 25.877852998673916 5
      vertex 18.09017000347376 25.877852998673916 -5
    endloop
  endfacet
  facet normal 0.7604059265587109 0.6494480940416935 0
    outer loop
      vertex 17.07106799632311 27.07106799632311 -5
      vertex 17.07106799632311 27.07106799632311 5
      vertex 18.09017000347376 25.877852998673916 5
    endloop
  endfacet
  facet normal 0.6494480940416935 0.7604059265587109 0
    outer loop
      vertex 15.877852998673916 28.09017000347376 -5
      vertex 17.07106799632311 27.07106799632311 5
      vertex 17.07106799632311 27.07106799632311 -5
    endloop
  endfacet
  facet normal 0.6494480940416935 0.7604059265587109 0
    outer loop
      vertex 15.877852998673916 28.09017000347376 -5
      vertex 15.877852998673916 28.09017000347376 5
      vertex 17.07106799632311 27.07106799632311 5
    endloop
  endfacet
  facet normal 0.5224982909999918 0.8526403320873861 0
    outer loop
      vertex 14.539904996752739 28.91006500273943 -5
      vertex 15.877852998673916 28.09017000347376 5
      vertex 15.877852998673916 28.09017000347376 -5
    endloop
  endfacet
  facet normal 0.5224982909999918 0.8526403320873861 0
    outer loop
      vertex 14.539904996752739 28.91006500273943 -5
      vertex 14.539904996752739 28.91006500273943 5
      vertex 15.877852998673916 28.09017000347376 5
    endloop
  endfacet
  facet normal 0.38268348621039167 0.9238795102078305 0
    outer loop
      vertex 13.090170003473759 29.510564997792244 -5
      vertex 14.539904996752739 28.91006500273943 5
      vertex 14.539904996752739 28.91006500273943 -5
    endloop
  endfacet
  facet normal 0.38268348621039167 0.9238795102078305 0
    outer loop
      vertex 13.090170003473759 29.510564997792244 -5
      vertex 13.090170003473759 29.510564997792244 5
      vertex 14.539904996752739 28.91006500273943 5
    endloop
  endfacet
  facet normal 0.2334452610964762 0.9723699450680271 0
    outer loop
      vertex 11.564345002174377 29.87688300013542 -5
      vertex 13.090170003473759 29.510564997792244 5
      vertex 13.090170003473759 29.510564997792244 -5
    endloop
  endfacet
  facet normal 0.2334452610964762 0.9723699450680271 0
    outer loop
      vertex 11.564345002174377 29.87688300013542 -5
      vertex 11.564345002174377 29.87688300013542 5
      vertex 13.090170003473759 29.510564997792244 5
    endloop
  endfacet
  facet normal 0.07845933521766142 0.9969173148848417 0
    outer loop
      vertex 10 30 -5
      vertex 11.564345002174377 29.87688300013542 5
      vertex 11.564345002174377 29.87688300013542 -5
    endloop
  endfacet
  facet normal 0.07845933521766142 0.9969173148848417 0
    outer loop
      vertex 10 30 -5
      vertex 10 30 5
      vertex 11.564345002174377 29.87688300013542 5
    endloop
  endfacet
  facet normal -0.07845933521766142 0.9969173148848417 0
    outer loop
      vertex 8.435654997825623 29.87688300013542 -5
      vertex 10 30 5
      vertex 10 30 -5
    endloop
  endfacet
  facet normal -0.07845933521766142 0.9969173148848417 0
    outer loop
      vertex 8.435654997825623 29.87688300013542 -5
      vertex 8.435654997825623 29.87688300013542 5
      vertex 10 30 5
    endloop
  endfacet
  facet normal -0.2334452610964762 0.9723699450680271 0
    outer loop
      vertex 6.909829996526241 29.510564997792244 -5
      vertex 8.435654997825623 29.87688300013542 5
      vertex 8.435654997825623 29.87688300013542 -5
    endloop
  endfacet
  facet normal -0.2334452610964762 0.9723699450680271 0
    outer loop
      vertex 6.909829996526241 29.510564997792244 -5
      vertex 6.909829996526241 29.510564997792244 5
      vertex 8.435654997825623 29.87688300013542 5
    endloop
  endfacet
  facet normal -0.38268348621039167 0.9238795102078305 0
    outer loop
      vertex 5.460095003247261 28.91006500273943 -5
      vertex 6.909829996526241 29.510564997792244 5
      vertex 6.909829996526241 29.510564997792244 -5
    endloop
  endfacet
  facet normal -0.38268348621039167 0.9238795102078305 0
    outer loop
      vertex 5.460095003247261 28.91006500273943 -5
      vertex 5.460095003247261 28.91006500273943 5
      vertex 6.909829996526241 29.510564997792244 5
    endloop
  endfacet
  facet normal -0.5224982909999918 0.8526403320873861 0
    outer loop
      vertex 4.122147001326084 28.09017000347376 -5
      vertex 5.460095003247261 28.91006500273943 5
      vertex 5.460095003247261 28.91006500273943 -5
    endloop
  endfacet
  facet normal -0.5224982909999918 0.8526403320873861 0
    outer loop
      vertex 4.122147001326084 28.09017000347376 -5
      vertex 4.122147001326084 28.09017000347376 5
      vertex 5.460095003247261 28.91006500273943 5
    endloop
  endfacet
  facet normal -0.6494480940416935 0.7604059265587109 0
    outer loop
      vertex 2.9289320036768913 27.07106799632311 -5
      vertex 4.122147001326084 28.09017000347376 5
      vertex 4.122147001326084 28.09017000347376 -5
    endloop
  endfacet
  facet normal -0.6494480940416935 0.7604059265587109 0
    outer loop
      vertex 2.9289320036768913 27.07106799632311 -5
      vertex 2.9289320036768913 27.07106799632311 5
      vertex 4.122147001326084 28.09017000347376 5
    endloop
  endfacet
  facet normal -0.7604059265587109 0.6494480940416935 0
    outer loop
      vertex 1.9098299965262413 25.877852998673916 -5
      vertex 2.9289320036768913 27.07106799632311 5
      vertex 2.9289320036768913 27.07106799632311 -5
    endloop
  endfacet
  facet normal -0.7604059265587109 0.6494480940416935 0
    outer loop
      vertex 1.9098299965262413 25.877852998673916 -5
      vertex 1.9098299965262413 25.877852998673916 5
      vertex 2.9289320036768913 27.07106799632311 5
    endloop
  endfacet
  facet normal -0.8526403320873861 0.5224982909999918 0
    outer loop
      vertex 1.0899349972605705 24.53990499675274 -5
      vertex 1.9098299965262413 25.877852998673916 5
      vertex 1.9098299965262413 25.877852998673916 -5
    endloop
  endfacet
  facet normal -0.8526403320873861 0.5224982909999918 0
    outer loop
      vertex 1.0899349972605705 24.53990499675274 -5
      vertex 1.0899349972605705 24.53990499675274 5
      vertex 1.9098299965262413 25.877852998673916 5
    endloop
  endfacet
  facet normal -0.9238795102078305 0.38268348621039167 0
    outer loop
      vertex 0.48943500220775604 23.09017000347376 -5
      vertex 1.0899349972605705 24.53990499675274 5
      vertex 1.0899349972605705 24.53990499675274 -5
    endloop
  endfacet
  facet normal -0.9238795102078305 0.38268348621039167 0
    outer loop
      vertex 0.48943500220775604 23.09017000347376 -5
      vertex 0.48943500220775604 23.09017000347376 5
      vertex 1.0899349972605705 24.53990499675274 5
    endloop
  endfacet
  facet normal -0.9723699450680271 0.2334452610964762 0
    outer loop
      vertex 0.12311699986457825 21.564345002174377 -5
      vertex 0.48943500220775604 23.09017000347376 5
      vertex 0.48943500220775604 23.09017000347376 -5
    endloop
  endfacet
  facet normal -0.9723699450680271 0.2334452610964762 0
    outer loop
      vertex 0.12311699986457825 21.564345002174377 -5
      vertex 0.12311699986457825 21.564345002174377 5
      vertex 0.48943500220775604 23.09017000347376 5
    endloop
  endfacet
  facet normal -0.9999837024285929 0.005709192342455456 0
    outer loop
      vertex 0 0 -5
      vertex 0.12311699986457825 21.564345002174377 5
      vertex 0.12311699986457825 21.564345002174377 -5
    endloop
  endfacet
  facet normal -0.9999837024285929 0.005709192342455456 0
    outer loop
      vertex 0 0 -5
      vertex 0 0 5
      vertex 0.12311699986457825 21.564345002174377 5
    endloop
  endfacet
  facet normal -0.9969173148848417 -0.07845933521766142 0
    outer loop
      vertex 0.12311699986457825 -1.5643450021743774 -5
      vertex 0 0 5
      vertex 0 0 -5
    endloop
  endfacet
  facet normal -0.9969173148848417 -0.07845933521766142 0
    outer loop
      vertex 0.12311699986457825 -1.5643450021743774 -5
      vertex 0.12311699986457825 -1.5643450021743774 5
      vertex 0 0 5
    endloop
  endfacet
  facet normal -0.9723699450680271 -0.2334452610964762 0
    outer loop
      vertex 0.48943500220775604 -3.0901700034737587 -5
      vertex 0.12311699986457825 -1.5643450021743774 5
      vertex 0.12311699986457825 -1.5643450021743774 -5
    endloop
  endfacet
  facet normal -0.9723699450680271 -0.2334452610964762 0
    outer loop
      vertex 0.48943500220775604 -3.0901700034737587 -5
      vertex 0.48943500220775604 -3.0901700034737587 5
      vertex 0.12311699986457825 -1.5643450021743774 5
    endloop
  endfacet
  facet normal -0.9238795102078305 -0.38268348621039167 0
    outer loop
      vertex 1.0899349972605705 -4.539904996752739 -5
      vertex 0.48943500220775604 -3.0901700034737587 5
      vertex 0.48943500220775604 -3.0901700034737587 -5
    endloop
  endfacet
  facet normal -0.9238795102078305 -0.38268348621039167 0
    outer loop
      vertex 1.0899349972605705 -4.539904996752739 -5
      vertex 1.0899349972605705 -4.539904996752739 5
      vertex 0.48943500220775604 -3.0901700034737587 5
    endloop
  endfacet
  facet normal -0.8526403320873861 -0.5224982909999918 0
    outer loop
      vertex 1.9098299965262413 -5.877852998673916 -5
      vertex 1.0899349972605705 -4.539904996752739 5
      vertex 1.0899349972605705 -4.539904996752739 -5
    endloop
  endfacet
  facet normal -0.8526403320873861 -0.5224982909999918 0
    outer loop
      vertex 1.9098299965262413 -5.877852998673916 -5
      vertex 1.9098299965262413 -5.877852998673916 5
      vertex 1.0899349972605705 -4.539904996752739 5
    endloop
  endfacet
  facet normal -0.7604059265587109 -0.6494480940416935 0
    outer loop
      vertex 2.9289320036768913 -7.071067996323109 -5
      vertex 1.9098299965262413 -5.877852998673916 5
      vertex 1.9098299965262413 -5.877852998673916 -5
    endloop
  endfacet
  facet normal -0.7604059265587109 -0.6494480940416935 0
    outer loop
      vertex 2.9289320036768913 -7.071067996323109 -5
      vertex 2.9289320036768913 -7.071067996323109 5
      vertex 1.9098299965262413 -5.877852998673916 5
    endloop
  endfacet
  facet normal -0.6494480940416935 -0.7604059265587109 0
    outer loop
      vertex 4.122147001326084 -8.090170003473759 -5
      vertex 2.9289320036768913 -7.071067996323109 5
      vertex 2.9289320036768913 -7.071067996323109 -5
    endloop
  endfacet
  facet normal -0.6494480940416935 -0.7604059265587109 0
    outer loop
      vertex 4.122147001326084 -8.090170003473759 -5
      vertex 4.122147001326084 -8.090170003473759 5
      vertex 2.9289320036768913 -7.071067996323109 5
    endloop
  endfacet
  facet normal -0.5224982909999918 -0.8526403320873861 0
    outer loop
      vertex 5.460095003247261 -8.91006500273943 -5
      vertex 4.122147001326084 -8.090170003473759 5
      vertex 4.122147001326084 -8.090170003473759 -5
    endloop
  endfacet
  facet normal -0.5224982909999918 -0.8526403320873861 0
    outer loop
      vertex 5.460095003247261 -8.91006500273943 -5
      vertex 5.460095003247261 -8.91006500273943 5
      vertex 4.122147001326084 -8.090170003473759 5
    endloop
  endfacet
  facet normal -0.38268348621039167 -0.9238795102078305 0
    outer loop
      vertex 6.909829996526241 -9.510564997792244 -5
      vertex 5.460095003247261 -8.91006500273943 5
      vertex 5.460095003247261 -8.91006500273943 -5
    endloop
  endfacet
  facet normal -0.38268348621039167 -0.9238795102078305 0
    outer loop
      vertex 6.909829996526241 -9.510564997792244 -5
      vertex 6.909829996526241 -9.510564997792244 5
      vertex 5.460095003247261 -8.91006500273943 5
    endloop
  endfacet
  facet normal -0.2334452610964762 -0.9723699450680271 0
    outer loop
      vertex 8.435654997825623 -9.876883000135422 -5
      vertex 6.909829996526241 -9.510564997792244 5
      vertex 6.909829996526241 -9.510564997792244 -5
    endloop
  endfacet
  facet normal -0.2334452610964762 -0.9723699450680271 0
    outer loop
      vertex 8.435654997825623 -9.876883000135422 -5
      vertex 8.435654997825623 -9.876883000135422 5
      vertex 6.909829996526241 -9.510564997792244 5
    endloop
  endfacet
  facet normal -0.07845933521766142 -0.9969173148848417 0
    outer loop
      vertex 10 -10 -5
      vertex 8.435654997825623 -9.876883000135422 5
      vertex 8.435654997825623 -9.876883000135422 -5
    endloop
  endfacet
  facet normal -0.07845933521766142 -0.9969173148848417 0
    outer loop
      vertex 10 -10 -5
      vertex 10 -10 5
      vertex 8.435654997825623 -9.876883000135422 5
    endloop
  endfacet
  facet normal 0.07845933521766142 -0.9969173148848417 0
    outer loop
      vertex 11.564345002174377 -9.876883000135422 -5
      vertex 10 -10 5
      vertex 10 -10 -5
    endloop
  endfacet
  facet normal 0.07845933521766142 -0.9969173148848417 0
    outer loop
      vertex 11.564345002174377 -9.876883000135422 -5
      vertex 11.564345002174377 -9.876883000135422 5
      vertex 10 -10 5
    endloop
  endfacet
  facet normal 0.23344571002778922 0.9723698372890952 0
    outer loop
      vertex 7.527864001691341 -7.608451999723911 -5
      vertex 7.527864001691341 -7.608451999723911 5
      vertex 8.748524002730846 -7.901506997644901 -5
    endloop
  endfacet
  facet normal 0.23344571002778922 0.9723698372890952 0
    outer loop
      vertex 8.748524002730846 -7.901506997644901 5
      vertex 8.748524002730846 -7.901506997644901 -5
      vertex 7.527864001691341 -7.608451999723911 5
    endloop
  endfacet
  facet normal 0.3826834832726749 0.923879511424673 0
    outer loop
      vertex 6.368075996637344 -7.12805200368166 -5
      vertex 6.368075996637344 -7.12805200368166 5
      vertex 7.527864001691341 -7.608451999723911 -5
    endloop
  endfacet
  facet normal 0.3826834832726749 0.923879511424673 0
    outer loop
      vertex 7.527864001691341 -7.608451999723911 5
      vertex 7.527864001691341 -7.608451999723911 -5
      vertex 6.368075996637344 -7.12805200368166 5
    endloop
  endfacet
  facet normal 0.5224984393484063 0.8526402411794084 0
    outer loop
      vertex 5.2977180033922195 -6.472135998308659 -5
      vertex 5.2977180033922195 -6.472135998308659 5
      vertex 6.368075996637344 -7.12805200368166 -5
    endloop
  endfacet
  facet normal 0.5224984393484063 0.8526402411794084 0
    outer loop
      vertex 6.368075996637344 -7.12805200368166 5
      vertex 6.368075996637344 -7.12805200368166 -5
      vertex 5.2977180033922195 -6.472135998308659 5
    endloop
  endfacet
  facet normal 0.6494482696627151 0.7604057765641351 0
    outer loop
      vertex 4.343145996332169 -5.656854003667831 -5
      vertex 4.343145996332169 -5.656854003667831 5
      vertex 5.2977180033922195 -6.472135998308659 -5
    endloop
  endfacet
  facet normal 0.6494482696627151 0.7604057765641351 0
    outer loop
      vertex 5.2977180033922195 -6.472135998308659 5
      vertex 5.2977180033922195 -6.472135998308659 -5
      vertex 4.343145996332169 -5.656854003667831 5
    endloop
  endfacet
  facet normal 0.7604057765641351 0.6494482696627151 0
    outer loop
      vertex 3.5278640016913414 -4.7022819966077805 -5
      vertex 3.5278640016913414 -4.7022819966077805 5
      vertex 4.343145996332169 -5.656854003667831 -5
    endloop
  endfacet
  facet normal 0.7604057765641351 0.6494482696627151 0
    outer loop
      vertex 4.343145996332169 -5.656854003667831 5
      vertex 4.343145996332169 -5.656854003667831 -5
      vertex 3.5278640016913414 -4.7022819966077805 5
    endloop
  endfacet
  facet normal 0.8526402411794084 0.5224984393484063 0
    outer loop
      vertex 2.8719479963183403 -3.6319240033626556 -5
      vertex 2.8719479963183403 -3.6319240033626556 5
      vertex 3.5278640016913414 -4.7022819966077805 -5
    endloop
  endfacet
  facet normal 0.8526402411794084 0.5224984393484063 0
    outer loop
      vertex 3.5278640016913414 -4.7022819966077805 5
      vertex 3.5278640016913414 -4.7022819966077805 -5
      vertex 2.8719479963183403 -3.6319240033626556 5
    endloop
  endfacet
  facet normal 0.923879511424673 0.3826834832726749 0
    outer loop
      vertex 2.3915480002760887 -2.4721359983086586 -5
      vertex 2.3915480002760887 -2.4721359983086586 5
      vertex 2.8719479963183403 -3.6319240033626556 -5
    endloop
  endfacet
  facet normal 0.923879511424673 0.3826834832726749 0
    outer loop
      vertex 2.8719479963183403 -3.6319240033626556 5
      vertex 2.8719479963183403 -3.6319240033626556 -5
      vertex 2.3915480002760887 -2.4721359983086586 5
    endloop
  endfacet
  facet normal 0.9723698372890952 0.23344571002778922 0
    outer loop
      vertex 2.0984930023550987 -1.2514759972691536 -5
      vertex 2.0984930023550987 -1.2514759972691536 5
      vertex 2.3915480002760887 -2.4721359983086586 -5
    endloop
  endfacet
  facet normal 0.9723698372890952 0.23344571002778922 0
    outer loop
      vertex 2.3915480002760887 -2.4721359983086586 5
      vertex 2.3915480002760887 -2.4721359983086586 -5
      vertex 2.0984930023550987 -1.2514759972691536 5
    endloop
  endfacet
  facet normal 0.9969173520938235 0.07845886243273929 0
    outer loop
      vertex 2 0 -5
      vertex 2 0 5
      vertex 2.0984930023550987 -1.2514759972691536 -5
    endloop
  endfacet
  facet normal 0.9969173520938235 0.07845886243273929 0
    outer loop
      vertex 2.0984930023550987 -1.2514759972691536 5
      vertex 2.0984930023550987 -1.2514759972691536 -5
      vertex 2 0 5
    endloop
  endfacet
  facet normal 0.9999892602156095 -0.004634593125397305 0
    outer loop
      vertex 2.0984930023550987 21.251475997269154 -5
      vertex 2.0984930023550987 21.251475997269154 5
      vertex 2 0 -5
    endloop
  endfacet
  facet normal 0.9999892602156095 -0.004634593125397305 0
    outer loop
      vertex 2 0 5
      vertex 2 0 -5
      vertex 2.0984930023550987 21.251475997269154 5
    endloop
  endfacet
  facet normal 0.9723698372890952 -0.23344571002778922 0
    outer loop
      vertex 2.3915480002760887 22.47213599830866 -5
      vertex 2.3915480002760887 22.47213599830866 5
      vertex 2.0984930023550987 21.251475997269154 -5
    endloop
  endfacet
  facet normal 0.9723698372890952 -0.23344571002778922 0
    outer loop
      vertex 2.0984930023550987 21.251475997269154 5
      vertex 2.0984930023550987 21.251475997269154 -5
      vertex 2.3915480002760887 22.47213599830866 5
    endloop
  endfacet
  facet normal 0.923879511424673 -0.3826834832726749 0
    outer loop
      vertex 2.8719479963183403 23.631924003362656 -5
      vertex 2.8719479963183403 23.631924003362656 5
      vertex 2.3915480002760887 22.47213599830866 -5
    endloop
  endfacet
  facet normal 0.923879511424673 -0.3826834832726749 0
    outer loop
      vertex 2.3915480002760887 22.47213599830866 5
      vertex 2.3915480002760887 22.47213599830866 -5
      vertex 2.8719479963183403 23.631924003362656 5
    endloop
  endfacet
  facet normal 0.8526402411794084 -0.5224984393484063 0
    outer loop
      vertex 3.5278640016913414 24.70228199660778 -5
      vertex 3.5278640016913414 24.70228199660778 5
      vertex 2.8719479963183403 23.631924003362656 -5
    endloop
  endfacet
  facet normal 0.8526402411794084 -0.5224984393484063 0
    outer loop
      vertex 2.8719479963183403 23.631924003362656 5
      vertex 2.8719479963183403 23.631924003362656 -5
      vertex 3.5278640016913414 24.70228199660778 5
    endloop
  endfacet
  facet normal 0.7604057765641351 -0.6494482696627151 0
    outer loop
      vertex 4.343145996332169 25.65685400366783 -5
      vertex 4.343145996332169 25.65685400366783 5
      vertex 3.5278640016913414 24.70228199660778 -5
    endloop
  endfacet
  facet normal 0.7604057765641351 -0.6494482696627151 0
    outer loop
      vertex 3.5278640016913414 24.70228199660778 5
      vertex 3.5278640016913414 24.70228199660778 -5
      vertex 4.343145996332169 25.65685400366783 5
    endloop
  endfacet
  facet normal 0.6494482696627151 -0.7604057765641351 0
    outer loop
      vertex 5.2977180033922195 26.47213599830866 -5
      vertex 5.2977180033922195 26.47213599830866 5
      vertex 4.343145996332169 25.65685400366783 -5
    endloop
  endfacet
  facet normal 0.6494482696627151 -0.7604057765641351 0
    outer loop
      vertex 4.343145996332169 25.65685400366783 5
      vertex 4.343145996332169 25.65685400366783 -5
      vertex 5.2977180033922195 26.47213599830866 5
    endloop
  endfacet
  facet normal 0.5224984393484063 -0.8526402411794084 0
    outer loop
      vertex 6.368075996637344 27.12805200368166 -5
      vertex 6.368075996637344 27.12805200368166 5
      vertex 5.2977180033922195 26.47213599830866 -5
    endloop
  endfacet
  facet normal 0.5224984393484063 -0.8526402411794084 0
    outer loop
      vertex 5.2977180033922195 26.47213599830866 5
      vertex 5.2977180033922195 26.47213599830866 -5
      vertex 6.368075996637344 27.12805200368166 5
    endloop
  endfacet
  facet normal 0.3826834832726749 -0.923879511424673 0
    outer loop
      vertex 7.527864001691341 27.60845199972391 -5
      vertex 7.527864001691341 27.60845199972391 5
      vertex 6.368075996637344 27.12805200368166 -5
    endloop
  endfacet
  facet normal 0.3826834832726749 -0.923879511424673 0
    outer loop
      vertex 6.368075996637344 27.12805200368166 5
      vertex 6.368075996637344 27.12805200368166 -5
      vertex 7.527864001691341 27.60845199972391 5
    endloop
  endfacet
  facet normal 0.23344571002778922 -0.9723698372890952 0
    outer loop
      vertex 8.748524002730846 27.9015069976449 -5
      vertex 8.748524002730846 27.9015069976449 5
      vertex 7.527864001691341 27.60845199972391 -5
    endloop
  endfacet
  facet normal 0.23344571002778922 -0.9723698372890952 0
    outer loop
      vertex 7.527864001691341 27.60845199972391 5
      vertex 7.527864001691341 27.60845199972391 -5
      vertex 8.748524002730846 27.9015069976449 5
    endloop
  endfacet
  facet normal 0.07845886243273929 -0.9969173520938235 0
    outer loop
      vertex 10 28 -5
      vertex 10 28 5
      vertex 8.748524002730846 27.9015069976449 -5
    endloop
  endfacet
  facet normal 0.07845886243273929 -0.9969173520938235 0
    outer loop
      vertex 8.748524002730846 27.9015069976449 5
      vertex 8.748524002730846 27.9015069976449 -5
      vertex 10 28 5
    endloop
  endfacet
  facet normal -0.07845886243273929 -0.9969173520938235 0
    outer loop
      vertex 11.251475997269154 27.9015069976449 -5
      vertex 11.251475997269154 27.9015069976449 5
      vertex 10 28 -5
    endloop
  endfacet
  facet normal -0.07845886243273929 -0.9969173520938235 0
    outer loop
      vertex 10 28 5
      vertex 10 28 -5
      vertex 11.251475997269154 27.9015069976449 5
    endloop
  endfacet
  facet normal -0.23344571002778922 -0.9723698372890952 0
    outer loop
      vertex 12.472135998308659 27.60845199972391 -5
      vertex 12.472135998308659 27.60845199972391 5
      vertex 11.251475997269154 27.9015069976449 -5
    endloop
  endfacet
  facet normal -0.23344571002778922 -0.9723698372890952 0
    outer loop
      vertex 11.251475997269154 27.9015069976449 5
      vertex 11.251475997269154 27.9015069976449 -5
      vertex 12.472135998308659 27.60845199972391 5
    endloop
  endfacet
  facet normal -0.3826834832726749 -0.923879511424673 0
    outer loop
      vertex 13.631924003362656 27.12805200368166 -5
      vertex 13.631924003362656 27.12805200368166 5
      vertex 12.472135998308659 27.60845199972391 -5
    endloop
  endfacet
  facet normal -0.3826834832726749 -0.923879511424673 0
    outer loop
      vertex 12.472135998308659 27.60845199972391 5
      vertex 12.472135998308659 27.60845199972391 -5
      vertex 13.631924003362656 27.12805200368166 5
    endloop
  endfacet
  facet normal -0.5224984393484063 -0.8526402411794084 0
    outer loop
      vertex 14.70228199660778 26.47213599830866 -5
      vertex 14.70228199660778 26.47213599830866 5
      vertex 13.631924003362656 27.12805200368166 -5
    endloop
  endfacet
  facet normal -0.5224984393484063 -0.8526402411794084 0
    outer loop
      vertex 13.631924003362656 27.12805200368166 5
      vertex 13.631924003362656 27.12805200368166 -5
      vertex 14.70228199660778 26.47213599830866 5
    endloop
  endfacet
  facet normal -0.6494482696627151 -0.7604057765641351 0
    outer loop
      vertex 15.656854003667831 25.65685400366783 -5
      vertex 15.656854003667831 25.65685400366783 5
      vertex 14.70228199660778 26.47213599830866 -5
    endloop
  endfacet
  facet normal -0.6494482696627151 -0.7604057765641351 0
    outer loop
      vertex 14.70228199660778 26.47213599830866 5
      vertex 14.70228199660778 26.47213599830866 -5
      vertex 15.656854003667831 25.65685400366783 5
    endloop
  endfacet
  facet normal -0.7604057765641351 -0.6494482696627151 0
    outer loop
      vertex 16.47213599830866 24.70228199660778 -5
      vertex 16.47213599830866 24.70228199660778 5
      vertex 15.656854003667831 25.65685400366783 -5
    endloop
  endfacet
  facet normal -0.7604057765641351 -0.6494482696627151 0
    outer loop
      vertex 15.656854003667831 25.65685400366783 5
      vertex 15.656854003667831 25.65685400366783 -5
      vertex 16.47213599830866 24.70228199660778 5
    endloop
  endfacet
  facet normal -0.8526402411794084 -0.5224984393484063 0
    outer loop
      vertex 17.12805200368166 23.631924003362656 -5
      vertex 17.12805200368166 23.631924003362656 5
      vertex 16.47213599830866 24.70228199660778 -5
    endloop
  endfacet
  facet normal -0.8526402411794084 -0.5224984393484063 0
    outer loop
      vertex 16.47213599830866 24.70228199660778 5
      vertex 16.47213599830866 24.70228199660778 -5
      vertex 17.12805200368166 23.631924003362656 5
    endloop
  endfacet
  facet normal -0.923879511424673 -0.3826834832726749 0
    outer loop
      vertex 17.60845199972391 22.47213599830866 -5
      vertex 17.60845199972391 22.47213599830866 5
      vertex 17.12805200368166 23.631924003362656 -5
    endloop
  endfacet
  facet normal -0.923879511424673 -0.3826834832726749 0
    outer loop
      vertex 17.12805200368166 23.631924003362656 5
      vertex 17.12805200368166 23.631924003362656 -5
      vertex 17.60845199972391 22.47213599830866 5
    endloop
  endfacet
  facet normal -0.9723698372890952 -0.23344571002778922 0
    outer loop
      vertex 17.9015069976449 21.251475997269154 -5
      vertex 17.9015069976449 21.251475997269154 5
      vertex 17.60845199972391 22.47213599830866 -5
    endloop
  endfacet
  facet normal -0.9723698372890952 -0.23344571002778922 0
    outer loop
      vertex 17.60845199972391 22.47213599830866 5
      vertex 17.60845199972391 22.47213599830866 -5
      vertex 17.9015069976449 21.251475997269154 5
    endloop
  endfacet
  facet normal -0.9969173520938235 -0.07845886243273929 0
    outer loop
      vertex 18 20 -5
      vertex 18 20 5
      vertex 17.9015069976449 21.251475997269154 -5
    endloop
  endfacet
  facet normal -0.9969173520938235 -0.07845886243273929 0
    outer loop
      vertex 17.9015069976449 21.251475997269154 5
      vertex 17.9015069976449 21.251475997269154 -5
      vertex 18 20 5
    endloop
  endfacet
  facet normal -0.9999892602156095 0.004634593125397305 0
    outer loop
      vertex 17.9015069976449 -1.2514759972691536 -5
      vertex 17.9015069976449 -1.2514759972691536 5
      vertex 18 20 -5
    endloop
  endfacet
  facet normal -0.9999892602156095 0.004634593125397305 0
    outer loop
      vertex 18 20 5
      vertex 18 20 -5
      vertex 17.9015069976449 -1.2514759972691536 5
    endloop
  endfacet
  facet normal -0.9723698372890952 0.23344571002778922 0
    outer loop
      vertex 17.60845199972391 -2.4721359983086586 -5
      vertex 17.60845199972391 -2.4721359983086586 5
      vertex 17.9015069976449 -1.2514759972691536 -5
    endloop
  endfacet
  facet normal -0.9723698372890952 0.23344571002778922 0
    outer loop
      vertex 17.9015069976449 -1.2514759972691536 5
      vertex 17.9015069976449 -1.2514759972691536 -5
      vertex 17.60845199972391 -2.4721359983086586 5
    endloop
  endfacet
  facet normal -0.923879511424673 0.3826834832726749 0
    outer loop
      vertex 17.12805200368166 -3.6319240033626556 -5
      vertex 17.12805200368166 -3.6319240033626556 5
      vertex 17.60845199972391 -2.4721359983086586 -5
    endloop
  endfacet
  facet normal -0.923879511424673 0.3826834832726749 0
    outer loop
      vertex 17.60845199972391 -2.4721359983086586 5
      vertex 17.60845199972391 -2.4721359983086586 -5
      vertex 17.12805200368166 -3.6319240033626556 5
    endloop
  endfacet
  facet normal -0.8526402411794084 0.5224984393484063 0
    outer loop
      vertex 16.47213599830866 -4.7022819966077805 -5
      vertex 16.47213599830866 -4.7022819966077805 5
      vertex 17.12805200368166 -3.6319240033626556 -5
    endloop
  endfacet
  facet normal -0.8526402411794084 0.5224984393484063 0
    outer loop
      vertex 17.12805200368166 -3.6319240033626556 5
      vertex 17.12805200368166 -3.6319240033626556 -5
      vertex 16.47213599830866 -4.7022819966077805 5
    endloop
  endfacet
  facet normal -0.7604057765641351 0.6494482696627151 0
    outer loop
      vertex 15.656854003667831 -5.656854003667831 -5
      vertex 15.656854003667831 -5.656854003667831 5
      vertex 16.47213599830866 -4.7022819966077805 -5
    endloop
  endfacet
  facet normal -0.7604057765641351 0.6494482696627151 0
    outer loop
      vertex 16.47213599830866 -4.7022819966077805 5
      vertex 16.47213599830866 -4.7022819966077805 -5
      vertex 15.656854003667831 -5.656854003667831 5
    endloop
  endfacet
  facet normal -0.6494482696627151 0.7604057765641351 0
    outer loop
      vertex 14.70228199660778 -6.472135998308659 -5
      vertex 14.70228199660778 -6.472135998308659 5
      vertex 15.656854003667831 -5.656854003667831 -5
    endloop
  endfacet
  facet normal -0.6494482696627151 0.7604057765641351 0
    outer loop
      vertex 15.656854003667831 -5.656854003667831 5
      vertex 15.656854003667831 -5.656854003667831 -5
      vertex 14.70228199660778 -6.472135998308659 5
    endloop
  endfacet
  facet normal -0.5224984393484063 0.8526402411794084 0
    outer loop
      vertex 13.631924003362656 -7.12805200368166 -5
      vertex 13.631924003362656 -7.12805200368166 5
      vertex 14.70228199660778 -6.472135998308659 -5
    endloop
  endfacet
  facet normal -0.5224984393484063 0.8526402411794084 0
    outer loop
      vertex 14.70228199660778 -6.472135998308659 5
      vertex 14.70228199660778 -6.472135998308659 -5
      vertex 13.631924003362656 -7.12805200368166 5
    endloop
  endfacet
  facet normal -0.3826834832726749 0.923879511424673 0
    outer loop
      vertex 12.472135998308659 -7.608451999723911 -5
      vertex 12.472135998308659 -7.608451999723911 5
      vertex 13.631924003362656 -7.12805200368166 -5
    endloop
  endfacet
  facet normal -0.3826834832726749 0.923879511424673 0
    outer loop
      vertex 13.631924003362656 -7.12805200368166 5
      vertex 13.631924003362656 -7.12805200368166 -5
      vertex 12.472135998308659 -7.608451999723911 5
    endloop
  endfacet
  facet normal -0.23344571002778922 0.9723698372890952 0
    outer loop
      vertex 11.251475997269154 -7.901506997644901 -5
      vertex 11.251475997269154 -7.901506997644901 5
      vertex 12.472135998308659 -7.608451999723911 -5
    endloop
  endfacet
  facet normal -0.23344571002778922 0.9723698372890952 0
    outer loop
      vertex 12.472135998308659 -7.608451999723911 5
      vertex 12.472135998308659 -7.608451999723911 -5
      vertex 11.251475997269154 -7.901506997644901 5
    endloop
  endfacet
  facet normal -0.07845886243273929 0.9969173520938235 0
    outer loop
      vertex 10 -8 -5
      vertex 10 -8 5
      vertex 11.251475997269154 -7.901506997644901 -5
    endloop
  endfacet
  facet normal -0.07845886243273929 0.9969173520938235 0
    outer loop
      vertex 11.251475997269154 -7.901506997644901 5
      vertex 11.251475997269154 -7.901506997644901 -5
      vertex 10 -8 5
    endloop
  endfacet
  facet normal 0.07845886243273929 0.9969173520938235 0
    outer loop
      vertex 8.748524002730846 -7.901506997644901 -5
      vertex 8.748524002730846 -7.901506997644901 5
      vertex 10 -8 -5
    endloop
  endfacet
  facet normal 0.07845886243273929 0.9969173520938235 0
    outer loop
      vertex 10 -8 5
      vertex 10 -8 -5
      vertex 8.748524002730846 -7.901506997644901 5
    endloop
  endfacet
  facet normal 0 0 -1
    outer loop
      vertex 17.9015069976449 -1.2514759972691536 -5
      vertex 18 20 -5
      vertex 20 20 -5
    endloop
  endfacet
  facet normal 0 0 -1
    outer loop
      vertex 17.9015069976449 -1.2514759972691536 -5
      vertex 20 20 -5
      vertex 19.87688300013542 -1.5643450021743774 -5
    endloop
  endfacet
  facet normal 0 0 -1
    outer loop
      vertex 20 20 -5
      vertex 18 20 -5
      vertex 17.9015069976449 21.251475997269154 -5
    endloop
  endfacet
  facet normal 0 0 -1
    outer loop
      vertex 19.87688300013542 21.564345002174377 -5
      vertex 20 20 -5
      vertex 17.9015069976449 21.251475997269154 -5
    endloop
  endfacet
  facet normal 0 0 -1
    outer loop
      vertex 17.60845199972391 -2.4721359983086586 -5
      vertex 17.9015069976449 -1.2514759972691536 -5
      vertex 19.87688300013542 -1.5643450021743774 -5
    endloop
  endfacet
  facet normal 0 0 -1
    outer loop
      vertex 17.60845199972391 -2.4721359983086586 -5
      vertex 19.87688300013542 -1.5643450021743774 -5
      vertex 19.510564997792244 -3.0901700034737587 -5
    endloop
  endfacet
  facet normal 0 0 -1
    outer loop
      vertex 17.12805200368166 -3.6319240033626556 -5
      vertex 17.60845199972391 -2.4721359983086586 -5
      vertex 19.510564997792244 -3.0901700034737587 -5
    endloop
  endfacet
  facet normal 0 0 -1
    outer loop
      vertex 17.12805200368166 -3.6319240033626556 -5
      vertex 19.510564997792244 -3.0901700034737587 -5
      vertex 18.91006500273943 -4.539904996752739 -5
    endloop
  endfacet
  facet normal 0 0 -1
    outer loop
      vertex 16.47213599830866 -4.7022819966077805 -5
      vertex 17.12805200368166 -3.6319240033626556 -5
      vertex 18.91006500273943 -4.539904996752739 -5
    endloop
  endfacet
  facet normal 0 0 -1
    outer loop
      vertex 16.47213599830866 -4.7022819966077805 -5
      vertex 18.91006500273943 -4.539904996752739 -5
      vertex 18.09017000347376 -5.877852998673916 -5
    endloop
  endfacet
  facet normal 0 0 -1
    outer loop
      vertex 15.656854003667831 -5.656854003667831 -5
      vertex 16.47213599830866 -4.7022819966077805 -5
      vertex 18.09017000347376 -5.877852998673916 -5
    endloop
  endfacet
  facet normal 0 0 -1
    outer loop
      vertex 15.656854003667831 -5.656854003667831 -5
      vertex 18.09017000347376 -5.877852998673916 -5
      vertex 17.07106799632311 -7.071067996323109 -5
    endloop
  endfacet
  facet normal 0 0 -1
    outer loop
      vertex 14.70228199660778 -6.472135998308659 -5
      vertex 15.656854003667831 -5.656854003667831 -5
      vertex 17.07106799632311 -7.071067996323109 -5
    endloop
  endfacet
  facet normal 0 0 -1
    outer loop
      vertex 14.70228199660778 -6.472135998308659 -5
      vertex 17.07106799632311 -7.071067996323109 -5
      vertex 15.877852998673916 -8.090170003473759 -5
    endloop
  endfacet
  facet normal 0 0 -1
    outer loop
      vertex 19.87688300013542 21.564345002174377 -5
      vertex 17.9015069976449 21.251475997269154 -5
      vertex 17.60845199972391 22.47213599830866 -5
    endloop
  endfacet
  facet normal 0 0 -1
    outer loop
      vertex 19.510564997792244 23.09017000347376 -5
      vertex 19.87688300013542 21.564345002174377 -5
      vertex 17.60845199972391 22.47213599830866 -5
    endloop
  endfacet
  facet normal 0 0 -1
    outer loop
      vertex 19.510564997792244 23.09017000347376 -5
      vertex 17.60845199972391 22.47213599830866 -5
      vertex 17.12805200368166 23.631924003362656 -5
    endloop
  endfacet
  facet normal 0 0 -1
    outer loop
      vertex 18.91006500273943 24.53990499675274 -5
      vertex 19.510564997792244 23.09017000347376 -5
      vertex 17.12805200368166 23.631924003362656 -5
    endloop
  endfacet
  facet normal 0 0 -1
    outer loop
      vertex 18.91006500273943 24.53990499675274 -5
      vertex 17.12805200368166 23.631924003362656 -5
      vertex 16.47213599830866 24.70228199660778 -5
    endloop
  endfacet
  facet normal 0 0 -1
    outer loop
      vertex 18.09017000347376 25.877852998673916 -5
      vertex 18.91006500273943 24.53990499675274 -5
      vertex 16.47213599830866 24.70228199660778 -5
    endloop
  endfacet
  facet normal 0 0 -1
    outer loop
      vertex 18.09017000347376 25.877852998673916 -5
      vertex 16.47213599830866 24.70228199660778 -5
      vertex 15.656854003667831 25.65685400366783 -5
    endloop
  endfacet
  facet normal 0 0 -1
    outer loop
      vertex 17.07106799632311 27.07106799632311 -5
      vertex 18.09017000347376 25.877852998673916 -5
      vertex 15.656854003667831 25.65685400366783 -5
    endloop
  endfacet
  facet normal 0 0 -1
    outer loop
      vertex 17.07106799632311 27.07106799632311 -5
      vertex 15.656854003667831 25.65685400366783 -5
      vertex 14.70228199660778 26.47213599830866 -5
    endloop
  endfacet
  facet normal 0 0 -1
    outer loop
      vertex 15.877852998673916 28.09017000347376 -5
      vertex 17.07106799632311 27.07106799632311 -5
      vertex 14.70228199660778 26.47213599830866 -5
    endloop
  endfacet
  facet normal 0 0 -1
    outer loop
      vertex 13.631924003362656 -7.12805200368166 -5
      vertex 14.70228199660778 -6.472135998308659 -5
      vertex 15.877852998673916 -8.090170003473759 -5
    endloop
  endfacet
  facet normal 0 0 -1
    outer loop
      vertex 13.631924003362656 -7.12805200368166 -5
      vertex 15.877852998673916 -8.090170003473759 -5
      vertex 14.539904996752739 -8.91006500273943 -5
    endloop
  endfacet
  facet normal 0 0 -1
    outer loop
      vertex 12.472135998308659 -7.608451999723911 -5
      vertex 13.631924003362656 -7.12805200368166 -5
      vertex 14.539904996752739 -8.91006500273943 -5
    endloop
  endfacet
  facet normal 0 0 -1
    outer loop
      vertex 12.472135998308659 -7.608451999723911 -5
      vertex 14.539904996752739 -8.91006500273943 -5
      vertex 13.090170003473759 -9.510564997792244 -5
    endloop
  endfacet
  facet normal 0 0 -1
    outer loop
      vertex 11.251475997269154 -7.901506997644901 -5
      vertex 12.472135998308659 -7.608451999723911 -5
      vertex 13.090170003473759 -9.510564997792244 -5
    endloop
  endfacet
  facet normal 0 0 -1
    outer loop
      vertex 11.251475997269154 -7.901506997644901 -5
      vertex 13.090170003473759 -9.510564997792244 -5
      vertex 11.564345002174377 -9.876883000135422 -5
    endloop
  endfacet
  facet normal 0 0 -1
    outer loop
      vertex 10 -8 -5
      vertex 11.251475997269154 -7.901506997644901 -5
      vertex 11.564345002174377 -9.876883000135422 -5
    endloop
  endfacet
  facet normal 0 0 -1
    outer loop
      vertex 10 -8 -5
      vertex 11.564345002174377 -9.876883000135422 -5
      vertex 10 -10 -5
    endloop
  endfacet
  facet normal 0 0 -1
    outer loop
      vertex 8.748524002730846 -7.901506997644901 -5
      vertex 10 -8 -5
      vertex 10 -10 -5
    endloop
  endfacet
  facet normal 0 0 -1
    outer loop
      vertex 8.748524002730846 -7.901506997644901 -5
      vertex 10 -10 -5
      vertex 8.435654997825623 -9.876883000135422 -5
    endloop
  endfacet
  facet normal 0 0 -1
    outer loop
      vertex 7.527864001691341 -7.608451999723911 -5
      vertex 8.748524002730846 -7.901506997644901 -5
      vertex 8.435654997825623 -9.876883000135422 -5
    endloop
  endfacet
  facet normal 0 0 -1
    outer loop
      vertex 7.527864001691341 -7.608451999723911 -5
      vertex 8.435654997825623 -9.876883000135422 -5
      vertex 6.909829996526241 -9.510564997792244 -5
    endloop
  endfacet
  facet normal 0 0 -1
    outer loop
      vertex 6.368075996637344 -7.12805200368166 -5
      vertex 7.527864001691341 -7.608451999723911 -5
      vertex 6.909829996526241 -9.510564997792244 -5
    endloop
  endfacet
  facet normal 0 0 -1
    outer loop
      vertex 6.368075996637344 -7.12805200368166 -5
      vertex 6.909829996526241 -9.510564997792244 -5
      vertex 5.460095003247261 -8.91006500273943 -5
    endloop
  endfacet
  facet normal 0 0 -1
    outer loop
      vertex 5.2977180033922195 -6.472135998308659 -5
      vertex 6.368075996637344 -7.12805200368166 -5
      vertex 5.460095003247261 -8.91006500273943 -5
    endloop
  endfacet
  facet normal 0 0 -1
    outer loop
      vertex 5.2977180033922195 -6.472135998308659 -5
      vertex 5.460095003247261 -8.91006500273943 -5
      vertex 4.122147001326084 -8.090170003473759 -5
    endloop
  endfacet
  facet normal 0 0 -1
    outer loop
      vertex 4.343145996332169 -5.656854003667831 -5
      vertex 5.2977180033922195 -6.472135998308659 -5
      vertex 4.122147001326084 -8.090170003473759 -5
    endloop
  endfacet
  facet normal 0 0 -1
    outer loop
      vertex 4.343145996332169 -5.656854003667831 -5
      vertex 4.122147001326084 -8.090170003473759 -5
      vertex 2.9289320036768913 -7.071067996323109 -5
    endloop
  endfacet
  facet normal 0 0 -1
    outer loop
      vertex 3.5278640016913414 -4.7022819966077805 -5
      vertex 4.343145996332169 -5.656854003667831 -5
      vertex 2.9289320036768913 -7.071067996323109 -5
    endloop
  endfacet
  facet normal 0 0 -1
    outer loop
      vertex 3.5278640016913414 -4.7022819966077805 -5
      vertex 2.9289320036768913 -7.071067996323109 -5
      vertex 1.9098299965262413 -5.877852998673916 -5
    endloop
  endfacet
  facet normal 0 0 -1
    outer loop
      vertex 15.877852998673916 28.09017000347376 -5
      vertex 14.70228199660778 26.47213599830866 -5
      vertex 13.631924003362656 27.12805200368166 -5
    endloop
  endfacet
  facet normal 0 0 -1
    outer loop
      vertex 14.539904996752739 28.91006500273943 -5
      vertex 15.877852998673916 28.09017000347376 -5
      vertex 13.631924003362656 27.12805200368166 -5
    endloop
  endfacet
  facet normal 0 0 -1
    outer loop
      vertex 14.539904996752739 28.91006500273943 -5
      vertex 13.631924003362656 27.12805200368166 -5
      vertex 12.472135998308659 27.60845199972391 -5
    endloop
  endfacet
  facet normal 0 0 -1
    outer loop
      vertex 13.090170003473759 29.510564997792244 -5
      vertex 14.539904996752739 28.91006500273943 -5
      vertex 12.472135998308659 27.60845199972391 -5
    endloop
  endfacet
  facet normal 0 0 -1
    outer loop
      vertex 13.090170003473759 29.510564997792244 -5
      vertex 12.472135998308659 27.60845199972391 -5
      vertex 11.251475997269154 27.9015069976449 -5
    endloop
  endfacet
  facet normal 0 0 -1
    outer loop
      vertex 11.564345002174377 29.87688300013542 -5
      vertex 13.090170003473759 29.510564997792244 -5
      vertex 11.251475997269154 27.9015069976449 -5
    endloop
  endfacet
  facet normal 0 0 -1
    outer loop
      vertex 11.564345002174377 29.87688300013542 -5
      vertex 11.251475997269154 27.9015069976449 -5
      vertex 10 28 -5
    endloop
  endfacet
  facet normal 0 0 -1
    outer loop
      vertex 10 30 -5
      vertex 11.564345002174377 29.87688300013542 -5
      vertex 10 28 -5
    endloop
  endfacet
  facet normal 0 0 -1
    outer loop
      vertex 10 30 -5
      vertex 10 28 -5
      vertex 8.748524002730846 27.9015069976449 -5
    endloop
  endfacet
  facet normal 0 0 -1
    outer loop
      vertex 8.435654997825623 29.87688300013542 -5
      vertex 10 30 -5
      vertex 8.748524002730846 27.9015069976449 -5
    endloop
  endfacet
  facet normal 0 0 -1
    outer loop
      vertex 8.435654997825623 29.87688300013542 -5
      vertex 8.748524002730846 27.9015069976449 -5
      vertex 7.527864001691341 27.60845199972391 -5
    endloop
  endfacet
  facet normal 0 0 -1
    outer loop
      vertex 6.909829996526241 29.510564997792244 -5
      vertex 8.435654997825623 29.87688300013542 -5
      vertex 7.527864001691341 27.60845199972391 -5
    endloop
  endfacet
  facet normal 0 0 -1
    outer loop
      vertex 6.909829996526241 29.510564997792244 -5
      vertex 7.527864001691341 27.60845199972391 -5
      vertex 6.368075996637344 27.12805200368166 -5
    endloop
  endfacet
  facet normal 0 0 -1
    outer loop
      vertex 5.460095003247261 28.91006500273943 -5
      vertex 6.909829996526241 29.510564997792244 -5
      vertex 6.368075996637344 27.12805200368166 -5
    endloop
  endfacet
  facet normal 0 0 -1
    outer loop
      vertex 5.460095003247261 28.91006500273943 -5
      vertex 6.368075996637344 27.12805200368166 -5
      vertex 5.2977180033922195 26.47213599830866 -5
    endloop
  endfacet
  facet normal 0 0 -1
    outer loop
      vertex 4.122147001326084 28.09017000347376 -5
      vertex 5.460095003247261 28.91006500273943 -5
      vertex 5.2977180033922195 26.47213599830866 -5
    endloop
  endfacet
  facet normal 0 0 -1
    outer loop
      vertex 4.122147001326084 28.09017000347376 -5
      vertex 5.2977180033922195 26.47213599830866 -5
      vertex 4.343145996332169 25.65685400366783 -5
    endloop
  endfacet
  facet normal 0 0 -1
    outer loop
      vertex 2.9289320036768913 27.07106799632311 -5
      vertex 4.122147001326084 28.09017000347376 -5
      vertex 4.343145996332169 25.65685400366783 -5
    endloop
  endfacet
  facet normal 0 0 -1
    outer loop
      vertex 2.9289320036768913 27.07106799632311 -5
      vertex 4.343145996332169 25.65685400366783 -5
      vertex 3.5278640016913414 24.70228199660778 -5
    endloop
  endfacet
  facet normal 0 0 -1
    outer loop
      vertex 1.9098299965262413 25.877852998673916 -5
      vertex 2.9289320036768913 27.07106799632311 -5
      vertex 3.5278640016913414 24.70228199660778 -5
    endloop
  endfacet
  facet normal 0 0 -1
    outer loop
      vertex 2.8719479963183403 -3.6319240033626556 -5
      vertex 3.5278640016913414 -4.7022819966077805 -5
      vertex 1.9098299965262413 -5.877852998673916 -5
    endloop
  endfacet
  facet normal 0 0 -1
    outer loop
      vertex 2.8719479963183403 -3.6319240033626556 -5
      vertex 1.9098299965262413 -5.877852998673916 -5
      vertex 1.0899349972605705 -4.539904996752739 -5
    endloop
  endfacet
  facet normal 0 0 -1
    outer loop
      vertex 2.3915480002760887 -2.4721359983086586 -5
      vertex 2.8719479963183403 -3.6319240033626556 -5
      vertex 1.0899349972605705 -4.539904996752739 -5
    endloop
  endfacet
  facet normal 0 0 -1
    outer loop
      vertex 2.3915480002760887 -2.4721359983086586 -5
      vertex 1.0899349972605705 -4.539904996752739 -5
      vertex 0.48943500220775604 -3.0901700034737587 -5
    endloop
  endfacet
  facet normal 0 0 -1
    outer loop
      vertex 2.0984930023550987 -1.2514759972691536 -5
      vertex 2.3915480002760887 -2.4721359983086586 -5
      vertex 0.48943500220775604 -3.0901700034737587 -5
    endloop
  endfacet
  facet normal 0 0 -1
    outer loop
      vertex 2.0984930023550987 -1.2514759972691536 -5
      vertex 0.48943500220775604 -3.0901700034737587 -5
      vertex 0.12311699986457825 -1.5643450021743774 -5
    endloop
  endfacet
  facet normal 0 0 -1
    outer loop
      vertex 2 0 -5
      vertex 2.0984930023550987 -1.2514759972691536 -5
      vertex 0.12311699986457825 -1.5643450021743774 -5
    endloop
  endfacet
  facet normal 0 0 -1
    outer loop
      vertex 2 0 -5
      vertex 0.12311699986457825 -1.5643450021743774 -5
      vertex 0 0 -5
    endloop
  endfacet
  facet normal 0 0 -1
    outer loop
      vertex 2.0984930023550987 21.251475997269154 -5
      vertex 2 0 -5
      vertex 0 0 -5
    endloop
  endfacet
  facet normal 0 0 -1
    outer loop
      vertex 2.0984930023550987 21.251475997269154 -5
      vertex 0 0 -5
      vertex 0.12311699986457825 21.564345002174377 -5
    endloop
  endfacet
  facet normal 0 0 -1
    outer loop
      vertex 2.3915480002760887 22.47213599830866 -5
      vertex 2.0984930023550987 21.251475997269154 -5
      vertex 0.12311699986457825 21.564345002174377 -5
    endloop
  endfacet
  facet normal 0 0 -1
    outer loop
      vertex 2.3915480002760887 22.47213599830866 -5
      vertex 0.12311699986457825 21.564345002174377 -5
      vertex 0.48943500220775604 23.09017000347376 -5
    endloop
  endfacet
  facet normal 0 0 -1
    outer loop
      vertex 2.8719479963183403 23.631924003362656 -5
      vertex 2.3915480002760887 22.47213599830866 -5
      vertex 0.48943500220775604 23.09017000347376 -5
    endloop
  endfacet
  facet normal 0 0 -1
    outer loop
      vertex 2.8719479963183403 23.631924003362656 -5
      vertex 0.48943500220775604 23.09017000347376 -5
      vertex 1.0899349972605705 24.53990499675274 -5
    endloop
  endfacet
  facet normal 0 0 -1
    outer loop
      vertex 3.5278640016913414 24.70228199660778 -5
      vertex 2.8719479963183403 23.631924003362656 -5
      vertex 1.0899349972605705 24.53990499675274 -5
    endloop
  endfacet
  facet normal 0 0 -1
    outer loop
      vertex 1.9098299965262413 25.877852998673916 -5
      vertex 3.5278640016913414 24.70228199660778 -5
      vertex 1.0899349972605705 24.53990499675274 -5
    endloop
  endfacet
  facet normal 0 0 1
    outer loop
      vertex 20 20 5
      vertex 18 20 5
      vertex 17.9015069976449 -1.2514759972691536 5
    endloop
  endfacet
  facet normal 0 0 1
    outer loop
      vertex 19.87688300013542 -1.5643450021743774 5
      vertex 20 20 5
      vertex 17.9015069976449 -1.2514759972691536 5
    endloop
  endfacet
  facet normal 0 0 1
    outer loop
      vertex 17.9015069976449 21.251475997269154 5
      vertex 18 20 5
      vertex 20 20 5
    endloop
  endfacet
  facet normal 0 0 1
    outer loop
      vertex 17.9015069976449 21.251475997269154 5
      vertex 20 20 5
      vertex 19.87688300013542 21.564345002174377 5
    endloop
  endfacet
  facet normal 0 0 1
    outer loop
      vertex 19.87688300013542 -1.5643450021743774 5
      vertex 17.9015069976449 -1.2514759972691536 5
      vertex 17.60845199972391 -2.4721359983086586 5
    endloop
  endfacet
  facet normal 0 0 1
    outer loop
      vertex 19.510564997792244 -3.0901700034737587 5
      vertex 19.87688300013542 -1.5643450021743774 5
      vertex 17.60845199972391 -2.4721359983086586 5
    endloop
  endfacet
  facet normal 0 0 1
    outer loop
      vertex 19.510564997792244 -3.0901700034737587 5
      vertex 17.60845199972391 -2.4721359983086586 5
      vertex 17.12805200368166 -3.6319240033626556 5
    endloop
  endfacet
  facet normal 0 0 1
    outer loop
      vertex 18.91006500273943 -4.539904996752739 5
      vertex 19.510564997792244 -3.0901700034737587 5
      vertex 17.12805200368166 -3.6319240033626556 5
    endloop
  endfacet
  facet normal 0 0 1
    outer loop
      vertex 18.91006500273943 -4.539904996752739 5
      vertex 17.12805200368166 -3.6319240033626556 5
      vertex 16.47213599830866 -4.7022819966077805 5
    endloop
  endfacet
  facet normal 0 0 1
    outer loop
      vertex 18.09017000347376 -5.877852998673916 5
      vertex 18.91006500273943 -4.539904996752739 5
      vertex 16.47213599830866 -4.7022819966077805 5
    endloop
  endfacet
  facet normal 0 0 1
    outer loop
      vertex 18.09017000347376 -5.877852998673916 5
      vertex 16.47213599830866 -4.7022819966077805 5
      vertex 15.656854003667831 -5.656854003667831 5
    endloop
  endfacet
  facet normal 0 0 1
    outer loop
      vertex 17.07106799632311 -7.071067996323109 5
      vertex 18.09017000347376 -5.877852998673916 5
      vertex 15.656854003667831 -5.656854003667831 5
    endloop
  endfacet
  facet normal 0 0 1
    outer loop
      vertex 17.07106799632311 -7.071067996323109 5
      vertex 15.656854003667831 -5.656854003667831 5
      vertex 14.70228199660778 -6.472135998308659 5
    endloop
  endfacet
  facet normal 0 0 1
    outer loop
      vertex 15.877852998673916 -8.090170003473759 5
      vertex 17.07106799632311 -7.071067996323109 5
      vertex 14.70228199660778 -6.472135998308659 5
    endloop
  endfacet
  facet normal 0 0 1
    outer loop
      vertex 17.60845199972391 22.47213599830866 5
      vertex 17.9015069976449 21.251475997269154 5
      vertex 19.87688300013542 21.564345002174377 5
    endloop
  endfacet
  facet normal 0 0 1
    outer loop
      vertex 17.60845199972391 22.47213599830866 5
      vertex 19.87688300013542 21.564345002174377 5
      vertex 19.510564997792244 23.09017000347376 5
    endloop
  endfacet
  facet normal 0 0 1
    outer loop
      vertex 17.12805200368166 23.631924003362656 5
      vertex 17.60845199972391 22.47213599830866 5
      vertex 19.510564997792244 23.09017000347376 5
    endloop
  endfacet
  facet normal 0 0 1
    outer loop
      vertex 17.12805200368166 23.631924003362656 5
      vertex 19.510564997792244 23.09017000347376 5
      vertex 18.91006500273943 24.53990499675274 5
    endloop
  endfacet
  facet normal 0 0 1
    outer loop
      vertex 16.47213599830866 24.70228199660778 5
      vertex 17.12805200368166 23.631924003362656 5
      vertex 18.91006500273943 24.53990499675274 5
    endloop
  endfacet
  facet normal 0 0 1
    outer loop
      vertex 16.47213599830866 24.70228199660778 5
      vertex 18.91006500273943 24.53990499675274 5
      vertex 18.09017000347376 25.877852998673916 5
    endloop
  endfacet
  facet normal 0 0 1
    outer loop
      vertex 15.656854003667831 25.65685400366783 5
      vertex 16.47213599830866 24.70228199660778 5
      vertex 18.09017000347376 25.877852998673916 5
    endloop
  endfacet
  facet normal 0 0 1
    outer loop
      vertex 15.656854003667831 25.65685400366783 5
      vertex 18.09017000347376 25.877852998673916 5
      vertex 17.07106799632311 27.07106799632311 5
    endloop
  endfacet
  facet normal 0 0 1
    outer loop
      vertex 14.70228199660778 26.47213599830866 5
      vertex 15.656854003667831 25.65685400366783 5
      vertex 17.07106799632311 27.07106799632311 5
    endloop
  endfacet
  facet normal 0 0 1
    outer loop
      vertex 14.70228199660778 26.47213599830866 5
      vertex 17.07106799632311 27.07106799632311 5
      vertex 15.877852998673916 28.09017000347376 5
    endloop
  endfacet
  facet normal 0 0 1
    outer loop
      vertex 15.877852998673916 -8.090170003473759 5
      vertex 14.70228199660778 -6.472135998308659 5
      vertex 13.631924003362656 -7.12805200368166 5
    endloop
  endfacet
  facet normal 0 0 1
    outer loop
      vertex 14.539904996752739 -8.91006500273943 5
      vertex 15.877852998673916 -8.090170003473759 5
      vertex 13.631924003362656 -7.12805200368166 5
    endloop
  endfacet
  facet normal 0 0 1
    outer loop
      vertex 14.539904996752739 -8.91006500273943 5
      vertex 13.631924003362656 -7.12805200368166 5
      vertex 12.472135998308659 -7.608451999723911 5
    endloop
  endfacet
  facet normal 0 0 1
    outer loop
      vertex 13.090170003473759 -9.510564997792244 5
      vertex 14.539904996752739 -8.91006500273943 5
      vertex 12.472135998308659 -7.608451999723911 5
    endloop
  endfacet
  facet normal 0 0 1
    outer loop
      vertex 13.090170003473759 -9.510564997792244 5
      vertex 12.472135998308659 -7.608451999723911 5
      vertex 11.251475997269154 -7.901506997644901 5
    endloop
  endfacet
  facet normal 0 0 1
    outer loop
      vertex 11.564345002174377 -9.876883000135422 5
      vertex 13.090170003473759 -9.510564997792244 5
      vertex 11.251475997269154 -7.901506997644901 5
    endloop
  endfacet
  facet normal 0 0 1
    outer loop
      vertex 11.564345002174377 -9.876883000135422 5
      vertex 11.251475997269154 -7.901506997644901 5
      vertex 10 -8 5
    endloop
  endfacet
  facet normal 0 0 1
    outer loop
      vertex 10 -10 5
      vertex 11.564345002174377 -9.876883000135422 5
      vertex 10 -8 5
    endloop
  endfacet
  facet normal 0 0 1
    outer loop
      vertex 10 -10 5
      vertex 10 -8 5
      vertex 8.748524002730846 -7.901506997644901 5
    endloop
  endfacet
  facet normal 0 0 1
    outer loop
      vertex 8.435654997825623 -9.876883000135422 5
      vertex 10 -10 5
      vertex 8.748524002730846 -7.901506997644901 5
    endloop
  endfacet
  facet normal 0 0 1
    outer loop
      vertex 8.435654997825623 -9.876883000135422 5
      vertex 8.748524002730846 -7.901506997644901 5
      vertex 7.527864001691341 -7.608451999723911 5
    endloop
  endfacet
  facet normal 0 0 1
    outer loop
      vertex 6.909829996526241 -9.510564997792244 5
      vertex 8.435654997825623 -9.876883000135422 5
      vertex 7.527864001691341 -7.608451999723911 5
    endloop
  endfacet
  facet normal 0 0 1
    outer loop
      vertex 6.909829996526241 -9.510564997792244 5
      vertex 7.527864001691341 -7.608451999723911 5
      vertex 6.368075996637344 -7.12805200368166 5
    endloop
  endfacet
  facet normal 0 0 1
    outer loop
      vertex 5.460095003247261 -8.91006500273943 5
      vertex 6.909829996526241 -9.510564997792244 5
      vertex 6.368075996637344 -7.12805200368166 5
    endloop
  endfacet
  facet normal 0 0 1
    outer loop
      vertex 5.460095003247261 -8.91006500273943 5
      vertex 6.368075996637344 -7.12805200368166 5
      vertex 5.2977180033922195 -6.472135998308659 5
    endloop
  endfacet
  facet normal 0 0 1
    outer loop
      vertex 4.122147001326084 -8.090170003473759 5
      vertex 5.460095003247261 -8.91006500273943 5
      vertex 5.2977180033922195 -6.472135998308659 5
    endloop
  endfacet
  facet normal 0 0 1
    outer loop
      vertex 4.122147001326084 -8.090170003473759 5
      vertex 5.2977180033922195 -6.472135998308659 5
      vertex 4.343145996332169 -5.656854003667831 5
    endloop
  endfacet
  facet normal 0 0 1
    outer loop
      vertex 2.9289320036768913 -7.071067996323109 5
      vertex 4.122147001326084 -8.090170003473759 5
      vertex 4.343145996332169 -5.656854003667831 5
    endloop
  endfacet
  facet normal 0 0 1
    outer loop
      vertex 2.9289320036768913 -7.071067996323109 5
      vertex 4.343145996332169 -5.656854003667831 5
      vertex 3.5278640016913414 -4.7022819966077805 5
    endloop
  endfacet
  facet normal 0 0 1
    outer loop
      vertex 1.9098299965262413 -5.877852998673916 5
      vertex 2.9289320036768913 -7.071067996323109 5
      vertex 3.5278640016913414 -4.7022819966077805 5
    endloop
  endfacet
  facet normal 0 0 1
    outer loop
      vertex 13.631924003362656 27.12805200368166 5
      vertex 14.70228199660778 26.47213599830866 5
      vertex 15.877852998673916 28.09017000347376 5
    endloop
  endfacet
  facet normal 0 0 1
    outer loop
      vertex 13.631924003362656 27.12805200368166 5
      vertex 15.877852998673916 28.09017000347376 5
      vertex 14.539904996752739 28.91006500273943 5
    endloop
  endfacet
  facet normal 0 0 1
    outer loop
      vertex 12.472135998308659 27.60845199972391 5
      vertex 13.631924003362656 27.12805200368166 5
      vertex 14.539904996752739 28.91006500273943 5
    endloop
  endfacet
  facet normal 0 0 1
    outer loop
      vertex 12.472135998308659 27.60845199972391 5
      vertex 14.539904996752739 28.91006500273943 5
      vertex 13.090170003473759 29.510564997792244 5
    endloop
  endfacet
  facet normal 0 0 1
    outer loop
      vertex 11.251475997269154 27.9015069976449 5
      vertex 12.472135998308659 27.60845199972391 5
      vertex 13.090170003473759 29.510564997792244 5
    endloop
  endfacet
  facet normal 0 0 1
    outer loop
      vertex 11.251475997269154 27.9015069976449 5
      vertex 13.090170003473759 29.510564997792244 5
      vertex 11.564345002174377 29.87688300013542 5
    endloop
  endfacet
  facet normal 0 0 1
    outer loop
      vertex 10 28 5
      vertex 11.251475997269154 27.9015069976449 5
      vertex 11.564345002174377 29.87688300013542 5
    endloop
  endfacet
  facet normal 0 0 1
    outer loop
      vertex 10 28 5
      vertex 11.564345002174377 29.87688300013542 5
      vertex 10 30 5
    endloop
  endfacet
  facet normal 0 0 1
    outer loop
      vertex 8.748524002730846 27.9015069976449 5
      vertex 10 28 5
      vertex 10 30 5
    endloop
  endfacet
  facet normal 0 0 1
    outer loop
      vertex 8.748524002730846 27.9015069976449 5
      vertex 10 30 5
      vertex 8.435654997825623 29.87688300013542 5
    endloop
  endfacet
  facet normal 0 0 1
    outer loop
      vertex 7.527864001691341 27.60845199972391 5
      vertex 8.748524002730846 27.9015069976449 5
      vertex 8.435654997825623 29.87688300013542 5
    endloop
  endfacet
  facet normal 0 0 1
    outer loop
      vertex 7.527864001691341 27.60845199972391 5
      vertex 8.435654997825623 29.87688300013542 5
      vertex 6.909829996526241 29.510564997792244 5
    endloop
  endfacet
  facet normal 0 0 1
    outer loop
      vertex 6.368075996637344 27.12805200368166 5
      vertex 7.527864001691341 27.60845199972391 5
      vertex 6.909829996526241 29.510564997792244 5
    endloop
  endfacet
  facet normal 0 0 1
    outer loop
      vertex 6.368075996637344 27.12805200368166 5
      vertex 6.909829996526241 29.510564997792244 5
      vertex 5.460095003247261 28.91006500273943 5
    endloop
  endfacet
  facet normal 0 0 1
    outer loop
      vertex 5.2977180033922195 26.47213599830866 5
      vertex 6.368075996637344 27.12805200368166 5
      vertex 5.460095003247261 28.91006500273943 5
    endloop
  endfacet
  facet normal 0 0 1
    outer loop
      vertex 5.2977180033922195 26.47213599830866 5
      vertex 5.460095003247261 28.91006500273943 5
      vertex 4.122147001326084 28.09017000347376 5
    endloop
  endfacet
  facet normal 0 0 1
    outer loop
      vertex 4.343145996332169 25.65685400366783 5
      vertex 5.2977180033922195 26.47213599830866 5
      vertex 4.122147001326084 28.09017000347376 5
    endloop
  endfacet
  facet normal 0 0 1
    outer loop
      vertex 4.343145996332169 25.65685400366783 5
      vertex 4.122147001326084 28.09017000347376 5
      vertex 2.9289320036768913 27.07106799632311 5
    endloop
  endfacet
  facet normal 0 0 1
    outer loop
      vertex 3.5278640016913414 24.70228199660778 5
      vertex 4.343145996332169 25.65685400366783 5
      vertex 2.9289320036768913 27.07106799632311 5
    endloop
  endfacet
  facet normal 0 0 1
    outer loop
      vertex 3.5278640016913414 24.70228199660778 5
      vertex 2.9289320036768913 27.07106799632311 5
      vertex 1.9098299965262413 25.877852998673916 5
    endloop
  endfacet
  facet normal 0 0 1
    outer loop
      vertex 1.9098299965262413 -5.877852998673916 5
      vertex 3.5278640016913414 -4.7022819966077805 5
      vertex 2.8719479963183403 -3.6319240033626556 5
    endloop
  endfacet
  facet normal 0 0 1
    outer loop
      vertex 1.0899349972605705 -4.539904996752739 5
      vertex 1.9098299965262413 -5.877852998673916 5
      vertex 2.8719479963183403 -3.6319240033626556 5
    endloop
  endfacet
  facet normal 0 0 1
    outer loop
      vertex 1.0899349972605705 -4.539904996752739 5
      vertex 2.8719479963183403 -3.6319240033626556 5
      vertex 2.3915480002760887 -2.4721359983086586 5
    endloop
  endfacet
  facet normal 0 0 1
    outer loop
      vertex 0.48943500220775604 -3.0901700034737587 5
      vertex 1.0899349972605705 -4.539904996752739 5
      vertex 2.3915480002760887 -2.4721359983086586 5
    endloop
  endfacet
  facet normal 0 0 1
    outer loop
      vertex 0.48943500220775604 -3.0901700034737587 5
      vertex 2.3915480002760887 -2.4721359983086586 5
      vertex 2.0984930023550987 -1.2514759972691536 5
    endloop
  endfacet
  facet normal 0 0 1
    outer loop
      vertex 0.12311699986457825 -1.5643450021743774 5
      vertex 0.48943500220775604 -3.0901700034737587 5
      vertex 2.0984930023550987 -1.2514759972691536 5
    endloop
  endfacet
  facet normal 0 0 1
    outer loop
      vertex 0.12311699986457825 -1.5643450021743774 5
      vertex 2.0984930023550987 -1.2514759972691536 5
      vertex 2 0 5
    endloop
  endfacet
  facet normal 0 0 1
    outer loop
      vertex 0 0 5
      vertex 0.12311699986457825 -1.5643450021743774 5
      vertex 2 0 5
    endloop
  endfacet
  facet normal 0 0 1
    outer loop
      vertex 0 0 5
      vertex 2 0 5
      vertex 2.0984930023550987 21.251475997269154 5
    endloop
  endfacet
  facet normal 0 0 1
    outer loop
      vertex 0.12311699986457825 21.564345002174377 5
      vertex 0 0 5
      vertex 2.0984930023550987 21.251475997269154 5
    endloop
  endfacet
  facet normal 0 0 1
    outer loop
      vertex 0.12311699986457825 21.564345002174377 5
      vertex 2.0984930023550987 21.251475997269154 5
      vertex 2.3915480002760887 22.47213599830866 5
    endloop
  endfacet
  facet normal 0 0 1
    outer loop
      vertex 0.48943500220775604 23.09017000347376 5
      vertex 0.12311699986457825 21.564345002174377 5
      vertex 2.3915480002760887 22.47213599830866 5
    endloop
  endfacet
  facet normal 0 0 1
    outer loop
      vertex 0.48943500220775604 23.09017000347376 5
      vertex 2.3915480002760887 22.47213599830866 5
      vertex 2.8719479963183403 23.631924003362656 5
    endloop
  endfacet
  facet normal 0 0 1
    outer loop
      vertex 1.0899349972605705 24.53990499675274 5
      vertex 0.48943500220775604 23.09017000347376 5
      vertex 2.8719479963183403 23.631924003362656 5
    endloop
  endfacet
  facet normal 0 0 1
    outer loop
      vertex 1.0899349972605705 24.53990499675274 5
      vertex 2.8719479963183403 23.631924003362656 5
      vertex 3.5278640016913414 24.70228199660778 5
    endloop
  endfacet
  facet normal 0 0 1
    outer loop
      vertex 1.0899349972605705 24.53990499675274 5
      vertex 3.5278640016913414 24.70228199660778 5
      vertex 1.9098299965262413 25.877852998673916 5
    endloop
  endfacet
endsolid OpenSCAD_Model
