solid OpenSCAD_Model
  facet normal 0 -1 0
    outer loop
      vertex 80 8 0
      vertex 40 8 20
      vertex 40 8 0
    endloop
  endfacet
  facet normal 0 -1 0
    outer loop
      vertex 80 8 0
      vertex 80 8 20
      vertex 40 8 20
    endloop
  endfacet
  facet normal 1 0 0
    outer loop
      vertex 80 18 0
      vertex 80 8 20
      vertex 80 8 0
    endloop
  endfacet
  facet normal 1 0 0
    outer loop
      vertex 80 18 0
      vertex 80 18 20
      vertex 80 8 20
    endloop
  endfacet
  facet normal 0.4226182604463769 0.9063077876402025 0
    outer loop
      vertex -55.94616799801588 81.39273899793625 0
      vertex 80 18 20
      vertex 80 18 0
    endloop
  endfacet
  facet normal 0.4226182604463769 0.9063077876402025 0
    outer loop
      vertex -55.94616799801588 81.39273899793625 0
      vertex -55.94616799801588 81.39273899793625 20
      vertex 80 18 20
    endloop
  endfacet
  facet normal 0.906307793944478 -0.4226182469268141 0
    outer loop
      vertex -47.49380300194025 99.51889500021935 0
      vertex -55.94616799801588 81.39273899793625 20
      vertex -55.94616799801588 81.39273899793625 0
    endloop
  endfacet
  facet normal 0.906307793944478 -0.4226182469268141 0
    outer loop
      vertex -47.49380300194025 99.51889500021935 0
      vertex -47.49380300194025 99.51889500021935 20
      vertex -55.94616799801588 81.39273899793625 20
    endloop
  endfacet
  facet normal 0.422618260594503 0.9063077875711301 0
    outer loop
      vertex -61.08842000365257 105.85816899687052 0
      vertex -47.49380300194025 99.51889500021935 20
      vertex -47.49380300194025 99.51889500021935 0
    endloop
  endfacet
  facet normal 0.422618260594503 0.9063077875711301 0
    outer loop
      vertex -61.08842000365257 105.85816899687052 0
      vertex -61.08842000365257 105.85816899687052 20
      vertex -47.49380300194025 99.51889500021935 20
    endloop
  endfacet
  facet normal -0.906307793877942 0.422618247069501 0
    outer loop
      vertex -69.5407849997282 87.732013002038 0
      vertex -61.08842000365257 105.85816899687052 20
      vertex -61.08842000365257 105.85816899687052 0
    endloop
  endfacet
  facet normal -0.906307793877942 0.422618247069501 0
    outer loop
      vertex -69.5407849997282 87.732013002038 0
      vertex -69.5407849997282 87.732013002038 20
      vertex -61.08842000365257 105.85816899687052 20
    endloop
  endfacet
  facet normal 0.4226182604463769 0.9063077876402025 0
    outer loop
      vertex -205.48695299774408 151.12475199997425 0
      vertex -69.5407849997282 87.732013002038 20
      vertex -69.5407849997282 87.732013002038 0
    endloop
  endfacet
  facet normal 0.4226182604463769 0.9063077876402025 0
    outer loop
      vertex -205.48695299774408 151.12475199997425 0
      vertex -205.48695299774408 151.12475199997425 20
      vertex -69.5407849997282 87.732013002038 20
    endloop
  endfacet
  facet normal 0.35020746011455217 0.9366721597656859 0
    outer loop
      vertex -207.69166699796915 151.94906099885702 0
      vertex -205.48695299774408 151.12475199997425 20
      vertex -205.48695299774408 151.12475199997425 0
    endloop
  endfacet
  facet normal 0.35020746011455217 0.9366721597656859 0
    outer loop
      vertex -207.69166699796915 151.94906099885702 0
      vertex -207.69166699796915 151.94906099885702 20
      vertex -205.48695299774408 151.12475199997425 20
    endloop
  endfacet
  facet normal 0.19936801827445197 0.9799246875598745 0
    outer loop
      vertex -209.9981869980693 152.41832800209522 0
      vertex -207.69166699796915 151.94906099885702 20
      vertex -207.69166699796915 151.94906099885702 0
    endloop
  endfacet
  facet normal 0.19936801827445197 0.9799246875598745 0
    outer loop
      vertex -209.9981869980693 152.41832800209522 0
      vertex -209.9981869980693 152.41832800209522 20
      vertex -207.69166699796915 151.94906099885702 20
    endloop
  endfacet
  facet normal 0.0436193425846143 0.9990482235370253 0
    outer loop
      vertex -212.3497190028429 152.52099800109863 0
      vertex -209.9981869980693 152.41832800209522 20
      vertex -209.9981869980693 152.41832800209522 0
    endloop
  endfacet
  facet normal 0.0436193425846143 0.9990482235370253 0
    outer loop
      vertex -212.3497190028429 152.52099800109863 0
      vertex -212.3497190028429 152.52099800109863 20
      vertex -209.9981869980693 152.41832800209522 20
    endloop
  endfacet
  facet normal -0.11320333513426059 0.9935718418486307 0
    outer loop
      vertex -214.68836200237274 152.25454299896955 0
      vertex -212.3497190028429 152.52099800109863 20
      vertex -212.3497190028429 152.52099800109863 0
    endloop
  endfacet
  facet normal -0.11320333513426059 0.9935718418486307 0
    outer loop
      vertex -214.68836200237274 152.25454299896955 0
      vertex -214.68836200237274 152.25454299896955 20
      vertex -212.3497190028429 152.52099800109863 20
    endloop
  endfacet
  facet normal -0.26723822738467407 0.9636304944449907 0
    outer loop
      vertex -216.95652899891138 151.62552499771118 0
      vertex -214.68836200237274 152.25454299896955 20
      vertex -214.68836200237274 152.25454299896955 0
    endloop
  endfacet
  facet normal -0.26723822738467407 0.9636304944449907 0
    outer loop
      vertex -216.95652899891138 151.62552499771118 0
      vertex -216.95652899891138 151.62552499771118 20
      vertex -214.68836200237274 152.25454299896955 20
    endloop
  endfacet
  facet normal -0.4146933711834943 0.9099612123032874 0
    outer loop
      vertex -219.09837099909782 150.6494309976697 0
      vertex -216.95652899891138 151.62552499771118 20
      vertex -216.95652899891138 151.62552499771118 0
    endloop
  endfacet
  facet normal -0.4146933711834943 0.9099612123032874 0
    outer loop
      vertex -219.09837099909782 150.6494309976697 0
      vertex -219.09837099909782 150.6494309976697 20
      vertex -216.95652899891138 151.62552499771118 20
    endloop
  endfacet
  facet normal -0.5519368617542324 0.8338859038482961 0
    outer loop
      vertex -221.06114900112152 149.35029699653387 0
      vertex -219.09837099909782 150.6494309976697 20
      vertex -219.09837099909782 150.6494309976697 0
    endloop
  endfacet
  facet normal -0.5519368617542324 0.8338859038482961 0
    outer loop
      vertex -221.06114900112152 149.35029699653387 0
      vertex -221.06114900112152 149.35029699653387 20
      vertex -219.09837099909782 150.6494309976697 20
    endloop
  endfacet
  facet normal -0.675590314151966 0.7372772391875718 0
    outer loop
      vertex -222.79653199762106 147.76011099666357 0
      vertex -221.06114900112152 149.35029699653387 20
      vertex -221.06114900112152 149.35029699653387 0
    endloop
  endfacet
  facet normal -0.675590314151966 0.7372772391875718 0
    outer loop
      vertex -222.79653199762106 147.76011099666357 0
      vertex -222.79653199762106 147.76011099666357 20
      vertex -221.06114900112152 149.35029699653387 20
    endloop
  endfacet
  facet normal -0.7826081934980892 0.6225145905676888 0
    outer loop
      vertex -224.26178999990225 145.9180290028453 0
      vertex -222.79653199762106 147.76011099666357 20
      vertex -222.79653199762106 147.76011099666357 0
    endloop
  endfacet
  facet normal -0.7826081934980892 0.6225145905676888 0
    outer loop
      vertex -224.26178999990225 145.9180290028453 0
      vertex -224.26178999990225 145.9180290028453 20
      vertex -222.79653199762106 147.76011099666357 20
    endloop
  endfacet
  facet normal -0.8703554884759495 0.4924239267945776 0
    outer loop
      vertex -225.42084400355816 143.86941000074148 0
      vertex -224.26178999990225 145.9180290028453 20
      vertex -224.26178999990225 145.9180290028453 0
    endloop
  endfacet
  facet normal -0.8703554884759495 0.4924239267945776 0
    outer loop
      vertex -225.42084400355816 143.86941000074148 0
      vertex -225.42084400355816 143.86941000074148 20
      vertex -224.26178999990225 145.9180290028453 20
    endloop
  endfacet
  facet normal -0.9366722999411735 0.35020708519804755 0
    outer loop
      vertex -226.24515199661255 141.66469600051641 0
      vertex -225.42084400355816 143.86941000074148 20
      vertex -225.42084400355816 143.86941000074148 0
    endloop
  endfacet
  facet normal -0.9366722999411735 0.35020708519804755 0
    outer loop
      vertex -226.24515199661255 141.66469600051641 0
      vertex -226.24515199661255 141.66469600051641 20
      vertex -225.42084400355816 143.86941000074148 20
    endloop
  endfacet
  facet normal -0.9799246875598745 0.19936801827445197 0
    outer loop
      vertex -226.71441899985075 139.35817600041628 0
      vertex -226.24515199661255 141.66469600051641 20
      vertex -226.24515199661255 141.66469600051641 0
    endloop
  endfacet
  facet normal -0.9799246875598745 0.19936801827445197 0
    outer loop
      vertex -226.71441899985075 139.35817600041628 0
      vertex -226.71441899985075 139.35817600041628 20
      vertex -226.24515199661255 141.66469600051641 20
    endloop
  endfacet
  facet normal -0.999048224344053 0.043619324100618674 0
    outer loop
      vertex -226.81708899885416 137.00664299726486 0
      vertex -226.71441899985075 139.35817600041628 20
      vertex -226.71441899985075 139.35817600041628 0
    endloop
  endfacet
  facet normal -0.999048224344053 0.043619324100618674 0
    outer loop
      vertex -226.81708899885416 137.00664299726486 0
      vertex -226.81708899885416 137.00664299726486 20
      vertex -226.71441899985075 139.35817600041628 20
    endloop
  endfacet
  facet normal -0.9935718844361594 -0.11320296134809983 0
    outer loop
      vertex -226.55063500255346 134.6680010035634 0
      vertex -226.81708899885416 137.00664299726486 20
      vertex -226.81708899885416 137.00664299726486 0
    endloop
  endfacet
  facet normal -0.9935718844361594 -0.11320296134809983 0
    outer loop
      vertex -226.55063500255346 134.6680010035634 0
      vertex -226.55063500255346 134.6680010035634 20
      vertex -226.81708899885416 137.00664299726486 20
    endloop
  endfacet
  facet normal -0.9636304157336264 -0.2672385112086921 0
    outer loop
      vertex -225.9216160029173 132.39983300119638 0
      vertex -226.55063500255346 134.6680010035634 20
      vertex -226.55063500255346 134.6680010035634 0
    endloop
  endfacet
  facet normal -0.9636304157336264 -0.2672385112086921 0
    outer loop
      vertex -225.9216160029173 132.39983300119638 0
      vertex -225.9216160029173 132.39983300119638 20
      vertex -226.55063500255346 134.6680010035634 20
    endloop
  endfacet
  facet normal -0.9099612123032874 -0.4146933711834943 0
    outer loop
      vertex -224.9455220028758 130.25799100100994 0
      vertex -225.9216160029173 132.39983300119638 20
      vertex -225.9216160029173 132.39983300119638 0
    endloop
  endfacet
  facet normal -0.9099612123032874 -0.4146933711834943 0
    outer loop
      vertex -224.9455220028758 130.25799100100994 0
      vertex -224.9455220028758 130.25799100100994 20
      vertex -225.9216160029173 132.39983300119638 20
    endloop
  endfacet
  facet normal -0.833885774634348 -0.5519370569752258 0
    outer loop
      vertex -223.64638800173998 128.29521399736404 0
      vertex -224.9455220028758 130.25799100100994 20
      vertex -224.9455220028758 130.25799100100994 0
    endloop
  endfacet
  facet normal -0.833885774634348 -0.5519370569752258 0
    outer loop
      vertex -223.64638800173998 128.29521399736404 0
      vertex -223.64638800173998 128.29521399736404 20
      vertex -224.9455220028758 130.25799100100994 20
    endloop
  endfacet
  facet normal -0.7372774327838614 -0.6755901028786898 0
    outer loop
      vertex -222.05620200186968 126.5598300024867 0
      vertex -223.64638800173998 128.29521399736404 20
      vertex -223.64638800173998 128.29521399736404 0
    endloop
  endfacet
  facet normal -0.7372774327838614 -0.6755901028786898 0
    outer loop
      vertex -222.05620200186968 126.5598300024867 0
      vertex -222.05620200186968 126.5598300024867 20
      vertex -223.64638800173998 128.29521399736404 20
    endloop
  endfacet
  facet normal -0.6225145890255642 -0.7826081947247504 0
    outer loop
      vertex -220.21412000060081 125.09457200020552 0
      vertex -222.05620200186968 126.5598300024867 20
      vertex -222.05620200186968 126.5598300024867 0
    endloop
  endfacet
  facet normal -0.6225145890255642 -0.7826081947247504 0
    outer loop
      vertex -220.21412000060081 125.09457200020552 0
      vertex -220.21412000060081 125.09457200020552 20
      vertex -222.05620200186968 126.5598300024867 20
    endloop
  endfacet
  facet normal -0.492423603087017 -0.8703556716209758 0
    outer loop
      vertex -218.165500998497 123.93551900237799 0
      vertex -220.21412000060081 125.09457200020552 20
      vertex -220.21412000060081 125.09457200020552 0
    endloop
  endfacet
  facet normal -0.492423603087017 -0.8703556716209758 0
    outer loop
      vertex -218.165500998497 123.93551900237799 0
      vertex -218.165500998497 123.93551900237799 20
      vertex -220.21412000060081 125.09457200020552 20
    endloop
  endfacet
  facet normal -0.42261826048717593 -0.9063077876211775 0
    outer loop
      vertex -82.21933300048113 60.54277999699116 0
      vertex -218.165500998497 123.93551900237799 20
      vertex -218.165500998497 123.93551900237799 0
    endloop
  endfacet
  facet normal -0.42261826048717593 -0.9063077876211775 0
    outer loop
      vertex -82.21933300048113 60.54277999699116 0
      vertex -82.21933300048113 60.54277999699116 20
      vertex -218.165500998497 123.93551900237799 20
    endloop
  endfacet
  facet normal -0.906307793877942 0.422618247069501 0
    outer loop
      vertex -90.67169799655676 42.41662400215864 0
      vertex -82.21933300048113 60.54277999699116 20
      vertex -82.21933300048113 60.54277999699116 0
    endloop
  endfacet
  facet normal -0.906307793877942 0.422618247069501 0
    outer loop
      vertex -90.67169799655676 42.41662400215864 0
      vertex -90.67169799655676 42.41662400215864 20
      vertex -82.21933300048113 60.54277999699116 20
    endloop
  endfacet
  facet normal -0.422618261192743 -0.9063077872921663 0
    outer loop
      vertex -77.07708100229502 36.07734999805689 0
      vertex -90.67169799655676 42.41662400215864 20
      vertex -90.67169799655676 42.41662400215864 0
    endloop
  endfacet
  facet normal -0.422618261192743 -0.9063077872921663 0
    outer loop
      vertex -77.07708100229502 36.07734999805689 0
      vertex -77.07708100229502 36.07734999805689 20
      vertex -90.67169799655676 42.41662400215864 20
    endloop
  endfacet
  facet normal 0.9063077938017912 -0.42261824723280716 0
    outer loop
      vertex -68.6247159987688 54.203506000339985 0
      vertex -77.07708100229502 36.07734999805689 20
      vertex -77.07708100229502 36.07734999805689 0
    endloop
  endfacet
  facet normal 0.9063077938017912 -0.42261824723280716 0
    outer loop
      vertex -68.6247159987688 54.203506000339985 0
      vertex -68.6247159987688 54.203506000339985 20
      vertex -77.07708100229502 36.07734999805689 20
    endloop
  endfacet
  facet normal -0.6198281248008183 -0.7847375967200126 0
    outer loop
      vertex 0 0 0
      vertex -68.6247159987688 54.203506000339985 20
      vertex -68.6247159987688 54.203506000339985 0
    endloop
  endfacet
  facet normal -0.6198281248008183 -0.7847375967200126 0
    outer loop
      vertex 0 0 0
      vertex 0 0 20
      vertex -68.6247159987688 54.203506000339985 20
    endloop
  endfacet
  facet normal 0 -1 0
    outer loop
      vertex 40 0 0
      vertex 0 0 20
      vertex 0 0 0
    endloop
  endfacet
  facet normal 0 -1 0
    outer loop
      vertex 40 0 0
      vertex 40 0 20
      vertex 0 0 20
    endloop
  endfacet
  facet normal 1 0 0
    outer loop
      vertex 40 8 0
      vertex 40 0 20
      vertex 40 0 0
    endloop
  endfacet
  facet normal 1 0 0
    outer loop
      vertex 40 8 0
      vertex 40 8 20
      vertex 40 0 20
    endloop
  endfacet
  facet normal 0.12533322709888756 0.9921147021312499 0
    outer loop
      vertex -212.95051489025354 131.63641249388456 0
      vertex -212.95051489025354 131.63641249388456 20
      vertex -212.20297011733055 131.5419756323099 0
    endloop
  endfacet
  facet normal 0.12533322709888756 0.9921147021312499 0
    outer loop
      vertex -212.20297011733055 131.5419756323099 20
      vertex -212.20297011733055 131.5419756323099 0
      vertex -212.95051489025354 131.63641249388456 20
    endloop
  endfacet
  facet normal 0.248689894719458 0.9685831591889387 0
    outer loop
      vertex -213.68032896518707 131.82379690557718 0
      vertex -213.68032896518707 131.82379690557718 20
      vertex -212.95051489025354 131.63641249388456 0
    endloop
  endfacet
  facet normal 0.248689894719458 0.9685831591889387 0
    outer loop
      vertex -212.95051489025354 131.63641249388456 20
      vertex -212.95051489025354 131.63641249388456 0
      vertex -213.68032896518707 131.82379690557718 20
    endloop
  endfacet
  facet normal 0.36812454566784164 0.9297764886664134 0
    outer loop
      vertex -214.38090275228024 132.10117368400097 0
      vertex -214.38090275228024 132.10117368400097 20
      vertex -213.68032896518707 131.82379690557718 0
    endloop
  endfacet
  facet normal 0.36812454566784164 0.9297764886664134 0
    outer loop
      vertex -213.68032896518707 131.82379690557718 20
      vertex -213.68032896518707 131.82379690557718 0
      vertex -214.38090275228024 132.10117368400097 20
    endloop
  endfacet
  facet normal 0.4817536737397583 0.8763066802428511 0
    outer loop
      vertex -215.0411877706647 132.46416844427586 0
      vertex -215.0411877706647 132.46416844427586 20
      vertex -214.38090275228024 132.10117368400097 0
    endloop
  endfacet
  facet normal 0.4817536737397583 0.8763066802428511 0
    outer loop
      vertex -214.38090275228024 132.10117368400097 20
      vertex -214.38090275228024 132.10117368400097 0
      vertex -215.0411877706647 132.46416844427586 20
    endloop
  endfacet
  facet normal 0.5877852515792666 0.8090169948931223 0
    outer loop
      vertex -215.65077093988657 132.90705654025078 0
      vertex -215.65077093988657 132.90705654025078 20
      vertex -215.0411877706647 132.46416844427586 0
    endloop
  endfacet
  facet normal 0.5877852515792666 0.8090169948931223 0
    outer loop
      vertex -215.0411877706647 132.46416844427586 20
      vertex -215.0411877706647 132.46416844427586 0
      vertex -215.65077093988657 132.90705654025078 20
    endloop
  endfacet
  facet normal 0.6845471122219577 0.7289686215116385 0
    outer loop
      vertex -216.2000387609005 133.4228533655405 0
      vertex -216.2000387609005 133.4228533655405 20
      vertex -215.65077093988657 132.90705654025078 0
    endloop
  endfacet
  facet normal 0.6845471122219577 0.7289686215116385 0
    outer loop
      vertex -215.65077093988657 132.90705654025078 20
      vertex -215.65077093988657 132.90705654025078 0
      vertex -216.2000387609005 133.4228533655405 20
    endloop
  endfacet
  facet normal 0.7705132414542417 0.6374239913461662 0
    outer loop
      vertex -216.68032896518707 134.00342448800802 0
      vertex -216.68032896518707 134.00342448800802 20
      vertex -216.2000387609005 133.4228533655405 0
    endloop
  endfacet
  facet normal 0.7705132414542417 0.6374239913461662 0
    outer loop
      vertex -216.2000387609005 133.4228533655405 20
      vertex -216.2000387609005 133.4228533655405 0
      vertex -216.68032896518707 134.00342448800802 20
    endloop
  endfacet
  facet normal 0.8443279223252111 0.5358267999848385 0
    outer loop
      vertex -217.0840670838952 134.639613956213 0
      vertex -217.0840670838952 134.639613956213 20
      vertex -216.68032896518707 134.00342448800802 0
    endloop
  endfacet
  facet normal 0.8443279223252111 0.5358267999848385 0
    outer loop
      vertex -216.68032896518707 134.00342448800802 20
      vertex -216.68032896518707 134.00342448800802 0
      vertex -217.0840670838952 134.639613956213 20
    endloop
  endfacet
  facet normal 0.9048270528869663 0.4257792906705153 0
    outer loop
      vertex -217.404885917902 135.32138868421316 0
      vertex -217.404885917902 135.32138868421316 20
      vertex -217.0840670838952 134.639613956213 0
    endloop
  endfacet
  facet normal 0.9048270528869663 0.4257792906705153 0
    outer loop
      vertex -217.0840670838952 134.639613956213 20
      vertex -217.0840670838952 134.639613956213 0
      vertex -217.404885917902 135.32138868421316 20
    endloop
  endfacet
  facet normal 0.9510565185864778 0.30901698732297633 0
    outer loop
      vertex -217.63772596418858 136.03799667954445 0
      vertex -217.63772596418858 136.03799667954445 20
      vertex -217.404885917902 135.32138868421316 0
    endloop
  endfacet
  facet normal 0.9510565185864778 0.30901698732297633 0
    outer loop
      vertex -217.404885917902 135.32138868421316 20
      vertex -217.404885917902 135.32138868421316 0
      vertex -217.63772596418858 136.03799667954445 20
    endloop
  endfacet
  facet normal 0.9822872489648057 0.18738132383232328 0
    outer loop
      vertex -217.77891521155834 136.77813659608364 0
      vertex -217.77891521155834 136.77813659608364 20
      vertex -217.63772596418858 136.03799667954445 0
    endloop
  endfacet
  facet normal 0.9822872489648057 0.18738132383232328 0
    outer loop
      vertex -217.63772596418858 136.03799667954445 20
      vertex -217.63772596418858 136.03799667954445 0
      vertex -217.77891521155834 136.77813659608364 20
    endloop
  endfacet
  facet normal 0.9980267285757662 0.06279051718495252 0
    outer loop
      vertex -217.82622700184584 137.53013599663973 0
      vertex -217.82622700184584 137.53013599663973 20
      vertex -217.77891521155834 136.77813659608364 0
    endloop
  endfacet
  facet normal 0.9980267285757662 0.06279051718495252 0
    outer loop
      vertex -217.77891521155834 136.77813659608364 20
      vertex -217.77891521155834 136.77813659608364 0
      vertex -217.82622700184584 137.53013599663973 20
    endloop
  endfacet
  facet normal 0.9980267286147517 -0.062790516565296 0
    outer loop
      vertex -217.77891521155834 138.2821354046464 0
      vertex -217.77891521155834 138.2821354046464 20
      vertex -217.82622700184584 137.53013599663973 0
    endloop
  endfacet
  facet normal 0.9980267286147517 -0.062790516565296 0
    outer loop
      vertex -217.82622700184584 137.53013599663973 20
      vertex -217.82622700184584 137.53013599663973 0
      vertex -217.77891521155834 138.2821354046464 20
    endloop
  endfacet
  facet normal 0.9822872489648057 -0.18738132383232328 0
    outer loop
      vertex -217.63772596418858 139.0222753211856 0
      vertex -217.63772596418858 139.0222753211856 20
      vertex -217.77891521155834 138.2821354046464 0
    endloop
  endfacet
  facet normal 0.9822872489648057 -0.18738132383232328 0
    outer loop
      vertex -217.77891521155834 138.2821354046464 20
      vertex -217.77891521155834 138.2821354046464 0
      vertex -217.63772596418858 139.0222753211856 20
    endloop
  endfacet
  facet normal 0.9510565185864778 -0.30901698732297633 0
    outer loop
      vertex -217.404885917902 139.73888331651688 0
      vertex -217.404885917902 139.73888331651688 20
      vertex -217.63772596418858 139.0222753211856 0
    endloop
  endfacet
  facet normal 0.9510565185864778 -0.30901698732297633 0
    outer loop
      vertex -217.63772596418858 139.0222753211856 20
      vertex -217.63772596418858 139.0222753211856 0
      vertex -217.404885917902 139.73888331651688 20
    endloop
  endfacet
  facet normal 0.9048270528869663 -0.4257792906705153 0
    outer loop
      vertex -217.0840670838952 140.42065804451704 0
      vertex -217.0840670838952 140.42065804451704 20
      vertex -217.404885917902 139.73888331651688 0
    endloop
  endfacet
  facet normal 0.9048270528869663 -0.4257792906705153 0
    outer loop
      vertex -217.404885917902 139.73888331651688 20
      vertex -217.404885917902 139.73888331651688 0
      vertex -217.0840670838952 140.42065804451704 20
    endloop
  endfacet
  facet normal 0.8443279223252111 -0.5358267999848385 0
    outer loop
      vertex -216.68032896518707 141.05684751272202 0
      vertex -216.68032896518707 141.05684751272202 20
      vertex -217.0840670838952 140.42065804451704 0
    endloop
  endfacet
  facet normal 0.8443279223252111 -0.5358267999848385 0
    outer loop
      vertex -217.0840670838952 140.42065804451704 20
      vertex -217.0840670838952 140.42065804451704 0
      vertex -216.68032896518707 141.05684751272202 20
    endloop
  endfacet
  facet normal 0.7705132414542417 -0.6374239913461662 0
    outer loop
      vertex -216.2000387609005 141.63741863518953 0
      vertex -216.2000387609005 141.63741863518953 20
      vertex -216.68032896518707 141.05684751272202 0
    endloop
  endfacet
  facet normal 0.7705132414542417 -0.6374239913461662 0
    outer loop
      vertex -216.68032896518707 141.05684751272202 20
      vertex -216.68032896518707 141.05684751272202 0
      vertex -216.2000387609005 141.63741863518953 20
    endloop
  endfacet
  facet normal 0.6845471069674447 -0.7289686264459546 0
    outer loop
      vertex -215.65077093988657 142.15321545302868 0
      vertex -215.65077093988657 142.15321545302868 20
      vertex -216.2000387609005 141.63741863518953 0
    endloop
  endfacet
  facet normal 0.6845471069674447 -0.7289686264459546 0
    outer loop
      vertex -216.2000387609005 141.63741863518953 20
      vertex -216.2000387609005 141.63741863518953 0
      vertex -215.65077093988657 142.15321545302868 20
    endloop
  endfacet
  facet normal 0.587785258051141 -0.8090169901910302 0
    outer loop
      vertex -215.0411877706647 142.59610355645418 0
      vertex -215.0411877706647 142.59610355645418 20
      vertex -215.65077093988657 142.15321545302868 0
    endloop
  endfacet
  facet normal 0.587785258051141 -0.8090169901910302 0
    outer loop
      vertex -215.65077093988657 142.15321545302868 20
      vertex -215.65077093988657 142.15321545302868 0
      vertex -215.0411877706647 142.59610355645418 20
    endloop
  endfacet
  facet normal 0.4817536737397583 -0.8763066802428511 0
    outer loop
      vertex -214.38090275228024 142.95909831672907 0
      vertex -214.38090275228024 142.95909831672907 20
      vertex -215.0411877706647 142.59610355645418 0
    endloop
  endfacet
  facet normal 0.4817536737397583 -0.8763066802428511 0
    outer loop
      vertex -215.0411877706647 142.59610355645418 20
      vertex -215.0411877706647 142.59610355645418 0
      vertex -214.38090275228024 142.95909831672907 20
    endloop
  endfacet
  facet normal 0.36812454566784164 -0.9297764886664134 0
    outer loop
      vertex -213.68032896518707 143.23647509515285 0
      vertex -213.68032896518707 143.23647509515285 20
      vertex -214.38090275228024 142.95909831672907 0
    endloop
  endfacet
  facet normal 0.36812454566784164 -0.9297764886664134 0
    outer loop
      vertex -214.38090275228024 142.95909831672907 20
      vertex -214.38090275228024 142.95909831672907 0
      vertex -213.68032896518707 143.23647509515285 20
    endloop
  endfacet
  facet normal 0.248689894719458 -0.9685831591889387 0
    outer loop
      vertex -212.95051489025354 143.42385950684547 0
      vertex -212.95051489025354 143.42385950684547 20
      vertex -213.68032896518707 143.23647509515285 0
    endloop
  endfacet
  facet normal 0.248689894719458 -0.9685831591889387 0
    outer loop
      vertex -213.68032896518707 143.23647509515285 20
      vertex -213.68032896518707 143.23647509515285 0
      vertex -212.95051489025354 143.42385950684547 20
    endloop
  endfacet
  facet normal 0.12533322709888756 -0.9921147021312499 0
    outer loop
      vertex -212.20297011733055 143.51829636842012 0
      vertex -212.20297011733055 143.51829636842012 20
      vertex -212.95051489025354 143.42385950684547 0
    endloop
  endfacet
  facet normal 0.12533322709888756 -0.9921147021312499 0
    outer loop
      vertex -212.95051489025354 143.42385950684547 20
      vertex -212.95051489025354 143.42385950684547 0
      vertex -212.20297011733055 143.51829636842012 20
    endloop
  endfacet
  facet normal 0 -1 0
    outer loop
      vertex -211.44948388636112 143.51829636842012 0
      vertex -211.44948388636112 143.51829636842012 20
      vertex -212.20297011733055 143.51829636842012 0
    endloop
  endfacet
  facet normal 0 -1 0
    outer loop
      vertex -212.20297011733055 143.51829636842012 20
      vertex -212.20297011733055 143.51829636842012 0
      vertex -211.44948388636112 143.51829636842012 20
    endloop
  endfacet
  facet normal -0.12533322709888756 -0.9921147021312499 0
    outer loop
      vertex -210.70193911343813 143.42385950684547 0
      vertex -210.70193911343813 143.42385950684547 20
      vertex -211.44948388636112 143.51829636842012 0
    endloop
  endfacet
  facet normal -0.12533322709888756 -0.9921147021312499 0
    outer loop
      vertex -211.44948388636112 143.51829636842012 20
      vertex -211.44948388636112 143.51829636842012 0
      vertex -210.70193911343813 143.42385950684547 20
    endloop
  endfacet
  facet normal -0.24868989233763303 -0.9685831598004875 0
    outer loop
      vertex -209.97212503105402 143.23647509515285 0
      vertex -209.97212503105402 143.23647509515285 20
      vertex -210.70193911343813 143.42385950684547 0
    endloop
  endfacet
  facet normal -0.24868989233763303 -0.9685831598004875 0
    outer loop
      vertex -210.70193911343813 143.42385950684547 20
      vertex -210.70193911343813 143.42385950684547 0
      vertex -209.97212503105402 143.23647509515285 20
    endloop
  endfacet
  facet normal -0.36812454905229186 -0.9297764873264148 0
    outer loop
      vertex -209.27155125141144 142.95909831672907 0
      vertex -209.27155125141144 142.95909831672907 20
      vertex -209.97212503105402 143.23647509515285 0
    endloop
  endfacet
  facet normal -0.36812454905229186 -0.9297764873264148 0
    outer loop
      vertex -209.97212503105402 143.23647509515285 20
      vertex -209.97212503105402 143.23647509515285 0
      vertex -209.27155125141144 142.95909831672907 20
    endloop
  endfacet
  facet normal -0.4817536737397583 -0.8763066802428511 0
    outer loop
      vertex -208.61126623302698 142.59610355645418 0
      vertex -208.61126623302698 142.59610355645418 20
      vertex -209.27155125141144 142.95909831672907 0
    endloop
  endfacet
  facet normal -0.4817536737397583 -0.8763066802428511 0
    outer loop
      vertex -209.27155125141144 142.95909831672907 20
      vertex -209.27155125141144 142.95909831672907 0
      vertex -208.61126623302698 142.59610355645418 20
    endloop
  endfacet
  facet normal -0.587785258051141 -0.8090169901910302 0
    outer loop
      vertex -208.0016830638051 142.15321545302868 0
      vertex -208.0016830638051 142.15321545302868 20
      vertex -208.61126623302698 142.59610355645418 0
    endloop
  endfacet
  facet normal -0.587785258051141 -0.8090169901910302 0
    outer loop
      vertex -208.61126623302698 142.59610355645418 20
      vertex -208.61126623302698 142.59610355645418 0
      vertex -208.0016830638051 142.15321545302868 20
    endloop
  endfacet
  facet normal -0.6845471020331286 -0.728968631079586 0
    outer loop
      vertex -207.4524152353406 141.63741863518953 0
      vertex -207.4524152353406 141.63741863518953 20
      vertex -208.0016830638051 142.15321545302868 0
    endloop
  endfacet
  facet normal -0.6845471020331286 -0.728968631079586 0
    outer loop
      vertex -208.0016830638051 142.15321545302868 20
      vertex -208.0016830638051 142.15321545302868 0
      vertex -207.4524152353406 141.63741863518953 20
    endloop
  endfacet
  facet normal -0.7705132414542417 -0.6374239913461662 0
    outer loop
      vertex -206.97212503105402 141.05684751272202 0
      vertex -206.97212503105402 141.05684751272202 20
      vertex -207.4524152353406 141.63741863518953 0
    endloop
  endfacet
  facet normal -0.7705132414542417 -0.6374239913461662 0
    outer loop
      vertex -207.4524152353406 141.63741863518953 20
      vertex -207.4524152353406 141.63741863518953 0
      vertex -206.97212503105402 141.05684751272202 20
    endloop
  endfacet
  facet normal -0.8443279267987414 -0.5358267929356828 0
    outer loop
      vertex -206.56838691979647 140.42065804451704 0
      vertex -206.56838691979647 140.42065804451704 20
      vertex -206.97212503105402 141.05684751272202 0
    endloop
  endfacet
  facet normal -0.8443279267987414 -0.5358267929356828 0
    outer loop
      vertex -206.97212503105402 141.05684751272202 20
      vertex -206.97212503105402 141.05684751272202 0
      vertex -206.56838691979647 140.42065804451704 20
    endloop
  endfacet
  facet normal -0.9048270528869663 -0.4257792906705153 0
    outer loop
      vertex -206.24756808578968 139.73888331651688 0
      vertex -206.24756808578968 139.73888331651688 20
      vertex -206.56838691979647 140.42065804451704 0
    endloop
  endfacet
  facet normal -0.9048270528869663 -0.4257792906705153 0
    outer loop
      vertex -206.56838691979647 140.42065804451704 20
      vertex -206.56838691979647 140.42065804451704 0
      vertex -206.24756808578968 139.73888331651688 20
    endloop
  endfacet
  facet normal -0.9510565156804252 -0.3090169962668869 0
    outer loop
      vertex -206.01472803205252 139.0222753211856 0
      vertex -206.01472803205252 139.0222753211856 20
      vertex -206.24756808578968 139.73888331651688 0
    endloop
  endfacet
  facet normal -0.9510565156804252 -0.3090169962668869 0
    outer loop
      vertex -206.24756808578968 139.73888331651688 20
      vertex -206.24756808578968 139.73888331651688 0
      vertex -206.01472803205252 139.0222753211856 20
    endloop
  endfacet
  facet normal -0.98228725078484 -0.18738131429136906 0
    outer loop
      vertex -205.87353879213333 138.2821354046464 0
      vertex -205.87353879213333 138.2821354046464 20
      vertex -206.01472803205252 139.0222753211856 0
    endloop
  endfacet
  facet normal -0.98228725078484 -0.18738131429136906 0
    outer loop
      vertex -206.01472803205252 139.0222753211856 20
      vertex -206.01472803205252 139.0222753211856 0
      vertex -205.87353879213333 138.2821354046464 20
    endloop
  endfacet
  facet normal -0.9980267286147517 -0.062790516565296 0
    outer loop
      vertex -205.82622700184584 137.53013599663973 0
      vertex -205.82622700184584 137.53013599663973 20
      vertex -205.87353879213333 138.2821354046464 0
    endloop
  endfacet
  facet normal -0.9980267286147517 -0.062790516565296 0
    outer loop
      vertex -205.87353879213333 138.2821354046464 20
      vertex -205.87353879213333 138.2821354046464 0
      vertex -205.82622700184584 137.53013599663973 20
    endloop
  endfacet
  facet normal -0.9980267285757662 0.06279051718495252 0
    outer loop
      vertex -205.87353879213333 136.77813659608364 0
      vertex -205.87353879213333 136.77813659608364 20
      vertex -205.82622700184584 137.53013599663973 0
    endloop
  endfacet
  facet normal -0.9980267285757662 0.06279051718495252 0
    outer loop
      vertex -205.82622700184584 137.53013599663973 20
      vertex -205.82622700184584 137.53013599663973 0
      vertex -205.87353879213333 136.77813659608364 20
    endloop
  endfacet
  facet normal -0.98228725078484 0.18738131429136906 0
    outer loop
      vertex -206.01472803205252 136.03799667954445 0
      vertex -206.01472803205252 136.03799667954445 20
      vertex -205.87353879213333 136.77813659608364 0
    endloop
  endfacet
  facet normal -0.98228725078484 0.18738131429136906 0
    outer loop
      vertex -205.87353879213333 136.77813659608364 20
      vertex -205.87353879213333 136.77813659608364 0
      vertex -206.01472803205252 136.03799667954445 20
    endloop
  endfacet
  facet normal -0.9510565156804252 0.3090169962668869 0
    outer loop
      vertex -206.24756808578968 135.32138868421316 0
      vertex -206.24756808578968 135.32138868421316 20
      vertex -206.01472803205252 136.03799667954445 0
    endloop
  endfacet
  facet normal -0.9510565156804252 0.3090169962668869 0
    outer loop
      vertex -206.01472803205252 136.03799667954445 20
      vertex -206.01472803205252 136.03799667954445 0
      vertex -206.24756808578968 135.32138868421316 20
    endloop
  endfacet
  facet normal -0.9048270528869663 0.4257792906705153 0
    outer loop
      vertex -206.56838691979647 134.639613956213 0
      vertex -206.56838691979647 134.639613956213 20
      vertex -206.24756808578968 135.32138868421316 0
    endloop
  endfacet
  facet normal -0.9048270528869663 0.4257792906705153 0
    outer loop
      vertex -206.24756808578968 135.32138868421316 20
      vertex -206.24756808578968 135.32138868421316 0
      vertex -206.56838691979647 134.639613956213 20
    endloop
  endfacet
  facet normal -0.8443279267987414 0.5358267929356828 0
    outer loop
      vertex -206.97212503105402 134.00342448800802 0
      vertex -206.97212503105402 134.00342448800802 20
      vertex -206.56838691979647 134.639613956213 0
    endloop
  endfacet
  facet normal -0.8443279267987414 0.5358267929356828 0
    outer loop
      vertex -206.56838691979647 134.639613956213 20
      vertex -206.56838691979647 134.639613956213 0
      vertex -206.97212503105402 134.00342448800802 20
    endloop
  endfacet
  facet normal -0.7705132414542417 0.6374239913461662 0
    outer loop
      vertex -207.4524152353406 133.4228533655405 0
      vertex -207.4524152353406 133.4228533655405 20
      vertex -206.97212503105402 134.00342448800802 0
    endloop
  endfacet
  facet normal -0.7705132414542417 0.6374239913461662 0
    outer loop
      vertex -206.97212503105402 134.00342448800802 20
      vertex -206.97212503105402 134.00342448800802 0
      vertex -207.4524152353406 133.4228533655405 20
    endloop
  endfacet
  facet normal -0.6845471072876416 0.7289686261452698 0
    outer loop
      vertex -208.0016830638051 132.90705654025078 0
      vertex -208.0016830638051 132.90705654025078 20
      vertex -207.4524152353406 133.4228533655405 0
    endloop
  endfacet
  facet normal -0.6845471072876416 0.7289686261452698 0
    outer loop
      vertex -207.4524152353406 133.4228533655405 20
      vertex -207.4524152353406 133.4228533655405 0
      vertex -208.0016830638051 132.90705654025078 20
    endloop
  endfacet
  facet normal -0.5877852515792666 0.8090169948931223 0
    outer loop
      vertex -208.61126623302698 132.46416844427586 0
      vertex -208.61126623302698 132.46416844427586 20
      vertex -208.0016830638051 132.90705654025078 0
    endloop
  endfacet
  facet normal -0.5877852515792666 0.8090169948931223 0
    outer loop
      vertex -208.0016830638051 132.90705654025078 20
      vertex -208.0016830638051 132.90705654025078 0
      vertex -208.61126623302698 132.46416844427586 20
    endloop
  endfacet
  facet normal -0.4817536737397583 0.8763066802428511 0
    outer loop
      vertex -209.27155125141144 132.10117368400097 0
      vertex -209.27155125141144 132.10117368400097 20
      vertex -208.61126623302698 132.46416844427586 0
    endloop
  endfacet
  facet normal -0.4817536737397583 0.8763066802428511 0
    outer loop
      vertex -208.61126623302698 132.46416844427586 20
      vertex -208.61126623302698 132.46416844427586 0
      vertex -209.27155125141144 132.10117368400097 20
    endloop
  endfacet
  facet normal -0.36812454905229186 0.9297764873264148 0
    outer loop
      vertex -209.97212503105402 131.82379690557718 0
      vertex -209.97212503105402 131.82379690557718 20
      vertex -209.27155125141144 132.10117368400097 0
    endloop
  endfacet
  facet normal -0.36812454905229186 0.9297764873264148 0
    outer loop
      vertex -209.27155125141144 132.10117368400097 20
      vertex -209.27155125141144 132.10117368400097 0
      vertex -209.97212503105402 131.82379690557718 20
    endloop
  endfacet
  facet normal -0.24868989233763303 0.9685831598004875 0
    outer loop
      vertex -210.70193911343813 131.63641249388456 0
      vertex -210.70193911343813 131.63641249388456 20
      vertex -209.97212503105402 131.82379690557718 0
    endloop
  endfacet
  facet normal -0.24868989233763303 0.9685831598004875 0
    outer loop
      vertex -209.97212503105402 131.82379690557718 20
      vertex -209.97212503105402 131.82379690557718 0
      vertex -210.70193911343813 131.63641249388456 20
    endloop
  endfacet
  facet normal -0.12533322709888756 0.9921147021312499 0
    outer loop
      vertex -211.44948388636112 131.5419756323099 0
      vertex -211.44948388636112 131.5419756323099 20
      vertex -210.70193911343813 131.63641249388456 0
    endloop
  endfacet
  facet normal -0.12533322709888756 0.9921147021312499 0
    outer loop
      vertex -210.70193911343813 131.63641249388456 20
      vertex -210.70193911343813 131.63641249388456 0
      vertex -211.44948388636112 131.5419756323099 20
    endloop
  endfacet
  facet normal 0 1 0
    outer loop
      vertex -212.20297011733055 131.5419756323099 0
      vertex -212.20297011733055 131.5419756323099 20
      vertex -211.44948388636112 131.5419756323099 0
    endloop
  endfacet
  facet normal 0 1 0
    outer loop
      vertex -211.44948388636112 131.5419756323099 20
      vertex -211.44948388636112 131.5419756323099 0
      vertex -212.20297011733055 131.5419756323099 20
    endloop
  endfacet
  facet normal 0 0 -1
    outer loop
      vertex -68.6247159987688 54.203506000339985 0
      vertex -77.07708100229502 36.07734999805689 0
      vertex -90.67169799655676 42.41662400215864 0
    endloop
  endfacet
  facet normal 0 0 -1
    outer loop
      vertex -68.6247159987688 54.203506000339985 0
      vertex -90.67169799655676 42.41662400215864 0
      vertex -82.21933300048113 60.54277999699116 0
    endloop
  endfacet
  facet normal 0 0 -1
    outer loop
      vertex -69.5407849997282 87.732013002038 0
      vertex -61.08842000365257 105.85816899687052 0
      vertex -47.49380300194025 99.51889500021935 0
    endloop
  endfacet
  facet normal 0 0 -1
    outer loop
      vertex -69.5407849997282 87.732013002038 0
      vertex -47.49380300194025 99.51889500021935 0
      vertex -55.94616799801588 81.39273899793625 0
    endloop
  endfacet
  facet normal 0 0 -1
    outer loop
      vertex 80 18 0
      vertex 80 8 0
      vertex 40 8 0
    endloop
  endfacet
  facet normal 0 0 -1
    outer loop
      vertex 40 8 0
      vertex 40 0 0
      vertex 0 0 0
    endloop
  endfacet
  facet normal 0 0 -1
    outer loop
      vertex -205.82622700184584 137.53013599663973 0
      vertex -205.48695299774408 151.12475199997425 0
      vertex -69.5407849997282 87.732013002038 0
    endloop
  endfacet
  facet normal 0 0 -1
    outer loop
      vertex -205.87353879213333 136.77813659608364 0
      vertex -205.82622700184584 137.53013599663973 0
      vertex -69.5407849997282 87.732013002038 0
    endloop
  endfacet
  facet normal 0 0 -1
    outer loop
      vertex -206.01472803205252 136.03799667954445 0
      vertex -205.87353879213333 136.77813659608364 0
      vertex -69.5407849997282 87.732013002038 0
    endloop
  endfacet
  facet normal 0 0 -1
    outer loop
      vertex -206.24756808578968 135.32138868421316 0
      vertex -206.01472803205252 136.03799667954445 0
      vertex -69.5407849997282 87.732013002038 0
    endloop
  endfacet
  facet normal 0 0 -1
    outer loop
      vertex -206.56838691979647 134.639613956213 0
      vertex -206.24756808578968 135.32138868421316 0
      vertex -69.5407849997282 87.732013002038 0
    endloop
  endfacet
  facet normal 0 0 -1
    outer loop
      vertex -206.97212503105402 134.00342448800802 0
      vertex -206.56838691979647 134.639613956213 0
      vertex -69.5407849997282 87.732013002038 0
    endloop
  endfacet
  facet normal 0 0 -1
    outer loop
      vertex -207.4524152353406 133.4228533655405 0
      vertex -206.97212503105402 134.00342448800802 0
      vertex -69.5407849997282 87.732013002038 0
    endloop
  endfacet
  facet normal 0 0 -1
    outer loop
      vertex -55.94616799801588 81.39273899793625 0
      vertex 80 18 0
      vertex 40 8 0
    endloop
  endfacet
  facet normal 0 0 -1
    outer loop
      vertex -55.94616799801588 81.39273899793625 0
      vertex 40 8 0
      vertex 0 0 0
    endloop
  endfacet
  facet normal 0 0 -1
    outer loop
      vertex -55.94616799801588 81.39273899793625 0
      vertex 0 0 0
      vertex -68.6247159987688 54.203506000339985 0
    endloop
  endfacet
  facet normal 0 0 -1
    outer loop
      vertex -69.5407849997282 87.732013002038 0
      vertex -55.94616799801588 81.39273899793625 0
      vertex -68.6247159987688 54.203506000339985 0
    endloop
  endfacet
  facet normal 0 0 -1
    outer loop
      vertex -69.5407849997282 87.732013002038 0
      vertex -68.6247159987688 54.203506000339985 0
      vertex -82.21933300048113 60.54277999699116 0
    endloop
  endfacet
  facet normal 0 0 -1
    outer loop
      vertex -207.4524152353406 133.4228533655405 0
      vertex -69.5407849997282 87.732013002038 0
      vertex -82.21933300048113 60.54277999699116 0
    endloop
  endfacet
  facet normal 0 0 -1
    outer loop
      vertex -208.0016830638051 132.90705654025078 0
      vertex -207.4524152353406 133.4228533655405 0
      vertex -82.21933300048113 60.54277999699116 0
    endloop
  endfacet
  facet normal 0 0 -1
    outer loop
      vertex -208.61126623302698 132.46416844427586 0
      vertex -208.0016830638051 132.90705654025078 0
      vertex -82.21933300048113 60.54277999699116 0
    endloop
  endfacet
  facet normal 0 0 -1
    outer loop
      vertex -209.27155125141144 132.10117368400097 0
      vertex -208.61126623302698 132.46416844427586 0
      vertex -82.21933300048113 60.54277999699116 0
    endloop
  endfacet
  facet normal 0 0 -1
    outer loop
      vertex -209.27155125141144 132.10117368400097 0
      vertex -82.21933300048113 60.54277999699116 0
      vertex -218.165500998497 123.93551900237799 0
    endloop
  endfacet
  facet normal 0 0 -1
    outer loop
      vertex -209.97212503105402 131.82379690557718 0
      vertex -209.27155125141144 132.10117368400097 0
      vertex -218.165500998497 123.93551900237799 0
    endloop
  endfacet
  facet normal 0 0 -1
    outer loop
      vertex -210.70193911343813 131.63641249388456 0
      vertex -209.97212503105402 131.82379690557718 0
      vertex -218.165500998497 123.93551900237799 0
    endloop
  endfacet
  facet normal 0 0 -1
    outer loop
      vertex -211.44948388636112 131.5419756323099 0
      vertex -210.70193911343813 131.63641249388456 0
      vertex -218.165500998497 123.93551900237799 0
    endloop
  endfacet
  facet normal 0 0 -1
    outer loop
      vertex -212.20297011733055 131.5419756323099 0
      vertex -211.44948388636112 131.5419756323099 0
      vertex -218.165500998497 123.93551900237799 0
    endloop
  endfacet
  facet normal 0 0 -1
    outer loop
      vertex -212.95051489025354 131.63641249388456 0
      vertex -212.20297011733055 131.5419756323099 0
      vertex -218.165500998497 123.93551900237799 0
    endloop
  endfacet
  facet normal 0 0 -1
    outer loop
      vertex -213.68032896518707 131.82379690557718 0
      vertex -212.95051489025354 131.63641249388456 0
      vertex -218.165500998497 123.93551900237799 0
    endloop
  endfacet
  facet normal 0 0 -1
    outer loop
      vertex -214.38090275228024 132.10117368400097 0
      vertex -213.68032896518707 131.82379690557718 0
      vertex -218.165500998497 123.93551900237799 0
    endloop
  endfacet
  facet normal 0 0 -1
    outer loop
      vertex -214.38090275228024 132.10117368400097 0
      vertex -218.165500998497 123.93551900237799 0
      vertex -220.21412000060081 125.09457200020552 0
    endloop
  endfacet
  facet normal 0 0 -1
    outer loop
      vertex -215.0411877706647 132.46416844427586 0
      vertex -214.38090275228024 132.10117368400097 0
      vertex -220.21412000060081 125.09457200020552 0
    endloop
  endfacet
  facet normal 0 0 -1
    outer loop
      vertex -215.65077093988657 132.90705654025078 0
      vertex -215.0411877706647 132.46416844427586 0
      vertex -220.21412000060081 125.09457200020552 0
    endloop
  endfacet
  facet normal 0 0 -1
    outer loop
      vertex -215.65077093988657 132.90705654025078 0
      vertex -220.21412000060081 125.09457200020552 0
      vertex -222.05620200186968 126.5598300024867 0
    endloop
  endfacet
  facet normal 0 0 -1
    outer loop
      vertex -216.2000387609005 133.4228533655405 0
      vertex -215.65077093988657 132.90705654025078 0
      vertex -222.05620200186968 126.5598300024867 0
    endloop
  endfacet
  facet normal 0 0 -1
    outer loop
      vertex -216.2000387609005 133.4228533655405 0
      vertex -222.05620200186968 126.5598300024867 0
      vertex -223.64638800173998 128.29521399736404 0
    endloop
  endfacet
  facet normal 0 0 -1
    outer loop
      vertex -216.68032896518707 134.00342448800802 0
      vertex -216.2000387609005 133.4228533655405 0
      vertex -223.64638800173998 128.29521399736404 0
    endloop
  endfacet
  facet normal 0 0 -1
    outer loop
      vertex -216.68032896518707 134.00342448800802 0
      vertex -223.64638800173998 128.29521399736404 0
      vertex -224.9455220028758 130.25799100100994 0
    endloop
  endfacet
  facet normal 0 0 -1
    outer loop
      vertex -217.0840670838952 134.639613956213 0
      vertex -216.68032896518707 134.00342448800802 0
      vertex -224.9455220028758 130.25799100100994 0
    endloop
  endfacet
  facet normal 0 0 -1
    outer loop
      vertex -217.0840670838952 134.639613956213 0
      vertex -224.9455220028758 130.25799100100994 0
      vertex -225.9216160029173 132.39983300119638 0
    endloop
  endfacet
  facet normal 0 0 -1
    outer loop
      vertex -217.404885917902 135.32138868421316 0
      vertex -217.0840670838952 134.639613956213 0
      vertex -225.9216160029173 132.39983300119638 0
    endloop
  endfacet
  facet normal 0 0 -1
    outer loop
      vertex -217.63772596418858 136.03799667954445 0
      vertex -217.404885917902 135.32138868421316 0
      vertex -225.9216160029173 132.39983300119638 0
    endloop
  endfacet
  facet normal 0 0 -1
    outer loop
      vertex -217.63772596418858 136.03799667954445 0
      vertex -225.9216160029173 132.39983300119638 0
      vertex -226.55063500255346 134.6680010035634 0
    endloop
  endfacet
  facet normal 0 0 -1
    outer loop
      vertex -217.77891521155834 136.77813659608364 0
      vertex -217.63772596418858 136.03799667954445 0
      vertex -226.55063500255346 134.6680010035634 0
    endloop
  endfacet
  facet normal 0 0 -1
    outer loop
      vertex -217.77891521155834 136.77813659608364 0
      vertex -226.55063500255346 134.6680010035634 0
      vertex -226.81708899885416 137.00664299726486 0
    endloop
  endfacet
  facet normal 0 0 -1
    outer loop
      vertex -217.82622700184584 137.53013599663973 0
      vertex -217.77891521155834 136.77813659608364 0
      vertex -226.81708899885416 137.00664299726486 0
    endloop
  endfacet
  facet normal 0 0 -1
    outer loop
      vertex -217.82622700184584 137.53013599663973 0
      vertex -226.81708899885416 137.00664299726486 0
      vertex -226.71441899985075 139.35817600041628 0
    endloop
  endfacet
  facet normal 0 0 -1
    outer loop
      vertex -217.77891521155834 138.2821354046464 0
      vertex -217.82622700184584 137.53013599663973 0
      vertex -226.71441899985075 139.35817600041628 0
    endloop
  endfacet
  facet normal 0 0 -1
    outer loop
      vertex -217.77891521155834 138.2821354046464 0
      vertex -226.71441899985075 139.35817600041628 0
      vertex -226.24515199661255 141.66469600051641 0
    endloop
  endfacet
  facet normal 0 0 -1
    outer loop
      vertex -217.63772596418858 139.0222753211856 0
      vertex -217.77891521155834 138.2821354046464 0
      vertex -226.24515199661255 141.66469600051641 0
    endloop
  endfacet
  facet normal 0 0 -1
    outer loop
      vertex -217.404885917902 139.73888331651688 0
      vertex -217.63772596418858 139.0222753211856 0
      vertex -226.24515199661255 141.66469600051641 0
    endloop
  endfacet
  facet normal 0 0 -1
    outer loop
      vertex -217.404885917902 139.73888331651688 0
      vertex -226.24515199661255 141.66469600051641 0
      vertex -225.42084400355816 143.86941000074148 0
    endloop
  endfacet
  facet normal 0 0 -1
    outer loop
      vertex -217.0840670838952 140.42065804451704 0
      vertex -217.404885917902 139.73888331651688 0
      vertex -225.42084400355816 143.86941000074148 0
    endloop
  endfacet
  facet normal 0 0 -1
    outer loop
      vertex -217.0840670838952 140.42065804451704 0
      vertex -225.42084400355816 143.86941000074148 0
      vertex -224.26178999990225 145.9180290028453 0
    endloop
  endfacet
  facet normal 0 0 -1
    outer loop
      vertex -216.68032896518707 141.05684751272202 0
      vertex -217.0840670838952 140.42065804451704 0
      vertex -224.26178999990225 145.9180290028453 0
    endloop
  endfacet
  facet normal 0 0 -1
    outer loop
      vertex -216.68032896518707 141.05684751272202 0
      vertex -224.26178999990225 145.9180290028453 0
      vertex -222.79653199762106 147.76011099666357 0
    endloop
  endfacet
  facet normal 0 0 -1
    outer loop
      vertex -216.2000387609005 141.63741863518953 0
      vertex -216.68032896518707 141.05684751272202 0
      vertex -222.79653199762106 147.76011099666357 0
    endloop
  endfacet
  facet normal 0 0 -1
    outer loop
      vertex -216.2000387609005 141.63741863518953 0
      vertex -222.79653199762106 147.76011099666357 0
      vertex -221.06114900112152 149.35029699653387 0
    endloop
  endfacet
  facet normal 0 0 -1
    outer loop
      vertex -215.65077093988657 142.15321545302868 0
      vertex -216.2000387609005 141.63741863518953 0
      vertex -221.06114900112152 149.35029699653387 0
    endloop
  endfacet
  facet normal 0 0 -1
    outer loop
      vertex -215.0411877706647 142.59610355645418 0
      vertex -215.65077093988657 142.15321545302868 0
      vertex -221.06114900112152 149.35029699653387 0
    endloop
  endfacet
  facet normal 0 0 -1
    outer loop
      vertex -215.0411877706647 142.59610355645418 0
      vertex -221.06114900112152 149.35029699653387 0
      vertex -219.09837099909782 150.6494309976697 0
    endloop
  endfacet
  facet normal 0 0 -1
    outer loop
      vertex -214.38090275228024 142.95909831672907 0
      vertex -215.0411877706647 142.59610355645418 0
      vertex -219.09837099909782 150.6494309976697 0
    endloop
  endfacet
  facet normal 0 0 -1
    outer loop
      vertex -214.38090275228024 142.95909831672907 0
      vertex -219.09837099909782 150.6494309976697 0
      vertex -216.95652899891138 151.62552499771118 0
    endloop
  endfacet
  facet normal 0 0 -1
    outer loop
      vertex -213.68032896518707 143.23647509515285 0
      vertex -214.38090275228024 142.95909831672907 0
      vertex -216.95652899891138 151.62552499771118 0
    endloop
  endfacet
  facet normal 0 0 -1
    outer loop
      vertex -213.68032896518707 143.23647509515285 0
      vertex -216.95652899891138 151.62552499771118 0
      vertex -214.68836200237274 152.25454299896955 0
    endloop
  endfacet
  facet normal 0 0 -1
    outer loop
      vertex -212.95051489025354 143.42385950684547 0
      vertex -213.68032896518707 143.23647509515285 0
      vertex -214.68836200237274 152.25454299896955 0
    endloop
  endfacet
  facet normal 0 0 -1
    outer loop
      vertex -212.95051489025354 143.42385950684547 0
      vertex -214.68836200237274 152.25454299896955 0
      vertex -212.3497190028429 152.52099800109863 0
    endloop
  endfacet
  facet normal 0 0 -1
    outer loop
      vertex -212.20297011733055 143.51829636842012 0
      vertex -212.95051489025354 143.42385950684547 0
      vertex -212.3497190028429 152.52099800109863 0
    endloop
  endfacet
  facet normal 0 0 -1
    outer loop
      vertex -211.44948388636112 143.51829636842012 0
      vertex -212.20297011733055 143.51829636842012 0
      vertex -212.3497190028429 152.52099800109863 0
    endloop
  endfacet
  facet normal 0 0 -1
    outer loop
      vertex -211.44948388636112 143.51829636842012 0
      vertex -212.3497190028429 152.52099800109863 0
      vertex -209.9981869980693 152.41832800209522 0
    endloop
  endfacet
  facet normal 0 0 -1
    outer loop
      vertex -210.70193911343813 143.42385950684547 0
      vertex -211.44948388636112 143.51829636842012 0
      vertex -209.9981869980693 152.41832800209522 0
    endloop
  endfacet
  facet normal 0 0 -1
    outer loop
      vertex -210.70193911343813 143.42385950684547 0
      vertex -209.9981869980693 152.41832800209522 0
      vertex -207.69166699796915 151.94906099885702 0
    endloop
  endfacet
  facet normal 0 0 -1
    outer loop
      vertex -209.97212503105402 143.23647509515285 0
      vertex -210.70193911343813 143.42385950684547 0
      vertex -207.69166699796915 151.94906099885702 0
    endloop
  endfacet
  facet normal 0 0 -1
    outer loop
      vertex -209.97212503105402 143.23647509515285 0
      vertex -207.69166699796915 151.94906099885702 0
      vertex -205.48695299774408 151.12475199997425 0
    endloop
  endfacet
  facet normal 0 0 -1
    outer loop
      vertex -209.27155125141144 142.95909831672907 0
      vertex -209.97212503105402 143.23647509515285 0
      vertex -205.48695299774408 151.12475199997425 0
    endloop
  endfacet
  facet normal 0 0 -1
    outer loop
      vertex -208.61126623302698 142.59610355645418 0
      vertex -209.27155125141144 142.95909831672907 0
      vertex -205.48695299774408 151.12475199997425 0
    endloop
  endfacet
  facet normal 0 0 -1
    outer loop
      vertex -208.0016830638051 142.15321545302868 0
      vertex -208.61126623302698 142.59610355645418 0
      vertex -205.48695299774408 151.12475199997425 0
    endloop
  endfacet
  facet normal 0 0 -1
    outer loop
      vertex -207.4524152353406 141.63741863518953 0
      vertex -208.0016830638051 142.15321545302868 0
      vertex -205.48695299774408 151.12475199997425 0
    endloop
  endfacet
  facet normal 0 0 -1
    outer loop
      vertex -206.97212503105402 141.05684751272202 0
      vertex -207.4524152353406 141.63741863518953 0
      vertex -205.48695299774408 151.12475199997425 0
    endloop
  endfacet
  facet normal 0 0 -1
    outer loop
      vertex -205.48695299774408 151.12475199997425 0
      vertex -205.82622700184584 137.53013599663973 0
      vertex -205.87353879213333 138.2821354046464 0
    endloop
  endfacet
  facet normal 0 0 -1
    outer loop
      vertex -205.48695299774408 151.12475199997425 0
      vertex -205.87353879213333 138.2821354046464 0
      vertex -206.01472803205252 139.0222753211856 0
    endloop
  endfacet
  facet normal 0 0 -1
    outer loop
      vertex -205.48695299774408 151.12475199997425 0
      vertex -206.01472803205252 139.0222753211856 0
      vertex -206.24756808578968 139.73888331651688 0
    endloop
  endfacet
  facet normal 0 0 -1
    outer loop
      vertex -205.48695299774408 151.12475199997425 0
      vertex -206.24756808578968 139.73888331651688 0
      vertex -206.56838691979647 140.42065804451704 0
    endloop
  endfacet
  facet normal 0 0 -1
    outer loop
      vertex -206.97212503105402 141.05684751272202 0
      vertex -205.48695299774408 151.12475199997425 0
      vertex -206.56838691979647 140.42065804451704 0
    endloop
  endfacet
  facet normal 0 0 1
    outer loop
      vertex -90.67169799655676 42.41662400215864 20
      vertex -77.07708100229502 36.07734999805689 20
      vertex -68.6247159987688 54.203506000339985 20
    endloop
  endfacet
  facet normal 0 0 1
    outer loop
      vertex -82.21933300048113 60.54277999699116 20
      vertex -90.67169799655676 42.41662400215864 20
      vertex -68.6247159987688 54.203506000339985 20
    endloop
  endfacet
  facet normal 0 0 1
    outer loop
      vertex -47.49380300194025 99.51889500021935 20
      vertex -61.08842000365257 105.85816899687052 20
      vertex -69.5407849997282 87.732013002038 20
    endloop
  endfacet
  facet normal 0 0 1
    outer loop
      vertex -55.94616799801588 81.39273899793625 20
      vertex -47.49380300194025 99.51889500021935 20
      vertex -69.5407849997282 87.732013002038 20
    endloop
  endfacet
  facet normal 0 0 1
    outer loop
      vertex 40 8 20
      vertex 80 8 20
      vertex 80 18 20
    endloop
  endfacet
  facet normal 0 0 1
    outer loop
      vertex 0 0 20
      vertex 40 0 20
      vertex 40 8 20
    endloop
  endfacet
  facet normal 0 0 1
    outer loop
      vertex -69.5407849997282 87.732013002038 20
      vertex -205.48695299774408 151.12475199997425 20
      vertex -205.82622700184584 137.53013599663973 20
    endloop
  endfacet
  facet normal 0 0 1
    outer loop
      vertex -69.5407849997282 87.732013002038 20
      vertex -205.82622700184584 137.53013599663973 20
      vertex -205.87353879213333 136.77813659608364 20
    endloop
  endfacet
  facet normal 0 0 1
    outer loop
      vertex -69.5407849997282 87.732013002038 20
      vertex -205.87353879213333 136.77813659608364 20
      vertex -206.01472803205252 136.03799667954445 20
    endloop
  endfacet
  facet normal 0 0 1
    outer loop
      vertex -69.5407849997282 87.732013002038 20
      vertex -206.01472803205252 136.03799667954445 20
      vertex -206.24756808578968 135.32138868421316 20
    endloop
  endfacet
  facet normal 0 0 1
    outer loop
      vertex -69.5407849997282 87.732013002038 20
      vertex -206.24756808578968 135.32138868421316 20
      vertex -206.56838691979647 134.639613956213 20
    endloop
  endfacet
  facet normal 0 0 1
    outer loop
      vertex -69.5407849997282 87.732013002038 20
      vertex -206.56838691979647 134.639613956213 20
      vertex -206.97212503105402 134.00342448800802 20
    endloop
  endfacet
  facet normal 0 0 1
    outer loop
      vertex -69.5407849997282 87.732013002038 20
      vertex -206.97212503105402 134.00342448800802 20
      vertex -207.4524152353406 133.4228533655405 20
    endloop
  endfacet
  facet normal 0 0 1
    outer loop
      vertex 40 8 20
      vertex 80 18 20
      vertex -55.94616799801588 81.39273899793625 20
    endloop
  endfacet
  facet normal 0 0 1
    outer loop
      vertex 0 0 20
      vertex 40 8 20
      vertex -55.94616799801588 81.39273899793625 20
    endloop
  endfacet
  facet normal 0 0 1
    outer loop
      vertex -68.6247159987688 54.203506000339985 20
      vertex 0 0 20
      vertex -55.94616799801588 81.39273899793625 20
    endloop
  endfacet
  facet normal 0 0 1
    outer loop
      vertex -68.6247159987688 54.203506000339985 20
      vertex -55.94616799801588 81.39273899793625 20
      vertex -69.5407849997282 87.732013002038 20
    endloop
  endfacet
  facet normal 0 0 1
    outer loop
      vertex -82.21933300048113 60.54277999699116 20
      vertex -68.6247159987688 54.203506000339985 20
      vertex -69.5407849997282 87.732013002038 20
    endloop
  endfacet
  facet normal 0 0 1
    outer loop
      vertex -82.21933300048113 60.54277999699116 20
      vertex -69.5407849997282 87.732013002038 20
      vertex -207.4524152353406 133.4228533655405 20
    endloop
  endfacet
  facet normal 0 0 1
    outer loop
      vertex -82.21933300048113 60.54277999699116 20
      vertex -207.4524152353406 133.4228533655405 20
      vertex -208.0016830638051 132.90705654025078 20
    endloop
  endfacet
  facet normal 0 0 1
    outer loop
      vertex -82.21933300048113 60.54277999699116 20
      vertex -208.0016830638051 132.90705654025078 20
      vertex -208.61126623302698 132.46416844427586 20
    endloop
  endfacet
  facet normal 0 0 1
    outer loop
      vertex -82.21933300048113 60.54277999699116 20
      vertex -208.61126623302698 132.46416844427586 20
      vertex -209.27155125141144 132.10117368400097 20
    endloop
  endfacet
  facet normal 0 0 1
    outer loop
      vertex -218.165500998497 123.93551900237799 20
      vertex -82.21933300048113 60.54277999699116 20
      vertex -209.27155125141144 132.10117368400097 20
    endloop
  endfacet
  facet normal 0 0 1
    outer loop
      vertex -218.165500998497 123.93551900237799 20
      vertex -209.27155125141144 132.10117368400097 20
      vertex -209.97212503105402 131.82379690557718 20
    endloop
  endfacet
  facet normal 0 0 1
    outer loop
      vertex -218.165500998497 123.93551900237799 20
      vertex -209.97212503105402 131.82379690557718 20
      vertex -210.70193911343813 131.63641249388456 20
    endloop
  endfacet
  facet normal 0 0 1
    outer loop
      vertex -218.165500998497 123.93551900237799 20
      vertex -210.70193911343813 131.63641249388456 20
      vertex -211.44948388636112 131.5419756323099 20
    endloop
  endfacet
  facet normal 0 0 1
    outer loop
      vertex -218.165500998497 123.93551900237799 20
      vertex -211.44948388636112 131.5419756323099 20
      vertex -212.20297011733055 131.5419756323099 20
    endloop
  endfacet
  facet normal 0 0 1
    outer loop
      vertex -218.165500998497 123.93551900237799 20
      vertex -212.20297011733055 131.5419756323099 20
      vertex -212.95051489025354 131.63641249388456 20
    endloop
  endfacet
  facet normal 0 0 1
    outer loop
      vertex -218.165500998497 123.93551900237799 20
      vertex -212.95051489025354 131.63641249388456 20
      vertex -213.68032896518707 131.82379690557718 20
    endloop
  endfacet
  facet normal 0 0 1
    outer loop
      vertex -218.165500998497 123.93551900237799 20
      vertex -213.68032896518707 131.82379690557718 20
      vertex -214.38090275228024 132.10117368400097 20
    endloop
  endfacet
  facet normal 0 0 1
    outer loop
      vertex -220.21412000060081 125.09457200020552 20
      vertex -218.165500998497 123.93551900237799 20
      vertex -214.38090275228024 132.10117368400097 20
    endloop
  endfacet
  facet normal 0 0 1
    outer loop
      vertex -220.21412000060081 125.09457200020552 20
      vertex -214.38090275228024 132.10117368400097 20
      vertex -215.0411877706647 132.46416844427586 20
    endloop
  endfacet
  facet normal 0 0 1
    outer loop
      vertex -220.21412000060081 125.09457200020552 20
      vertex -215.0411877706647 132.46416844427586 20
      vertex -215.65077093988657 132.90705654025078 20
    endloop
  endfacet
  facet normal 0 0 1
    outer loop
      vertex -222.05620200186968 126.5598300024867 20
      vertex -220.21412000060081 125.09457200020552 20
      vertex -215.65077093988657 132.90705654025078 20
    endloop
  endfacet
  facet normal 0 0 1
    outer loop
      vertex -222.05620200186968 126.5598300024867 20
      vertex -215.65077093988657 132.90705654025078 20
      vertex -216.2000387609005 133.4228533655405 20
    endloop
  endfacet
  facet normal 0 0 1
    outer loop
      vertex -223.64638800173998 128.29521399736404 20
      vertex -222.05620200186968 126.5598300024867 20
      vertex -216.2000387609005 133.4228533655405 20
    endloop
  endfacet
  facet normal 0 0 1
    outer loop
      vertex -223.64638800173998 128.29521399736404 20
      vertex -216.2000387609005 133.4228533655405 20
      vertex -216.68032896518707 134.00342448800802 20
    endloop
  endfacet
  facet normal 0 0 1
    outer loop
      vertex -224.9455220028758 130.25799100100994 20
      vertex -223.64638800173998 128.29521399736404 20
      vertex -216.68032896518707 134.00342448800802 20
    endloop
  endfacet
  facet normal 0 0 1
    outer loop
      vertex -224.9455220028758 130.25799100100994 20
      vertex -216.68032896518707 134.00342448800802 20
      vertex -217.0840670838952 134.639613956213 20
    endloop
  endfacet
  facet normal 0 0 1
    outer loop
      vertex -225.9216160029173 132.39983300119638 20
      vertex -224.9455220028758 130.25799100100994 20
      vertex -217.0840670838952 134.639613956213 20
    endloop
  endfacet
  facet normal 0 0 1
    outer loop
      vertex -225.9216160029173 132.39983300119638 20
      vertex -217.0840670838952 134.639613956213 20
      vertex -217.404885917902 135.32138868421316 20
    endloop
  endfacet
  facet normal 0 0 1
    outer loop
      vertex -225.9216160029173 132.39983300119638 20
      vertex -217.404885917902 135.32138868421316 20
      vertex -217.63772596418858 136.03799667954445 20
    endloop
  endfacet
  facet normal 0 0 1
    outer loop
      vertex -226.55063500255346 134.6680010035634 20
      vertex -225.9216160029173 132.39983300119638 20
      vertex -217.63772596418858 136.03799667954445 20
    endloop
  endfacet
  facet normal 0 0 1
    outer loop
      vertex -226.55063500255346 134.6680010035634 20
      vertex -217.63772596418858 136.03799667954445 20
      vertex -217.77891521155834 136.77813659608364 20
    endloop
  endfacet
  facet normal 0 0 1
    outer loop
      vertex -226.81708899885416 137.00664299726486 20
      vertex -226.55063500255346 134.6680010035634 20
      vertex -217.77891521155834 136.77813659608364 20
    endloop
  endfacet
  facet normal 0 0 1
    outer loop
      vertex -226.81708899885416 137.00664299726486 20
      vertex -217.77891521155834 136.77813659608364 20
      vertex -217.82622700184584 137.53013599663973 20
    endloop
  endfacet
  facet normal 0 0 1
    outer loop
      vertex -226.71441899985075 139.35817600041628 20
      vertex -226.81708899885416 137.00664299726486 20
      vertex -217.82622700184584 137.53013599663973 20
    endloop
  endfacet
  facet normal 0 0 1
    outer loop
      vertex -226.71441899985075 139.35817600041628 20
      vertex -217.82622700184584 137.53013599663973 20
      vertex -217.77891521155834 138.2821354046464 20
    endloop
  endfacet
  facet normal 0 0 1
    outer loop
      vertex -226.24515199661255 141.66469600051641 20
      vertex -226.71441899985075 139.35817600041628 20
      vertex -217.77891521155834 138.2821354046464 20
    endloop
  endfacet
  facet normal 0 0 1
    outer loop
      vertex -226.24515199661255 141.66469600051641 20
      vertex -217.77891521155834 138.2821354046464 20
      vertex -217.63772596418858 139.0222753211856 20
    endloop
  endfacet
  facet normal 0 0 1
    outer loop
      vertex -226.24515199661255 141.66469600051641 20
      vertex -217.63772596418858 139.0222753211856 20
      vertex -217.404885917902 139.73888331651688 20
    endloop
  endfacet
  facet normal 0 0 1
    outer loop
      vertex -225.42084400355816 143.86941000074148 20
      vertex -226.24515199661255 141.66469600051641 20
      vertex -217.404885917902 139.73888331651688 20
    endloop
  endfacet
  facet normal 0 0 1
    outer loop
      vertex -225.42084400355816 143.86941000074148 20
      vertex -217.404885917902 139.73888331651688 20
      vertex -217.0840670838952 140.42065804451704 20
    endloop
  endfacet
  facet normal 0 0 1
    outer loop
      vertex -224.26178999990225 145.9180290028453 20
      vertex -225.42084400355816 143.86941000074148 20
      vertex -217.0840670838952 140.42065804451704 20
    endloop
  endfacet
  facet normal 0 0 1
    outer loop
      vertex -224.26178999990225 145.9180290028453 20
      vertex -217.0840670838952 140.42065804451704 20
      vertex -216.68032896518707 141.05684751272202 20
    endloop
  endfacet
  facet normal 0 0 1
    outer loop
      vertex -222.79653199762106 147.76011099666357 20
      vertex -224.26178999990225 145.9180290028453 20
      vertex -216.68032896518707 141.05684751272202 20
    endloop
  endfacet
  facet normal 0 0 1
    outer loop
      vertex -222.79653199762106 147.76011099666357 20
      vertex -216.68032896518707 141.05684751272202 20
      vertex -216.2000387609005 141.63741863518953 20
    endloop
  endfacet
  facet normal 0 0 1
    outer loop
      vertex -221.06114900112152 149.35029699653387 20
      vertex -222.79653199762106 147.76011099666357 20
      vertex -216.2000387609005 141.63741863518953 20
    endloop
  endfacet
  facet normal 0 0 1
    outer loop
      vertex -221.06114900112152 149.35029699653387 20
      vertex -216.2000387609005 141.63741863518953 20
      vertex -215.65077093988657 142.15321545302868 20
    endloop
  endfacet
  facet normal 0 0 1
    outer loop
      vertex -221.06114900112152 149.35029699653387 20
      vertex -215.65077093988657 142.15321545302868 20
      vertex -215.0411877706647 142.59610355645418 20
    endloop
  endfacet
  facet normal 0 0 1
    outer loop
      vertex -219.09837099909782 150.6494309976697 20
      vertex -221.06114900112152 149.35029699653387 20
      vertex -215.0411877706647 142.59610355645418 20
    endloop
  endfacet
  facet normal 0 0 1
    outer loop
      vertex -219.09837099909782 150.6494309976697 20
      vertex -215.0411877706647 142.59610355645418 20
      vertex -214.38090275228024 142.95909831672907 20
    endloop
  endfacet
  facet normal 0 0 1
    outer loop
      vertex -216.95652899891138 151.62552499771118 20
      vertex -219.09837099909782 150.6494309976697 20
      vertex -214.38090275228024 142.95909831672907 20
    endloop
  endfacet
  facet normal 0 0 1
    outer loop
      vertex -216.95652899891138 151.62552499771118 20
      vertex -214.38090275228024 142.95909831672907 20
      vertex -213.68032896518707 143.23647509515285 20
    endloop
  endfacet
  facet normal 0 0 1
    outer loop
      vertex -214.68836200237274 152.25454299896955 20
      vertex -216.95652899891138 151.62552499771118 20
      vertex -213.68032896518707 143.23647509515285 20
    endloop
  endfacet
  facet normal 0 0 1
    outer loop
      vertex -214.68836200237274 152.25454299896955 20
      vertex -213.68032896518707 143.23647509515285 20
      vertex -212.95051489025354 143.42385950684547 20
    endloop
  endfacet
  facet normal 0 0 1
    outer loop
      vertex -212.3497190028429 152.52099800109863 20
      vertex -214.68836200237274 152.25454299896955 20
      vertex -212.95051489025354 143.42385950684547 20
    endloop
  endfacet
  facet normal 0 0 1
    outer loop
      vertex -212.3497190028429 152.52099800109863 20
      vertex -212.95051489025354 143.42385950684547 20
      vertex -212.20297011733055 143.51829636842012 20
    endloop
  endfacet
  facet normal 0 0 1
    outer loop
      vertex -212.3497190028429 152.52099800109863 20
      vertex -212.20297011733055 143.51829636842012 20
      vertex -211.44948388636112 143.51829636842012 20
    endloop
  endfacet
  facet normal 0 0 1
    outer loop
      vertex -209.9981869980693 152.41832800209522 20
      vertex -212.3497190028429 152.52099800109863 20
      vertex -211.44948388636112 143.51829636842012 20
    endloop
  endfacet
  facet normal 0 0 1
    outer loop
      vertex -209.9981869980693 152.41832800209522 20
      vertex -211.44948388636112 143.51829636842012 20
      vertex -210.70193911343813 143.42385950684547 20
    endloop
  endfacet
  facet normal 0 0 1
    outer loop
      vertex -207.69166699796915 151.94906099885702 20
      vertex -209.9981869980693 152.41832800209522 20
      vertex -210.70193911343813 143.42385950684547 20
    endloop
  endfacet
  facet normal 0 0 1
    outer loop
      vertex -207.69166699796915 151.94906099885702 20
      vertex -210.70193911343813 143.42385950684547 20
      vertex -209.97212503105402 143.23647509515285 20
    endloop
  endfacet
  facet normal 0 0 1
    outer loop
      vertex -205.48695299774408 151.12475199997425 20
      vertex -207.69166699796915 151.94906099885702 20
      vertex -209.97212503105402 143.23647509515285 20
    endloop
  endfacet
  facet normal 0 0 1
    outer loop
      vertex -205.48695299774408 151.12475199997425 20
      vertex -209.97212503105402 143.23647509515285 20
      vertex -209.27155125141144 142.95909831672907 20
    endloop
  endfacet
  facet normal 0 0 1
    outer loop
      vertex -205.48695299774408 151.12475199997425 20
      vertex -209.27155125141144 142.95909831672907 20
      vertex -208.61126623302698 142.59610355645418 20
    endloop
  endfacet
  facet normal 0 0 1
    outer loop
      vertex -205.48695299774408 151.12475199997425 20
      vertex -208.61126623302698 142.59610355645418 20
      vertex -208.0016830638051 142.15321545302868 20
    endloop
  endfacet
  facet normal 0 0 1
    outer loop
      vertex -205.48695299774408 151.12475199997425 20
      vertex -208.0016830638051 142.15321545302868 20
      vertex -207.4524152353406 141.63741863518953 20
    endloop
  endfacet
  facet normal 0 0 1
    outer loop
      vertex -205.48695299774408 151.12475199997425 20
      vertex -207.4524152353406 141.63741863518953 20
      vertex -206.97212503105402 141.05684751272202 20
    endloop
  endfacet
  facet normal 0 0 1
    outer loop
      vertex -205.87353879213333 138.2821354046464 20
      vertex -205.82622700184584 137.53013599663973 20
      vertex -205.48695299774408 151.12475199997425 20
    endloop
  endfacet
  facet normal 0 0 1
    outer loop
      vertex -206.01472803205252 139.0222753211856 20
      vertex -205.87353879213333 138.2821354046464 20
      vertex -205.48695299774408 151.12475199997425 20
    endloop
  endfacet
  facet normal 0 0 1
    outer loop
      vertex -206.24756808578968 139.73888331651688 20
      vertex -206.01472803205252 139.0222753211856 20
      vertex -205.48695299774408 151.12475199997425 20
    endloop
  endfacet
  facet normal 0 0 1
    outer loop
      vertex -206.56838691979647 140.42065804451704 20
      vertex -206.24756808578968 139.73888331651688 20
      vertex -205.48695299774408 151.12475199997425 20
    endloop
  endfacet
  facet normal 0 0 1
    outer loop
      vertex -206.56838691979647 140.42065804451704 20
      vertex -205.48695299774408 151.12475199997425 20
      vertex -206.97212503105402 141.05684751272202 20
    endloop
  endfacet
endsolid OpenSCAD_Model
