solid OpenSCAD_Model
  facet normal 0 -1 0
    outer loop
      vertex 80 8 0
      vertex 40 8 15
      vertex 40 8 0
    endloop
  endfacet
  facet normal 0 -1 0
    outer loop
      vertex 80 8 0
      vertex 80 8 15
      vertex 40 8 15
    endloop
  endfacet
  facet normal 1 0 0
    outer loop
      vertex 80 18 0
      vertex 80 8 15
      vertex 80 8 0
    endloop
  endfacet
  facet normal 1 0 0
    outer loop
      vertex 80 18 0
      vertex 80 18 15
      vertex 80 8 15
    endloop
  endfacet
  facet normal 0.42261826044637685 0.9063077876402024 0
    outer loop
      vertex -55.94616799801588 81.39273899793625 0
      vertex 80 18 15
      vertex 80 18 0
    endloop
  endfacet
  facet normal 0.42261826044637685 0.9063077876402024 0
    outer loop
      vertex -55.94616799801588 81.39273899793625 0
      vertex -55.94616799801588 81.39273899793625 15
      vertex 80 18 15
    endloop
  endfacet
  facet normal 0.906307793944478 -0.4226182469268141 0
    outer loop
      vertex -47.49380300194025 99.51889500021935 0
      vertex -55.94616799801588 81.39273899793625 15
      vertex -55.94616799801588 81.39273899793625 0
    endloop
  endfacet
  facet normal 0.906307793944478 -0.4226182469268141 0
    outer loop
      vertex -47.49380300194025 99.51889500021935 0
      vertex -47.49380300194025 99.51889500021935 15
      vertex -55.94616799801588 81.39273899793625 15
    endloop
  endfacet
  facet normal 0.422618260594503 0.9063077875711301 0
    outer loop
      vertex -61.08842000365257 105.85816899687052 0
      vertex -47.49380300194025 99.51889500021935 15
      vertex -47.49380300194025 99.51889500021935 0
    endloop
  endfacet
  facet normal 0.422618260594503 0.9063077875711301 0
    outer loop
      vertex -61.08842000365257 105.85816899687052 0
      vertex -61.08842000365257 105.85816899687052 15
      vertex -47.49380300194025 99.51889500021935 15
    endloop
  endfacet
  facet normal -0.9063077938779421 0.422618247069501 0
    outer loop
      vertex -69.5407849997282 87.732013002038 0
      vertex -61.08842000365257 105.85816899687052 15
      vertex -61.08842000365257 105.85816899687052 0
    endloop
  endfacet
  facet normal -0.9063077938779421 0.422618247069501 0
    outer loop
      vertex -69.5407849997282 87.732013002038 0
      vertex -69.5407849997282 87.732013002038 15
      vertex -61.08842000365257 105.85816899687052 15
    endloop
  endfacet
  facet normal 0.42261826044637685 0.9063077876402024 0
    outer loop
      vertex -205.48695299774408 151.12475199997425 0
      vertex -69.5407849997282 87.732013002038 15
      vertex -69.5407849997282 87.732013002038 0
    endloop
  endfacet
  facet normal 0.42261826044637685 0.9063077876402024 0
    outer loop
      vertex -205.48695299774408 151.12475199997425 0
      vertex -205.48695299774408 151.12475199997425 15
      vertex -69.5407849997282 87.732013002038 15
    endloop
  endfacet
  facet normal 0.35020746011455217 0.9366721597656859 0
    outer loop
      vertex -207.69166699796915 151.94906099885702 0
      vertex -205.48695299774408 151.12475199997425 15
      vertex -205.48695299774408 151.12475199997425 0
    endloop
  endfacet
  facet normal 0.35020746011455217 0.9366721597656859 0
    outer loop
      vertex -207.69166699796915 151.94906099885702 0
      vertex -207.69166699796915 151.94906099885702 15
      vertex -205.48695299774408 151.12475199997425 15
    endloop
  endfacet
  facet normal 0.199368018274452 0.9799246875598745 0
    outer loop
      vertex -209.9981869980693 152.41832800209522 0
      vertex -207.69166699796915 151.94906099885702 15
      vertex -207.69166699796915 151.94906099885702 0
    endloop
  endfacet
  facet normal 0.199368018274452 0.9799246875598745 0
    outer loop
      vertex -209.9981869980693 152.41832800209522 0
      vertex -209.9981869980693 152.41832800209522 15
      vertex -207.69166699796915 151.94906099885702 15
    endloop
  endfacet
  facet normal 0.0436193425846143 0.9990482235370254 0
    outer loop
      vertex -212.3497190028429 152.52099800109863 0
      vertex -209.9981869980693 152.41832800209522 15
      vertex -209.9981869980693 152.41832800209522 0
    endloop
  endfacet
  facet normal 0.0436193425846143 0.9990482235370254 0
    outer loop
      vertex -212.3497190028429 152.52099800109863 0
      vertex -212.3497190028429 152.52099800109863 15
      vertex -209.9981869980693 152.41832800209522 15
    endloop
  endfacet
  facet normal -0.11320333513426059 0.9935718418486307 0
    outer loop
      vertex -214.68836200237274 152.25454299896955 0
      vertex -212.3497190028429 152.52099800109863 15
      vertex -212.3497190028429 152.52099800109863 0
    endloop
  endfacet
  facet normal -0.11320333513426059 0.9935718418486307 0
    outer loop
      vertex -214.68836200237274 152.25454299896955 0
      vertex -214.68836200237274 152.25454299896955 15
      vertex -212.3497190028429 152.52099800109863 15
    endloop
  endfacet
  facet normal -0.26723822738467407 0.9636304944449907 0
    outer loop
      vertex -216.95652899891138 151.62552499771118 0
      vertex -214.68836200237274 152.25454299896955 15
      vertex -214.68836200237274 152.25454299896955 0
    endloop
  endfacet
  facet normal -0.26723822738467407 0.9636304944449907 0
    outer loop
      vertex -216.95652899891138 151.62552499771118 0
      vertex -216.95652899891138 151.62552499771118 15
      vertex -214.68836200237274 152.25454299896955 15
    endloop
  endfacet
  facet normal -0.41469337118349425 0.9099612123032874 0
    outer loop
      vertex -219.09837099909782 150.6494309976697 0
      vertex -216.95652899891138 151.62552499771118 15
      vertex -216.95652899891138 151.62552499771118 0
    endloop
  endfacet
  facet normal -0.41469337118349425 0.9099612123032874 0
    outer loop
      vertex -219.09837099909782 150.6494309976697 0
      vertex -219.09837099909782 150.6494309976697 15
      vertex -216.95652899891138 151.62552499771118 15
    endloop
  endfacet
  facet normal -0.5519368617542323 0.833885903848296 0
    outer loop
      vertex -221.06114900112152 149.35029699653387 0
      vertex -219.09837099909782 150.6494309976697 15
      vertex -219.09837099909782 150.6494309976697 0
    endloop
  endfacet
  facet normal -0.5519368617542323 0.833885903848296 0
    outer loop
      vertex -221.06114900112152 149.35029699653387 0
      vertex -221.06114900112152 149.35029699653387 15
      vertex -219.09837099909782 150.6494309976697 15
    endloop
  endfacet
  facet normal -0.675590314151966 0.7372772391875717 0
    outer loop
      vertex -222.79653199762106 147.76011099666357 0
      vertex -221.06114900112152 149.35029699653387 15
      vertex -221.06114900112152 149.35029699653387 0
    endloop
  endfacet
  facet normal -0.675590314151966 0.7372772391875717 0
    outer loop
      vertex -222.79653199762106 147.76011099666357 0
      vertex -222.79653199762106 147.76011099666357 15
      vertex -221.06114900112152 149.35029699653387 15
    endloop
  endfacet
  facet normal -0.7826081934980892 0.6225145905676889 0
    outer loop
      vertex -224.26178999990225 145.9180290028453 0
      vertex -222.79653199762106 147.76011099666357 15
      vertex -222.79653199762106 147.76011099666357 0
    endloop
  endfacet
  facet normal -0.7826081934980892 0.6225145905676889 0
    outer loop
      vertex -224.26178999990225 145.9180290028453 0
      vertex -224.26178999990225 145.9180290028453 15
      vertex -222.79653199762106 147.76011099666357 15
    endloop
  endfacet
  facet normal -0.8703554884759495 0.4924239267945775 0
    outer loop
      vertex -225.42084400355816 143.86941000074148 0
      vertex -224.26178999990225 145.9180290028453 15
      vertex -224.26178999990225 145.9180290028453 0
    endloop
  endfacet
  facet normal -0.8703554884759495 0.4924239267945775 0
    outer loop
      vertex -225.42084400355816 143.86941000074148 0
      vertex -225.42084400355816 143.86941000074148 15
      vertex -224.26178999990225 145.9180290028453 15
    endloop
  endfacet
  facet normal -0.9366722999411733 0.3502070851980475 0
    outer loop
      vertex -226.24515199661255 141.66469600051641 0
      vertex -225.42084400355816 143.86941000074148 15
      vertex -225.42084400355816 143.86941000074148 0
    endloop
  endfacet
  facet normal -0.9366722999411733 0.3502070851980475 0
    outer loop
      vertex -226.24515199661255 141.66469600051641 0
      vertex -226.24515199661255 141.66469600051641 15
      vertex -225.42084400355816 143.86941000074148 15
    endloop
  endfacet
  facet normal -0.9799246875598745 0.199368018274452 0
    outer loop
      vertex -226.71441899985075 139.35817600041628 0
      vertex -226.24515199661255 141.66469600051641 15
      vertex -226.24515199661255 141.66469600051641 0
    endloop
  endfacet
  facet normal -0.9799246875598745 0.199368018274452 0
    outer loop
      vertex -226.71441899985075 139.35817600041628 0
      vertex -226.71441899985075 139.35817600041628 15
      vertex -226.24515199661255 141.66469600051641 15
    endloop
  endfacet
  facet normal -0.999048224344053 0.043619324100618674 0
    outer loop
      vertex -226.81708899885416 137.00664299726486 0
      vertex -226.71441899985075 139.35817600041628 15
      vertex -226.71441899985075 139.35817600041628 0
    endloop
  endfacet
  facet normal -0.999048224344053 0.043619324100618674 0
    outer loop
      vertex -226.81708899885416 137.00664299726486 0
      vertex -226.81708899885416 137.00664299726486 15
      vertex -226.71441899985075 139.35817600041628 15
    endloop
  endfacet
  facet normal -0.9935718844361592 -0.1132029613480998 0
    outer loop
      vertex -226.55063500255346 134.6680010035634 0
      vertex -226.81708899885416 137.00664299726486 15
      vertex -226.81708899885416 137.00664299726486 0
    endloop
  endfacet
  facet normal -0.9935718844361592 -0.1132029613480998 0
    outer loop
      vertex -226.55063500255346 134.6680010035634 0
      vertex -226.55063500255346 134.6680010035634 15
      vertex -226.81708899885416 137.00664299726486 15
    endloop
  endfacet
  facet normal -0.9636304157336263 -0.267238511208692 0
    outer loop
      vertex -225.9216160029173 132.39983300119638 0
      vertex -226.55063500255346 134.6680010035634 15
      vertex -226.55063500255346 134.6680010035634 0
    endloop
  endfacet
  facet normal -0.9636304157336263 -0.267238511208692 0
    outer loop
      vertex -225.9216160029173 132.39983300119638 0
      vertex -225.9216160029173 132.39983300119638 15
      vertex -226.55063500255346 134.6680010035634 15
    endloop
  endfacet
  facet normal -0.9099612123032874 -0.41469337118349425 0
    outer loop
      vertex -224.9455220028758 130.25799100100994 0
      vertex -225.9216160029173 132.39983300119638 15
      vertex -225.9216160029173 132.39983300119638 0
    endloop
  endfacet
  facet normal -0.9099612123032874 -0.41469337118349425 0
    outer loop
      vertex -224.9455220028758 130.25799100100994 0
      vertex -224.9455220028758 130.25799100100994 15
      vertex -225.9216160029173 132.39983300119638 15
    endloop
  endfacet
  facet normal -0.8338857746343479 -0.5519370569752257 0
    outer loop
      vertex -223.64638800173998 128.29521399736404 0
      vertex -224.9455220028758 130.25799100100994 15
      vertex -224.9455220028758 130.25799100100994 0
    endloop
  endfacet
  facet normal -0.8338857746343479 -0.5519370569752257 0
    outer loop
      vertex -223.64638800173998 128.29521399736404 0
      vertex -223.64638800173998 128.29521399736404 15
      vertex -224.9455220028758 130.25799100100994 15
    endloop
  endfacet
  facet normal -0.7372774327838615 -0.6755901028786898 0
    outer loop
      vertex -222.05620200186968 126.5598300024867 0
      vertex -223.64638800173998 128.29521399736404 15
      vertex -223.64638800173998 128.29521399736404 0
    endloop
  endfacet
  facet normal -0.7372774327838615 -0.6755901028786898 0
    outer loop
      vertex -222.05620200186968 126.5598300024867 0
      vertex -222.05620200186968 126.5598300024867 15
      vertex -223.64638800173998 128.29521399736404 15
    endloop
  endfacet
  facet normal -0.6225145890255642 -0.7826081947247505 0
    outer loop
      vertex -220.21412000060081 125.09457200020552 0
      vertex -222.05620200186968 126.5598300024867 15
      vertex -222.05620200186968 126.5598300024867 0
    endloop
  endfacet
  facet normal -0.6225145890255642 -0.7826081947247505 0
    outer loop
      vertex -220.21412000060081 125.09457200020552 0
      vertex -220.21412000060081 125.09457200020552 15
      vertex -222.05620200186968 126.5598300024867 15
    endloop
  endfacet
  facet normal -0.49242360308701705 -0.8703556716209758 0
    outer loop
      vertex -218.165500998497 123.93551900237799 0
      vertex -220.21412000060081 125.09457200020552 15
      vertex -220.21412000060081 125.09457200020552 0
    endloop
  endfacet
  facet normal -0.49242360308701705 -0.8703556716209758 0
    outer loop
      vertex -218.165500998497 123.93551900237799 0
      vertex -218.165500998497 123.93551900237799 15
      vertex -220.21412000060081 125.09457200020552 15
    endloop
  endfacet
  facet normal -0.422618260487176 -0.9063077876211776 0
    outer loop
      vertex -82.21933300048113 60.54277999699116 0
      vertex -218.165500998497 123.93551900237799 15
      vertex -218.165500998497 123.93551900237799 0
    endloop
  endfacet
  facet normal -0.422618260487176 -0.9063077876211776 0
    outer loop
      vertex -82.21933300048113 60.54277999699116 0
      vertex -82.21933300048113 60.54277999699116 15
      vertex -218.165500998497 123.93551900237799 15
    endloop
  endfacet
  facet normal -0.9063077938779421 0.422618247069501 0
    outer loop
      vertex -90.67169799655676 42.41662400215864 0
      vertex -82.21933300048113 60.54277999699116 15
      vertex -82.21933300048113 60.54277999699116 0
    endloop
  endfacet
  facet normal -0.9063077938779421 0.422618247069501 0
    outer loop
      vertex -90.67169799655676 42.41662400215864 0
      vertex -90.67169799655676 42.41662400215864 15
      vertex -82.21933300048113 60.54277999699116 15
    endloop
  endfacet
  facet normal -0.422618261192743 -0.9063077872921663 0
    outer loop
      vertex -77.07708100229502 36.07734999805689 0
      vertex -90.67169799655676 42.41662400215864 15
      vertex -90.67169799655676 42.41662400215864 0
    endloop
  endfacet
  facet normal -0.422618261192743 -0.9063077872921663 0
    outer loop
      vertex -77.07708100229502 36.07734999805689 0
      vertex -77.07708100229502 36.07734999805689 15
      vertex -90.67169799655676 42.41662400215864 15
    endloop
  endfacet
  facet normal 0.906307793801791 -0.4226182472328071 0
    outer loop
      vertex -68.6247159987688 54.203506000339985 0
      vertex -77.07708100229502 36.07734999805689 15
      vertex -77.07708100229502 36.07734999805689 0
    endloop
  endfacet
  facet normal 0.906307793801791 -0.4226182472328071 0
    outer loop
      vertex -68.6247159987688 54.203506000339985 0
      vertex -68.6247159987688 54.203506000339985 15
      vertex -77.07708100229502 36.07734999805689 15
    endloop
  endfacet
  facet normal -0.6198281248008183 -0.7847375967200126 0
    outer loop
      vertex 0 0 0
      vertex -68.6247159987688 54.203506000339985 15
      vertex -68.6247159987688 54.203506000339985 0
    endloop
  endfacet
  facet normal -0.6198281248008183 -0.7847375967200126 0
    outer loop
      vertex 0 0 0
      vertex 0 0 15
      vertex -68.6247159987688 54.203506000339985 15
    endloop
  endfacet
  facet normal 0 -1 0
    outer loop
      vertex 40 0 0
      vertex 0 0 15
      vertex 0 0 0
    endloop
  endfacet
  facet normal 0 -1 0
    outer loop
      vertex 40 0 0
      vertex 40 0 15
      vertex 0 0 15
    endloop
  endfacet
  facet normal 1 0 0
    outer loop
      vertex 40 8 0
      vertex 40 0 15
      vertex 40 0 0
    endloop
  endfacet
  facet normal 1 0 0
    outer loop
      vertex 40 8 0
      vertex 40 8 15
      vertex 40 0 15
    endloop
  endfacet
  facet normal 0.12533322709888756 0.9921147021312499 0
    outer loop
      vertex -212.95051489025354 131.63641249388456 0
      vertex -212.95051489025354 131.63641249388456 15
      vertex -212.20297011733055 131.5419756323099 0
    endloop
  endfacet
  facet normal 0.12533322709888756 0.9921147021312499 0
    outer loop
      vertex -212.20297011733055 131.5419756323099 15
      vertex -212.20297011733055 131.5419756323099 0
      vertex -212.95051489025354 131.63641249388456 15
    endloop
  endfacet
  facet normal 0.248689894719458 0.9685831591889387 0
    outer loop
      vertex -213.68032896518707 131.82379690557718 0
      vertex -213.68032896518707 131.82379690557718 15
      vertex -212.95051489025354 131.63641249388456 0
    endloop
  endfacet
  facet normal 0.248689894719458 0.9685831591889387 0
    outer loop
      vertex -212.95051489025354 131.63641249388456 15
      vertex -212.95051489025354 131.63641249388456 0
      vertex -213.68032896518707 131.82379690557718 15
    endloop
  endfacet
  facet normal 0.36812454566784164 0.9297764886664134 0
    outer loop
      vertex -214.38090275228024 132.10117368400097 0
      vertex -214.38090275228024 132.10117368400097 15
      vertex -213.68032896518707 131.82379690557718 0
    endloop
  endfacet
  facet normal 0.36812454566784164 0.9297764886664134 0
    outer loop
      vertex -213.68032896518707 131.82379690557718 15
      vertex -213.68032896518707 131.82379690557718 0
      vertex -214.38090275228024 132.10117368400097 15
    endloop
  endfacet
  facet normal 0.48175367373975836 0.8763066802428511 0
    outer loop
      vertex -215.0411877706647 132.46416844427586 0
      vertex -215.0411877706647 132.46416844427586 15
      vertex -214.38090275228024 132.10117368400097 0
    endloop
  endfacet
  facet normal 0.48175367373975836 0.8763066802428511 0
    outer loop
      vertex -214.38090275228024 132.10117368400097 15
      vertex -214.38090275228024 132.10117368400097 0
      vertex -215.0411877706647 132.46416844427586 15
    endloop
  endfacet
  facet normal 0.5877852515792666 0.8090169948931223 0
    outer loop
      vertex -215.65077093988657 132.90705654025078 0
      vertex -215.65077093988657 132.90705654025078 15
      vertex -215.0411877706647 132.46416844427586 0
    endloop
  endfacet
  facet normal 0.5877852515792666 0.8090169948931223 0
    outer loop
      vertex -215.0411877706647 132.46416844427586 15
      vertex -215.0411877706647 132.46416844427586 0
      vertex -215.65077093988657 132.90705654025078 15
    endloop
  endfacet
  facet normal 0.6845471122219577 0.7289686215116384 0
    outer loop
      vertex -216.2000387609005 133.4228533655405 0
      vertex -216.2000387609005 133.4228533655405 15
      vertex -215.65077093988657 132.90705654025078 0
    endloop
  endfacet
  facet normal 0.6845471122219577 0.7289686215116384 0
    outer loop
      vertex -215.65077093988657 132.90705654025078 15
      vertex -215.65077093988657 132.90705654025078 0
      vertex -216.2000387609005 133.4228533655405 15
    endloop
  endfacet
  facet normal 0.7705132414542418 0.6374239913461662 0
    outer loop
      vertex -216.68032896518707 134.00342448800802 0
      vertex -216.68032896518707 134.00342448800802 15
      vertex -216.2000387609005 133.4228533655405 0
    endloop
  endfacet
  facet normal 0.7705132414542418 0.6374239913461662 0
    outer loop
      vertex -216.2000387609005 133.4228533655405 15
      vertex -216.2000387609005 133.4228533655405 0
      vertex -216.68032896518707 134.00342448800802 15
    endloop
  endfacet
  facet normal 0.8443279223252113 0.5358267999848385 0
    outer loop
      vertex -217.0840670838952 134.639613956213 0
      vertex -217.0840670838952 134.639613956213 15
      vertex -216.68032896518707 134.00342448800802 0
    endloop
  endfacet
  facet normal 0.8443279223252113 0.5358267999848385 0
    outer loop
      vertex -216.68032896518707 134.00342448800802 15
      vertex -216.68032896518707 134.00342448800802 0
      vertex -217.0840670838952 134.639613956213 15
    endloop
  endfacet
  facet normal 0.9048270528869663 0.4257792906705153 0
    outer loop
      vertex -217.404885917902 135.32138868421316 0
      vertex -217.404885917902 135.32138868421316 15
      vertex -217.0840670838952 134.639613956213 0
    endloop
  endfacet
  facet normal 0.9048270528869663 0.4257792906705153 0
    outer loop
      vertex -217.0840670838952 134.639613956213 15
      vertex -217.0840670838952 134.639613956213 0
      vertex -217.404885917902 135.32138868421316 15
    endloop
  endfacet
  facet normal 0.9510565185864779 0.3090169873229764 0
    outer loop
      vertex -217.63772596418858 136.03799667954445 0
      vertex -217.63772596418858 136.03799667954445 15
      vertex -217.404885917902 135.32138868421316 0
    endloop
  endfacet
  facet normal 0.9510565185864779 0.3090169873229764 0
    outer loop
      vertex -217.404885917902 135.32138868421316 15
      vertex -217.404885917902 135.32138868421316 0
      vertex -217.63772596418858 136.03799667954445 15
    endloop
  endfacet
  facet normal 0.9822872489648055 0.18738132383232325 0
    outer loop
      vertex -217.77891521155834 136.77813659608364 0
      vertex -217.77891521155834 136.77813659608364 15
      vertex -217.63772596418858 136.03799667954445 0
    endloop
  endfacet
  facet normal 0.9822872489648055 0.18738132383232325 0
    outer loop
      vertex -217.63772596418858 136.03799667954445 15
      vertex -217.63772596418858 136.03799667954445 0
      vertex -217.77891521155834 136.77813659608364 15
    endloop
  endfacet
  facet normal 0.9980267285757662 0.06279051718495252 0
    outer loop
      vertex -217.82622700184584 137.53013599663973 0
      vertex -217.82622700184584 137.53013599663973 15
      vertex -217.77891521155834 136.77813659608364 0
    endloop
  endfacet
  facet normal 0.9980267285757662 0.06279051718495252 0
    outer loop
      vertex -217.77891521155834 136.77813659608364 15
      vertex -217.77891521155834 136.77813659608364 0
      vertex -217.82622700184584 137.53013599663973 15
    endloop
  endfacet
  facet normal 0.9980267286147516 -0.062790516565296 0
    outer loop
      vertex -217.77891521155834 138.2821354046464 0
      vertex -217.77891521155834 138.2821354046464 15
      vertex -217.82622700184584 137.53013599663973 0
    endloop
  endfacet
  facet normal 0.9980267286147516 -0.062790516565296 0
    outer loop
      vertex -217.82622700184584 137.53013599663973 15
      vertex -217.82622700184584 137.53013599663973 0
      vertex -217.77891521155834 138.2821354046464 15
    endloop
  endfacet
  facet normal 0.9822872489648055 -0.18738132383232325 0
    outer loop
      vertex -217.63772596418858 139.0222753211856 0
      vertex -217.63772596418858 139.0222753211856 15
      vertex -217.77891521155834 138.2821354046464 0
    endloop
  endfacet
  facet normal 0.9822872489648055 -0.18738132383232325 0
    outer loop
      vertex -217.77891521155834 138.2821354046464 15
      vertex -217.77891521155834 138.2821354046464 0
      vertex -217.63772596418858 139.0222753211856 15
    endloop
  endfacet
  facet normal 0.9510565185864779 -0.3090169873229764 0
    outer loop
      vertex -217.404885917902 139.73888331651688 0
      vertex -217.404885917902 139.73888331651688 15
      vertex -217.63772596418858 139.0222753211856 0
    endloop
  endfacet
  facet normal 0.9510565185864779 -0.3090169873229764 0
    outer loop
      vertex -217.63772596418858 139.0222753211856 15
      vertex -217.63772596418858 139.0222753211856 0
      vertex -217.404885917902 139.73888331651688 15
    endloop
  endfacet
  facet normal 0.9048270528869663 -0.4257792906705153 0
    outer loop
      vertex -217.0840670838952 140.42065804451704 0
      vertex -217.0840670838952 140.42065804451704 15
      vertex -217.404885917902 139.73888331651688 0
    endloop
  endfacet
  facet normal 0.9048270528869663 -0.4257792906705153 0
    outer loop
      vertex -217.404885917902 139.73888331651688 15
      vertex -217.404885917902 139.73888331651688 0
      vertex -217.0840670838952 140.42065804451704 15
    endloop
  endfacet
  facet normal 0.8443279223252113 -0.5358267999848385 0
    outer loop
      vertex -216.68032896518707 141.05684751272202 0
      vertex -216.68032896518707 141.05684751272202 15
      vertex -217.0840670838952 140.42065804451704 0
    endloop
  endfacet
  facet normal 0.8443279223252113 -0.5358267999848385 0
    outer loop
      vertex -217.0840670838952 140.42065804451704 15
      vertex -217.0840670838952 140.42065804451704 0
      vertex -216.68032896518707 141.05684751272202 15
    endloop
  endfacet
  facet normal 0.7705132414542418 -0.6374239913461662 0
    outer loop
      vertex -216.2000387609005 141.63741863518953 0
      vertex -216.2000387609005 141.63741863518953 15
      vertex -216.68032896518707 141.05684751272202 0
    endloop
  endfacet
  facet normal 0.7705132414542418 -0.6374239913461662 0
    outer loop
      vertex -216.68032896518707 141.05684751272202 15
      vertex -216.68032896518707 141.05684751272202 0
      vertex -216.2000387609005 141.63741863518953 15
    endloop
  endfacet
  facet normal 0.6845471069674447 -0.7289686264459546 0
    outer loop
      vertex -215.65077093988657 142.15321545302868 0
      vertex -215.65077093988657 142.15321545302868 15
      vertex -216.2000387609005 141.63741863518953 0
    endloop
  endfacet
  facet normal 0.6845471069674447 -0.7289686264459546 0
    outer loop
      vertex -216.2000387609005 141.63741863518953 15
      vertex -216.2000387609005 141.63741863518953 0
      vertex -215.65077093988657 142.15321545302868 15
    endloop
  endfacet
  facet normal 0.587785258051141 -0.8090169901910302 0
    outer loop
      vertex -215.0411877706647 142.59610355645418 0
      vertex -215.0411877706647 142.59610355645418 15
      vertex -215.65077093988657 142.15321545302868 0
    endloop
  endfacet
  facet normal 0.587785258051141 -0.8090169901910302 0
    outer loop
      vertex -215.65077093988657 142.15321545302868 15
      vertex -215.65077093988657 142.15321545302868 0
      vertex -215.0411877706647 142.59610355645418 15
    endloop
  endfacet
  facet normal 0.48175367373975836 -0.8763066802428511 0
    outer loop
      vertex -214.38090275228024 142.95909831672907 0
      vertex -214.38090275228024 142.95909831672907 15
      vertex -215.0411877706647 142.59610355645418 0
    endloop
  endfacet
  facet normal 0.48175367373975836 -0.8763066802428511 0
    outer loop
      vertex -215.0411877706647 142.59610355645418 15
      vertex -215.0411877706647 142.59610355645418 0
      vertex -214.38090275228024 142.95909831672907 15
    endloop
  endfacet
  facet normal 0.36812454566784164 -0.9297764886664134 0
    outer loop
      vertex -213.68032896518707 143.23647509515285 0
      vertex -213.68032896518707 143.23647509515285 15
      vertex -214.38090275228024 142.95909831672907 0
    endloop
  endfacet
  facet normal 0.36812454566784164 -0.9297764886664134 0
    outer loop
      vertex -214.38090275228024 142.95909831672907 15
      vertex -214.38090275228024 142.95909831672907 0
      vertex -213.68032896518707 143.23647509515285 15
    endloop
  endfacet
  facet normal 0.248689894719458 -0.9685831591889387 0
    outer loop
      vertex -212.95051489025354 143.42385950684547 0
      vertex -212.95051489025354 143.42385950684547 15
      vertex -213.68032896518707 143.23647509515285 0
    endloop
  endfacet
  facet normal 0.248689894719458 -0.9685831591889387 0
    outer loop
      vertex -213.68032896518707 143.23647509515285 15
      vertex -213.68032896518707 143.23647509515285 0
      vertex -212.95051489025354 143.42385950684547 15
    endloop
  endfacet
  facet normal 0.12533322709888756 -0.9921147021312499 0
    outer loop
      vertex -212.20297011733055 143.51829636842012 0
      vertex -212.20297011733055 143.51829636842012 15
      vertex -212.95051489025354 143.42385950684547 0
    endloop
  endfacet
  facet normal 0.12533322709888756 -0.9921147021312499 0
    outer loop
      vertex -212.95051489025354 143.42385950684547 15
      vertex -212.95051489025354 143.42385950684547 0
      vertex -212.20297011733055 143.51829636842012 15
    endloop
  endfacet
  facet normal 0 -1 0
    outer loop
      vertex -211.44948388636112 143.51829636842012 0
      vertex -211.44948388636112 143.51829636842012 15
      vertex -212.20297011733055 143.51829636842012 0
    endloop
  endfacet
  facet normal 0 -1 0
    outer loop
      vertex -212.20297011733055 143.51829636842012 15
      vertex -212.20297011733055 143.51829636842012 0
      vertex -211.44948388636112 143.51829636842012 15
    endloop
  endfacet
  facet normal -0.12533322709888756 -0.9921147021312499 0
    outer loop
      vertex -210.70193911343813 143.42385950684547 0
      vertex -210.70193911343813 143.42385950684547 15
      vertex -211.44948388636112 143.51829636842012 0
    endloop
  endfacet
  facet normal -0.12533322709888756 -0.9921147021312499 0
    outer loop
      vertex -211.44948388636112 143.51829636842012 15
      vertex -211.44948388636112 143.51829636842012 0
      vertex -210.70193911343813 143.42385950684547 15
    endloop
  endfacet
  facet normal -0.24868989233763303 -0.9685831598004875 0
    outer loop
      vertex -209.97212503105402 143.23647509515285 0
      vertex -209.97212503105402 143.23647509515285 15
      vertex -210.70193911343813 143.42385950684547 0
    endloop
  endfacet
  facet normal -0.24868989233763303 -0.9685831598004875 0
    outer loop
      vertex -210.70193911343813 143.42385950684547 15
      vertex -210.70193911343813 143.42385950684547 0
      vertex -209.97212503105402 143.23647509515285 15
    endloop
  endfacet
  facet normal -0.36812454905229186 -0.9297764873264148 0
    outer loop
      vertex -209.27155125141144 142.95909831672907 0
      vertex -209.27155125141144 142.95909831672907 15
      vertex -209.97212503105402 143.23647509515285 0
    endloop
  endfacet
  facet normal -0.36812454905229186 -0.9297764873264148 0
    outer loop
      vertex -209.97212503105402 143.23647509515285 15
      vertex -209.97212503105402 143.23647509515285 0
      vertex -209.27155125141144 142.95909831672907 15
    endloop
  endfacet
  facet normal -0.48175367373975836 -0.8763066802428511 0
    outer loop
      vertex -208.61126623302698 142.59610355645418 0
      vertex -208.61126623302698 142.59610355645418 15
      vertex -209.27155125141144 142.95909831672907 0
    endloop
  endfacet
  facet normal -0.48175367373975836 -0.8763066802428511 0
    outer loop
      vertex -209.27155125141144 142.95909831672907 15
      vertex -209.27155125141144 142.95909831672907 0
      vertex -208.61126623302698 142.59610355645418 15
    endloop
  endfacet
  facet normal -0.587785258051141 -0.8090169901910302 0
    outer loop
      vertex -208.0016830638051 142.15321545302868 0
      vertex -208.0016830638051 142.15321545302868 15
      vertex -208.61126623302698 142.59610355645418 0
    endloop
  endfacet
  facet normal -0.587785258051141 -0.8090169901910302 0
    outer loop
      vertex -208.61126623302698 142.59610355645418 15
      vertex -208.61126623302698 142.59610355645418 0
      vertex -208.0016830638051 142.15321545302868 15
    endloop
  endfacet
  facet normal -0.6845471020331286 -0.728968631079586 0
    outer loop
      vertex -207.4524152353406 141.63741863518953 0
      vertex -207.4524152353406 141.63741863518953 15
      vertex -208.0016830638051 142.15321545302868 0
    endloop
  endfacet
  facet normal -0.6845471020331286 -0.728968631079586 0
    outer loop
      vertex -208.0016830638051 142.15321545302868 15
      vertex -208.0016830638051 142.15321545302868 0
      vertex -207.4524152353406 141.63741863518953 15
    endloop
  endfacet
  facet normal -0.7705132414542418 -0.6374239913461662 0
    outer loop
      vertex -206.97212503105402 141.05684751272202 0
      vertex -206.97212503105402 141.05684751272202 15
      vertex -207.4524152353406 141.63741863518953 0
    endloop
  endfacet
  facet normal -0.7705132414542418 -0.6374239913461662 0
    outer loop
      vertex -207.4524152353406 141.63741863518953 15
      vertex -207.4524152353406 141.63741863518953 0
      vertex -206.97212503105402 141.05684751272202 15
    endloop
  endfacet
  facet normal -0.8443279267987414 -0.5358267929356829 0
    outer loop
      vertex -206.56838691979647 140.42065804451704 0
      vertex -206.56838691979647 140.42065804451704 15
      vertex -206.97212503105402 141.05684751272202 0
    endloop
  endfacet
  facet normal -0.8443279267987414 -0.5358267929356829 0
    outer loop
      vertex -206.97212503105402 141.05684751272202 15
      vertex -206.97212503105402 141.05684751272202 0
      vertex -206.56838691979647 140.42065804451704 15
    endloop
  endfacet
  facet normal -0.9048270528869663 -0.4257792906705153 0
    outer loop
      vertex -206.24756808578968 139.73888331651688 0
      vertex -206.24756808578968 139.73888331651688 15
      vertex -206.56838691979647 140.42065804451704 0
    endloop
  endfacet
  facet normal -0.9048270528869663 -0.4257792906705153 0
    outer loop
      vertex -206.56838691979647 140.42065804451704 15
      vertex -206.56838691979647 140.42065804451704 0
      vertex -206.24756808578968 139.73888331651688 15
    endloop
  endfacet
  facet normal -0.9510565156804253 -0.3090169962668869 0
    outer loop
      vertex -206.01472803205252 139.0222753211856 0
      vertex -206.01472803205252 139.0222753211856 15
      vertex -206.24756808578968 139.73888331651688 0
    endloop
  endfacet
  facet normal -0.9510565156804253 -0.3090169962668869 0
    outer loop
      vertex -206.24756808578968 139.73888331651688 15
      vertex -206.24756808578968 139.73888331651688 0
      vertex -206.01472803205252 139.0222753211856 15
    endloop
  endfacet
  facet normal -0.98228725078484 -0.18738131429136906 0
    outer loop
      vertex -205.87353879213333 138.2821354046464 0
      vertex -205.87353879213333 138.2821354046464 15
      vertex -206.01472803205252 139.0222753211856 0
    endloop
  endfacet
  facet normal -0.98228725078484 -0.18738131429136906 0
    outer loop
      vertex -206.01472803205252 139.0222753211856 15
      vertex -206.01472803205252 139.0222753211856 0
      vertex -205.87353879213333 138.2821354046464 15
    endloop
  endfacet
  facet normal -0.9980267286147516 -0.062790516565296 0
    outer loop
      vertex -205.82622700184584 137.53013599663973 0
      vertex -205.82622700184584 137.53013599663973 15
      vertex -205.87353879213333 138.2821354046464 0
    endloop
  endfacet
  facet normal -0.9980267286147516 -0.062790516565296 0
    outer loop
      vertex -205.87353879213333 138.2821354046464 15
      vertex -205.87353879213333 138.2821354046464 0
      vertex -205.82622700184584 137.53013599663973 15
    endloop
  endfacet
  facet normal -0.9980267285757662 0.06279051718495252 0
    outer loop
      vertex -205.87353879213333 136.77813659608364 0
      vertex -205.87353879213333 136.77813659608364 15
      vertex -205.82622700184584 137.53013599663973 0
    endloop
  endfacet
  facet normal -0.9980267285757662 0.06279051718495252 0
    outer loop
      vertex -205.82622700184584 137.53013599663973 15
      vertex -205.82622700184584 137.53013599663973 0
      vertex -205.87353879213333 136.77813659608364 15
    endloop
  endfacet
  facet normal -0.98228725078484 0.18738131429136906 0
    outer loop
      vertex -206.01472803205252 136.03799667954445 0
      vertex -206.01472803205252 136.03799667954445 15
      vertex -205.87353879213333 136.77813659608364 0
    endloop
  endfacet
  facet normal -0.98228725078484 0.18738131429136906 0
    outer loop
      vertex -205.87353879213333 136.77813659608364 15
      vertex -205.87353879213333 136.77813659608364 0
      vertex -206.01472803205252 136.03799667954445 15
    endloop
  endfacet
  facet normal -0.9510565156804253 0.3090169962668869 0
    outer loop
      vertex -206.24756808578968 135.32138868421316 0
      vertex -206.24756808578968 135.32138868421316 15
      vertex -206.01472803205252 136.03799667954445 0
    endloop
  endfacet
  facet normal -0.9510565156804253 0.3090169962668869 0
    outer loop
      vertex -206.01472803205252 136.03799667954445 15
      vertex -206.01472803205252 136.03799667954445 0
      vertex -206.24756808578968 135.32138868421316 15
    endloop
  endfacet
  facet normal -0.9048270528869663 0.4257792906705153 0
    outer loop
      vertex -206.56838691979647 134.639613956213 0
      vertex -206.56838691979647 134.639613956213 15
      vertex -206.24756808578968 135.32138868421316 0
    endloop
  endfacet
  facet normal -0.9048270528869663 0.4257792906705153 0
    outer loop
      vertex -206.24756808578968 135.32138868421316 15
      vertex -206.24756808578968 135.32138868421316 0
      vertex -206.56838691979647 134.639613956213 15
    endloop
  endfacet
  facet normal -0.8443279267987414 0.5358267929356829 0
    outer loop
      vertex -206.97212503105402 134.00342448800802 0
      vertex -206.97212503105402 134.00342448800802 15
      vertex -206.56838691979647 134.639613956213 0
    endloop
  endfacet
  facet normal -0.8443279267987414 0.5358267929356829 0
    outer loop
      vertex -206.56838691979647 134.639613956213 15
      vertex -206.56838691979647 134.639613956213 0
      vertex -206.97212503105402 134.00342448800802 15
    endloop
  endfacet
  facet normal -0.7705132414542418 0.6374239913461662 0
    outer loop
      vertex -207.4524152353406 133.4228533655405 0
      vertex -207.4524152353406 133.4228533655405 15
      vertex -206.97212503105402 134.00342448800802 0
    endloop
  endfacet
  facet normal -0.7705132414542418 0.6374239913461662 0
    outer loop
      vertex -206.97212503105402 134.00342448800802 15
      vertex -206.97212503105402 134.00342448800802 0
      vertex -207.4524152353406 133.4228533655405 15
    endloop
  endfacet
  facet normal -0.6845471072876416 0.7289686261452698 0
    outer loop
      vertex -208.0016830638051 132.90705654025078 0
      vertex -208.0016830638051 132.90705654025078 15
      vertex -207.4524152353406 133.4228533655405 0
    endloop
  endfacet
  facet normal -0.6845471072876416 0.7289686261452698 0
    outer loop
      vertex -207.4524152353406 133.4228533655405 15
      vertex -207.4524152353406 133.4228533655405 0
      vertex -208.0016830638051 132.90705654025078 15
    endloop
  endfacet
  facet normal -0.5877852515792666 0.8090169948931223 0
    outer loop
      vertex -208.61126623302698 132.46416844427586 0
      vertex -208.61126623302698 132.46416844427586 15
      vertex -208.0016830638051 132.90705654025078 0
    endloop
  endfacet
  facet normal -0.5877852515792666 0.8090169948931223 0
    outer loop
      vertex -208.0016830638051 132.90705654025078 15
      vertex -208.0016830638051 132.90705654025078 0
      vertex -208.61126623302698 132.46416844427586 15
    endloop
  endfacet
  facet normal -0.48175367373975836 0.8763066802428511 0
    outer loop
      vertex -209.27155125141144 132.10117368400097 0
      vertex -209.27155125141144 132.10117368400097 15
      vertex -208.61126623302698 132.46416844427586 0
    endloop
  endfacet
  facet normal -0.48175367373975836 0.8763066802428511 0
    outer loop
      vertex -208.61126623302698 132.46416844427586 15
      vertex -208.61126623302698 132.46416844427586 0
      vertex -209.27155125141144 132.10117368400097 15
    endloop
  endfacet
  facet normal -0.36812454905229186 0.9297764873264148 0
    outer loop
      vertex -209.97212503105402 131.82379690557718 0
      vertex -209.97212503105402 131.82379690557718 15
      vertex -209.27155125141144 132.10117368400097 0
    endloop
  endfacet
  facet normal -0.36812454905229186 0.9297764873264148 0
    outer loop
      vertex -209.27155125141144 132.10117368400097 15
      vertex -209.27155125141144 132.10117368400097 0
      vertex -209.97212503105402 131.82379690557718 15
    endloop
  endfacet
  facet normal -0.24868989233763303 0.9685831598004875 0
    outer loop
      vertex -210.70193911343813 131.63641249388456 0
      vertex -210.70193911343813 131.63641249388456 15
      vertex -209.97212503105402 131.82379690557718 0
    endloop
  endfacet
  facet normal -0.24868989233763303 0.9685831598004875 0
    outer loop
      vertex -209.97212503105402 131.82379690557718 15
      vertex -209.97212503105402 131.82379690557718 0
      vertex -210.70193911343813 131.63641249388456 15
    endloop
  endfacet
  facet normal -0.12533322709888756 0.9921147021312499 0
    outer loop
      vertex -211.44948388636112 131.5419756323099 0
      vertex -211.44948388636112 131.5419756323099 15
      vertex -210.70193911343813 131.63641249388456 0
    endloop
  endfacet
  facet normal -0.12533322709888756 0.9921147021312499 0
    outer loop
      vertex -210.70193911343813 131.63641249388456 15
      vertex -210.70193911343813 131.63641249388456 0
      vertex -211.44948388636112 131.5419756323099 15
    endloop
  endfacet
  facet normal 0 1 0
    outer loop
      vertex -212.20297011733055 131.5419756323099 0
      vertex -212.20297011733055 131.5419756323099 15
      vertex -211.44948388636112 131.5419756323099 0
    endloop
  endfacet
  facet normal 0 1 0
    outer loop
      vertex -211.44948388636112 131.5419756323099 15
      vertex -211.44948388636112 131.5419756323099 0
      vertex -212.20297011733055 131.5419756323099 15
    endloop
  endfacet
  facet normal 0 0 -1
    outer loop
      vertex -68.6247159987688 54.203506000339985 0
      vertex -77.07708100229502 36.07734999805689 0
      vertex -90.67169799655676 42.41662400215864 0
    endloop
  endfacet
  facet normal 0 0 -1
    outer loop
      vertex -68.6247159987688 54.203506000339985 0
      vertex -90.67169799655676 42.41662400215864 0
      vertex -82.21933300048113 60.54277999699116 0
    endloop
  endfacet
  facet normal 0 0 -1
    outer loop
      vertex -69.5407849997282 87.732013002038 0
      vertex -61.08842000365257 105.85816899687052 0
      vertex -47.49380300194025 99.51889500021935 0
    endloop
  endfacet
  facet normal 0 0 -1
    outer loop
      vertex -69.5407849997282 87.732013002038 0
      vertex -47.49380300194025 99.51889500021935 0
      vertex -55.94616799801588 81.39273899793625 0
    endloop
  endfacet
  facet normal 0 0 -1
    outer loop
      vertex 80 18 0
      vertex 80 8 0
      vertex 40 8 0
    endloop
  endfacet
  facet normal 0 0 -1
    outer loop
      vertex 40 8 0
      vertex 40 0 0
      vertex 0 0 0
    endloop
  endfacet
  facet normal 0 0 -1
    outer loop
      vertex -205.82622700184584 137.53013599663973 0
      vertex -205.48695299774408 151.12475199997425 0
      vertex -69.5407849997282 87.732013002038 0
    endloop
  endfacet
  facet normal 0 0 -1
    outer loop
      vertex -205.87353879213333 136.77813659608364 0
      vertex -205.82622700184584 137.53013599663973 0
      vertex -69.5407849997282 87.732013002038 0
    endloop
  endfacet
  facet normal 0 0 -1
    outer loop
      vertex -206.01472803205252 136.03799667954445 0
      vertex -205.87353879213333 136.77813659608364 0
      vertex -69.5407849997282 87.732013002038 0
    endloop
  endfacet
  facet normal 0 0 -1
    outer loop
      vertex -206.24756808578968 135.32138868421316 0
      vertex -206.01472803205252 136.03799667954445 0
      vertex -69.5407849997282 87.732013002038 0
    endloop
  endfacet
  facet normal 0 0 -1
    outer loop
      vertex -206.56838691979647 134.639613956213 0
      vertex -206.24756808578968 135.32138868421316 0
      vertex -69.5407849997282 87.732013002038 0
    endloop
  endfacet
  facet normal 0 0 -1
    outer loop
      vertex -206.97212503105402 134.00342448800802 0
      vertex -206.56838691979647 134.639613956213 0
      vertex -69.5407849997282 87.732013002038 0
    endloop
  endfacet
  facet normal 0 0 -1
    outer loop
      vertex -207.4524152353406 133.4228533655405 0
      vertex -206.97212503105402 134.00342448800802 0
      vertex -69.5407849997282 87.732013002038 0
    endloop
  endfacet
  facet normal 0 0 -1
    outer loop
      vertex -55.94616799801588 81.39273899793625 0
      vertex 80 18 0
      vertex 40 8 0
    endloop
  endfacet
  facet normal 0 0 -1
    outer loop
      vertex -55.94616799801588 81.39273899793625 0
      vertex 40 8 0
      vertex 0 0 0
    endloop
  endfacet
  facet normal 0 0 -1
    outer loop
      vertex -55.94616799801588 81.39273899793625 0
      vertex 0 0 0
      vertex -68.6247159987688 54.203506000339985 0
    endloop
  endfacet
  facet normal 0 0 -1
    outer loop
      vertex -69.5407849997282 87.732013002038 0
      vertex -55.94616799801588 81.39273899793625 0
      vertex -68.6247159987688 54.203506000339985 0
    endloop
  endfacet
  facet normal 0 0 -1
    outer loop
      vertex -69.5407849997282 87.732013002038 0
      vertex -68.6247159987688 54.203506000339985 0
      vertex -82.21933300048113 60.54277999699116 0
    endloop
  endfacet
  facet normal 0 0 -1
    outer loop
      vertex -207.4524152353406 133.4228533655405 0
      vertex -69.5407849997282 87.732013002038 0
      vertex -82.21933300048113 60.54277999699116 0
    endloop
  endfacet
  facet normal 0 0 -1
    outer loop
      vertex -208.0016830638051 132.90705654025078 0
      vertex -207.4524152353406 133.4228533655405 0
      vertex -82.21933300048113 60.54277999699116 0
    endloop
  endfacet
  facet normal 0 0 -1
    outer loop
      vertex -208.61126623302698 132.46416844427586 0
      vertex -208.0016830638051 132.90705654025078 0
      vertex -82.21933300048113 60.54277999699116 0
    endloop
  endfacet
  facet normal 0 0 -1
    outer loop
      vertex -209.27155125141144 132.10117368400097 0
      vertex -208.61126623302698 132.46416844427586 0
      vertex -82.21933300048113 60.54277999699116 0
    endloop
  endfacet
  facet normal 0 0 -1
    outer loop
      vertex -209.27155125141144 132.10117368400097 0
      vertex -82.21933300048113 60.54277999699116 0
      vertex -218.165500998497 123.93551900237799 0
    endloop
  endfacet
  facet normal 0 0 -1
    outer loop
      vertex -209.97212503105402 131.82379690557718 0
      vertex -209.27155125141144 132.10117368400097 0
      vertex -218.165500998497 123.93551900237799 0
    endloop
  endfacet
  facet normal 0 0 -1
    outer loop
      vertex -210.70193911343813 131.63641249388456 0
      vertex -209.97212503105402 131.82379690557718 0
      vertex -218.165500998497 123.93551900237799 0
    endloop
  endfacet
  facet normal 0 0 -1
    outer loop
      vertex -211.44948388636112 131.5419756323099 0
      vertex -210.70193911343813 131.63641249388456 0
      vertex -218.165500998497 123.93551900237799 0
    endloop
  endfacet
  facet normal 0 0 -1
    outer loop
      vertex -212.20297011733055 131.5419756323099 0
      vertex -211.44948388636112 131.5419756323099 0
      vertex -218.165500998497 123.93551900237799 0
    endloop
  endfacet
  facet normal 0 0 -1
    outer loop
      vertex -212.95051489025354 131.63641249388456 0
      vertex -212.20297011733055 131.5419756323099 0
      vertex -218.165500998497 123.93551900237799 0
    endloop
  endfacet
  facet normal 0 0 -1
    outer loop
      vertex -213.68032896518707 131.82379690557718 0
      vertex -212.95051489025354 131.63641249388456 0
      vertex -218.165500998497 123.93551900237799 0
    endloop
  endfacet
  facet normal 0 0 -1
    outer loop
      vertex -214.38090275228024 132.10117368400097 0
      vertex -213.68032896518707 131.82379690557718 0
      vertex -218.165500998497 123.93551900237799 0
    endloop
  endfacet
  facet normal 0 0 -1
    outer loop
      vertex -214.38090275228024 132.10117368400097 0
      vertex -218.165500998497 123.93551900237799 0
      vertex -220.21412000060081 125.09457200020552 0
    endloop
  endfacet
  facet normal 0 0 -1
    outer loop
      vertex -215.0411877706647 132.46416844427586 0
      vertex -214.38090275228024 132.10117368400097 0
      vertex -220.21412000060081 125.09457200020552 0
    endloop
  endfacet
  facet normal 0 0 -1
    outer loop
      vertex -215.65077093988657 132.90705654025078 0
      vertex -215.0411877706647 132.46416844427586 0
      vertex -220.21412000060081 125.09457200020552 0
    endloop
  endfacet
  facet normal 0 0 -1
    outer loop
      vertex -215.65077093988657 132.90705654025078 0
      vertex -220.21412000060081 125.09457200020552 0
      vertex -222.05620200186968 126.5598300024867 0
    endloop
  endfacet
  facet normal 0 0 -1
    outer loop
      vertex -216.2000387609005 133.4228533655405 0
      vertex -215.65077093988657 132.90705654025078 0
      vertex -222.05620200186968 126.5598300024867 0
    endloop
  endfacet
  facet normal 0 0 -1
    outer loop
      vertex -216.2000387609005 133.4228533655405 0
      vertex -222.05620200186968 126.5598300024867 0
      vertex -223.64638800173998 128.29521399736404 0
    endloop
  endfacet
  facet normal 0 0 -1
    outer loop
      vertex -216.68032896518707 134.00342448800802 0
      vertex -216.2000387609005 133.4228533655405 0
      vertex -223.64638800173998 128.29521399736404 0
    endloop
  endfacet
  facet normal 0 0 -1
    outer loop
      vertex -216.68032896518707 134.00342448800802 0
      vertex -223.64638800173998 128.29521399736404 0
      vertex -224.9455220028758 130.25799100100994 0
    endloop
  endfacet
  facet normal 0 0 -1
    outer loop
      vertex -217.0840670838952 134.639613956213 0
      vertex -216.68032896518707 134.00342448800802 0
      vertex -224.9455220028758 130.25799100100994 0
    endloop
  endfacet
  facet normal 0 0 -1
    outer loop
      vertex -217.0840670838952 134.639613956213 0
      vertex -224.9455220028758 130.25799100100994 0
      vertex -225.9216160029173 132.39983300119638 0
    endloop
  endfacet
  facet normal 0 0 -1
    outer loop
      vertex -217.404885917902 135.32138868421316 0
      vertex -217.0840670838952 134.639613956213 0
      vertex -225.9216160029173 132.39983300119638 0
    endloop
  endfacet
  facet normal 0 0 -1
    outer loop
      vertex -217.63772596418858 136.03799667954445 0
      vertex -217.404885917902 135.32138868421316 0
      vertex -225.9216160029173 132.39983300119638 0
    endloop
  endfacet
  facet normal 0 0 -1
    outer loop
      vertex -217.63772596418858 136.03799667954445 0
      vertex -225.9216160029173 132.39983300119638 0
      vertex -226.55063500255346 134.6680010035634 0
    endloop
  endfacet
  facet normal 0 0 -1
    outer loop
      vertex -217.77891521155834 136.77813659608364 0
      vertex -217.63772596418858 136.03799667954445 0
      vertex -226.55063500255346 134.6680010035634 0
    endloop
  endfacet
  facet normal 0 0 -1
    outer loop
      vertex -217.77891521155834 136.77813659608364 0
      vertex -226.55063500255346 134.6680010035634 0
      vertex -226.81708899885416 137.00664299726486 0
    endloop
  endfacet
  facet normal 0 0 -1
    outer loop
      vertex -217.82622700184584 137.53013599663973 0
      vertex -217.77891521155834 136.77813659608364 0
      vertex -226.81708899885416 137.00664299726486 0
    endloop
  endfacet
  facet normal 0 0 -1
    outer loop
      vertex -217.82622700184584 137.53013599663973 0
      vertex -226.81708899885416 137.00664299726486 0
      vertex -226.71441899985075 139.35817600041628 0
    endloop
  endfacet
  facet normal 0 0 -1
    outer loop
      vertex -217.77891521155834 138.2821354046464 0
      vertex -217.82622700184584 137.53013599663973 0
      vertex -226.71441899985075 139.35817600041628 0
    endloop
  endfacet
  facet normal 0 0 -1
    outer loop
      vertex -217.77891521155834 138.2821354046464 0
      vertex -226.71441899985075 139.35817600041628 0
      vertex -226.24515199661255 141.66469600051641 0
    endloop
  endfacet
  facet normal 0 0 -1
    outer loop
      vertex -217.63772596418858 139.0222753211856 0
      vertex -217.77891521155834 138.2821354046464 0
      vertex -226.24515199661255 141.66469600051641 0
    endloop
  endfacet
  facet normal 0 0 -1
    outer loop
      vertex -217.404885917902 139.73888331651688 0
      vertex -217.63772596418858 139.0222753211856 0
      vertex -226.24515199661255 141.66469600051641 0
    endloop
  endfacet
  facet normal 0 0 -1
    outer loop
      vertex -217.404885917902 139.73888331651688 0
      vertex -226.24515199661255 141.66469600051641 0
      vertex -225.42084400355816 143.86941000074148 0
    endloop
  endfacet
  facet normal 0 0 -1
    outer loop
      vertex -217.0840670838952 140.42065804451704 0
      vertex -217.404885917902 139.73888331651688 0
      vertex -225.42084400355816 143.86941000074148 0
    endloop
  endfacet
  facet normal 0 0 -1
    outer loop
      vertex -217.0840670838952 140.42065804451704 0
      vertex -225.42084400355816 143.86941000074148 0
      vertex -224.26178999990225 145.9180290028453 0
    endloop
  endfacet
  facet normal 0 0 -1
    outer loop
      vertex -216.68032896518707 141.05684751272202 0
      vertex -217.0840670838952 140.42065804451704 0
      vertex -224.26178999990225 145.9180290028453 0
    endloop
  endfacet
  facet normal 0 0 -1
    outer loop
      vertex -216.68032896518707 141.05684751272202 0
      vertex -224.26178999990225 145.9180290028453 0
      vertex -222.79653199762106 147.76011099666357 0
    endloop
  endfacet
  facet normal 0 0 -1
    outer loop
      vertex -216.2000387609005 141.63741863518953 0
      vertex -216.68032896518707 141.05684751272202 0
      vertex -222.79653199762106 147.76011099666357 0
    endloop
  endfacet
  facet normal 0 0 -1
    outer loop
      vertex -216.2000387609005 141.63741863518953 0
      vertex -222.79653199762106 147.76011099666357 0
      vertex -221.06114900112152 149.35029699653387 0
    endloop
  endfacet
  facet normal 0 0 -1
    outer loop
      vertex -215.65077093988657 142.15321545302868 0
      vertex -216.2000387609005 141.63741863518953 0
      vertex -221.06114900112152 149.35029699653387 0
    endloop
  endfacet
  facet normal 0 0 -1
    outer loop
      vertex -215.0411877706647 142.59610355645418 0
      vertex -215.65077093988657 142.15321545302868 0
      vertex -221.06114900112152 149.35029699653387 0
    endloop
  endfacet
  facet normal 0 0 -1
    outer loop
      vertex -215.0411877706647 142.59610355645418 0
      vertex -221.06114900112152 149.35029699653387 0
      vertex -219.09837099909782 150.6494309976697 0
    endloop
  endfacet
  facet normal 0 0 -1
    outer loop
      vertex -214.38090275228024 142.95909831672907 0
      vertex -215.0411877706647 142.59610355645418 0
      vertex -219.09837099909782 150.6494309976697 0
    endloop
  endfacet
  facet normal 0 0 -1
    outer loop
      vertex -214.38090275228024 142.95909831672907 0
      vertex -219.09837099909782 150.6494309976697 0
      vertex -216.95652899891138 151.62552499771118 0
    endloop
  endfacet
  facet normal 0 0 -1
    outer loop
      vertex -213.68032896518707 143.23647509515285 0
      vertex -214.38090275228024 142.95909831672907 0
      vertex -216.95652899891138 151.62552499771118 0
    endloop
  endfacet
  facet normal 0 0 -1
    outer loop
      vertex -213.68032896518707 143.23647509515285 0
      vertex -216.95652899891138 151.62552499771118 0
      vertex -214.68836200237274 152.25454299896955 0
    endloop
  endfacet
  facet normal 0 0 -1
    outer loop
      vertex -212.95051489025354 143.42385950684547 0
      vertex -213.68032896518707 143.23647509515285 0
      vertex -214.68836200237274 152.25454299896955 0
    endloop
  endfacet
  facet normal 0 0 -1
    outer loop
      vertex -212.95051489025354 143.42385950684547 0
      vertex -214.68836200237274 152.25454299896955 0
      vertex -212.3497190028429 152.52099800109863 0
    endloop
  endfacet
  facet normal 0 0 -1
    outer loop
      vertex -212.20297011733055 143.51829636842012 0
      vertex -212.95051489025354 143.42385950684547 0
      vertex -212.3497190028429 152.52099800109863 0
    endloop
  endfacet
  facet normal 0 0 -1
    outer loop
      vertex -211.44948388636112 143.51829636842012 0
      vertex -212.20297011733055 143.51829636842012 0
      vertex -212.3497190028429 152.52099800109863 0
    endloop
  endfacet
  facet normal 0 0 -1
    outer loop
      vertex -211.44948388636112 143.51829636842012 0
      vertex -212.3497190028429 152.52099800109863 0
      vertex -209.9981869980693 152.41832800209522 0
    endloop
  endfacet
  facet normal 0 0 -1
    outer loop
      vertex -210.70193911343813 143.42385950684547 0
      vertex -211.44948388636112 143.51829636842012 0
      vertex -209.9981869980693 152.41832800209522 0
    endloop
  endfacet
  facet normal 0 0 -1
    outer loop
      vertex -210.70193911343813 143.42385950684547 0
      vertex -209.9981869980693 152.41832800209522 0
      vertex -207.69166699796915 151.94906099885702 0
    endloop
  endfacet
  facet normal 0 0 -1
    outer loop
      vertex -209.97212503105402 143.23647509515285 0
      vertex -210.70193911343813 143.42385950684547 0
      vertex -207.69166699796915 151.94906099885702 0
    endloop
  endfacet
  facet normal 0 0 -1
    outer loop
      vertex -209.97212503105402 143.23647509515285 0
      vertex -207.69166699796915 151.94906099885702 0
      vertex -205.48695299774408 151.12475199997425 0
    endloop
  endfacet
  facet normal 0 0 -1
    outer loop
      vertex -209.27155125141144 142.95909831672907 0
      vertex -209.97212503105402 143.23647509515285 0
      vertex -205.48695299774408 151.12475199997425 0
    endloop
  endfacet
  facet normal 0 0 -1
    outer loop
      vertex -208.61126623302698 142.59610355645418 0
      vertex -209.27155125141144 142.95909831672907 0
      vertex -205.48695299774408 151.12475199997425 0
    endloop
  endfacet
  facet normal 0 0 -1
    outer loop
      vertex -208.0016830638051 142.15321545302868 0
      vertex -208.61126623302698 142.59610355645418 0
      vertex -205.48695299774408 151.12475199997425 0
    endloop
  endfacet
  facet normal 0 0 -1
    outer loop
      vertex -207.4524152353406 141.63741863518953 0
      vertex -208.0016830638051 142.15321545302868 0
      vertex -205.48695299774408 151.12475199997425 0
    endloop
  endfacet
  facet normal 0 0 -1
    outer loop
      vertex -206.97212503105402 141.05684751272202 0
      vertex -207.4524152353406 141.63741863518953 0
      vertex -205.48695299774408 151.12475199997425 0
    endloop
  endfacet
  facet normal 0 0 -1
    outer loop
      vertex -205.48695299774408 151.12475199997425 0
      vertex -205.82622700184584 137.53013599663973 0
      vertex -205.87353879213333 138.2821354046464 0
    endloop
  endfacet
  facet normal 0 0 -1
    outer loop
      vertex -205.48695299774408 151.12475199997425 0
      vertex -205.87353879213333 138.2821354046464 0
      vertex -206.01472803205252 139.0222753211856 0
    endloop
  endfacet
  facet normal 0 0 -1
    outer loop
      vertex -205.48695299774408 151.12475199997425 0
      vertex -206.01472803205252 139.0222753211856 0
      vertex -206.24756808578968 139.73888331651688 0
    endloop
  endfacet
  facet normal 0 0 -1
    outer loop
      vertex -205.48695299774408 151.12475199997425 0
      vertex -206.24756808578968 139.73888331651688 0
      vertex -206.56838691979647 140.42065804451704 0
    endloop
  endfacet
  facet normal 0 0 -1
    outer loop
      vertex -206.97212503105402 141.05684751272202 0
      vertex -205.48695299774408 151.12475199997425 0
      vertex -206.56838691979647 140.42065804451704 0
    endloop
  endfacet
  facet normal 0 0 1
    outer loop
      vertex -90.67169799655676 42.41662400215864 15
      vertex -77.07708100229502 36.07734999805689 15
      vertex -68.6247159987688 54.203506000339985 15
    endloop
  endfacet
  facet normal 0 0 1
    outer loop
      vertex -82.21933300048113 60.54277999699116 15
      vertex -90.67169799655676 42.41662400215864 15
      vertex -68.6247159987688 54.203506000339985 15
    endloop
  endfacet
  facet normal 0 0 1
    outer loop
      vertex -47.49380300194025 99.51889500021935 15
      vertex -61.08842000365257 105.85816899687052 15
      vertex -69.5407849997282 87.732013002038 15
    endloop
  endfacet
  facet normal 0 0 1
    outer loop
      vertex -55.94616799801588 81.39273899793625 15
      vertex -47.49380300194025 99.51889500021935 15
      vertex -69.5407849997282 87.732013002038 15
    endloop
  endfacet
  facet normal 0 0 1
    outer loop
      vertex 40 8 15
      vertex 80 8 15
      vertex 80 18 15
    endloop
  endfacet
  facet normal 0 0 1
    outer loop
      vertex 0 0 15
      vertex 40 0 15
      vertex 40 8 15
    endloop
  endfacet
  facet normal 0 0 1
    outer loop
      vertex -69.5407849997282 87.732013002038 15
      vertex -205.48695299774408 151.12475199997425 15
      vertex -205.82622700184584 137.53013599663973 15
    endloop
  endfacet
  facet normal 0 0 1
    outer loop
      vertex -69.5407849997282 87.732013002038 15
      vertex -205.82622700184584 137.53013599663973 15
      vertex -205.87353879213333 136.77813659608364 15
    endloop
  endfacet
  facet normal 0 0 1
    outer loop
      vertex -69.5407849997282 87.732013002038 15
      vertex -205.87353879213333 136.77813659608364 15
      vertex -206.01472803205252 136.03799667954445 15
    endloop
  endfacet
  facet normal 0 0 1
    outer loop
      vertex -69.5407849997282 87.732013002038 15
      vertex -206.01472803205252 136.03799667954445 15
      vertex -206.24756808578968 135.32138868421316 15
    endloop
  endfacet
  facet normal 0 0 1
    outer loop
      vertex -69.5407849997282 87.732013002038 15
      vertex -206.24756808578968 135.32138868421316 15
      vertex -206.56838691979647 134.639613956213 15
    endloop
  endfacet
  facet normal 0 0 1
    outer loop
      vertex -69.5407849997282 87.732013002038 15
      vertex -206.56838691979647 134.639613956213 15
      vertex -206.97212503105402 134.00342448800802 15
    endloop
  endfacet
  facet normal 0 0 1
    outer loop
      vertex -69.5407849997282 87.732013002038 15
      vertex -206.97212503105402 134.00342448800802 15
      vertex -207.4524152353406 133.4228533655405 15
    endloop
  endfacet
  facet normal 0 0 1
    outer loop
      vertex 40 8 15
      vertex 80 18 15
      vertex -55.94616799801588 81.39273899793625 15
    endloop
  endfacet
  facet normal 0 0 1
    outer loop
      vertex 0 0 15
      vertex 40 8 15
      vertex -55.94616799801588 81.39273899793625 15
    endloop
  endfacet
  facet normal 0 0 1
    outer loop
      vertex -68.6247159987688 54.203506000339985 15
      vertex 0 0 15
      vertex -55.94616799801588 81.39273899793625 15
    endloop
  endfacet
  facet normal 0 0 1
    outer loop
      vertex -68.6247159987688 54.203506000339985 15
      vertex -55.94616799801588 81.39273899793625 15
      vertex -69.5407849997282 87.732013002038 15
    endloop
  endfacet
  facet normal 0 0 1
    outer loop
      vertex -82.21933300048113 60.54277999699116 15
      vertex -68.6247159987688 54.203506000339985 15
      vertex -69.5407849997282 87.732013002038 15
    endloop
  endfacet
  facet normal 0 0 1
    outer loop
      vertex -82.21933300048113 60.54277999699116 15
      vertex -69.5407849997282 87.732013002038 15
      vertex -207.4524152353406 133.4228533655405 15
    endloop
  endfacet
  facet normal 0 0 1
    outer loop
      vertex -82.21933300048113 60.54277999699116 15
      vertex -207.4524152353406 133.4228533655405 15
      vertex -208.0016830638051 132.90705654025078 15
    endloop
  endfacet
  facet normal 0 0 1
    outer loop
      vertex -82.21933300048113 60.54277999699116 15
      vertex -208.0016830638051 132.90705654025078 15
      vertex -208.61126623302698 132.46416844427586 15
    endloop
  endfacet
  facet normal 0 0 1
    outer loop
      vertex -82.21933300048113 60.54277999699116 15
      vertex -208.61126623302698 132.46416844427586 15
      vertex -209.27155125141144 132.10117368400097 15
    endloop
  endfacet
  facet normal 0 0 1
    outer loop
      vertex -218.165500998497 123.93551900237799 15
      vertex -82.21933300048113 60.54277999699116 15
      vertex -209.27155125141144 132.10117368400097 15
    endloop
  endfacet
  facet normal 0 0 1
    outer loop
      vertex -218.165500998497 123.93551900237799 15
      vertex -209.27155125141144 132.10117368400097 15
      vertex -209.97212503105402 131.82379690557718 15
    endloop
  endfacet
  facet normal 0 0 1
    outer loop
      vertex -218.165500998497 123.93551900237799 15
      vertex -209.97212503105402 131.82379690557718 15
      vertex -210.70193911343813 131.63641249388456 15
    endloop
  endfacet
  facet normal 0 0 1
    outer loop
      vertex -218.165500998497 123.93551900237799 15
      vertex -210.70193911343813 131.63641249388456 15
      vertex -211.44948388636112 131.5419756323099 15
    endloop
  endfacet
  facet normal 0 0 1
    outer loop
      vertex -218.165500998497 123.93551900237799 15
      vertex -211.44948388636112 131.5419756323099 15
      vertex -212.20297011733055 131.5419756323099 15
    endloop
  endfacet
  facet normal 0 0 1
    outer loop
      vertex -218.165500998497 123.93551900237799 15
      vertex -212.20297011733055 131.5419756323099 15
      vertex -212.95051489025354 131.63641249388456 15
    endloop
  endfacet
  facet normal 0 0 1
    outer loop
      vertex -218.165500998497 123.93551900237799 15
      vertex -212.95051489025354 131.63641249388456 15
      vertex -213.68032896518707 131.82379690557718 15
    endloop
  endfacet
  facet normal 0 0 1
    outer loop
      vertex -218.165500998497 123.93551900237799 15
      vertex -213.68032896518707 131.82379690557718 15
      vertex -214.38090275228024 132.10117368400097 15
    endloop
  endfacet
  facet normal 0 0 1
    outer loop
      vertex -220.21412000060081 125.09457200020552 15
      vertex -218.165500998497 123.93551900237799 15
      vertex -214.38090275228024 132.10117368400097 15
    endloop
  endfacet
  facet normal 0 0 1
    outer loop
      vertex -220.21412000060081 125.09457200020552 15
      vertex -214.38090275228024 132.10117368400097 15
      vertex -215.0411877706647 132.46416844427586 15
    endloop
  endfacet
  facet normal 0 0 1
    outer loop
      vertex -220.21412000060081 125.09457200020552 15
      vertex -215.0411877706647 132.46416844427586 15
      vertex -215.65077093988657 132.90705654025078 15
    endloop
  endfacet
  facet normal 0 0 1
    outer loop
      vertex -222.05620200186968 126.5598300024867 15
      vertex -220.21412000060081 125.09457200020552 15
      vertex -215.65077093988657 132.90705654025078 15
    endloop
  endfacet
  facet normal 0 0 1
    outer loop
      vertex -222.05620200186968 126.5598300024867 15
      vertex -215.65077093988657 132.90705654025078 15
      vertex -216.2000387609005 133.4228533655405 15
    endloop
  endfacet
  facet normal 0 0 1
    outer loop
      vertex -223.64638800173998 128.29521399736404 15
      vertex -222.05620200186968 126.5598300024867 15
      vertex -216.2000387609005 133.4228533655405 15
    endloop
  endfacet
  facet normal 0 0 1
    outer loop
      vertex -223.64638800173998 128.29521399736404 15
      vertex -216.2000387609005 133.4228533655405 15
      vertex -216.68032896518707 134.00342448800802 15
    endloop
  endfacet
  facet normal 0 0 1
    outer loop
      vertex -224.9455220028758 130.25799100100994 15
      vertex -223.64638800173998 128.29521399736404 15
      vertex -216.68032896518707 134.00342448800802 15
    endloop
  endfacet
  facet normal 0 0 1
    outer loop
      vertex -224.9455220028758 130.25799100100994 15
      vertex -216.68032896518707 134.00342448800802 15
      vertex -217.0840670838952 134.639613956213 15
    endloop
  endfacet
  facet normal 0 0 1
    outer loop
      vertex -225.9216160029173 132.39983300119638 15
      vertex -224.9455220028758 130.25799100100994 15
      vertex -217.0840670838952 134.639613956213 15
    endloop
  endfacet
  facet normal 0 0 1
    outer loop
      vertex -225.9216160029173 132.39983300119638 15
      vertex -217.0840670838952 134.639613956213 15
      vertex -217.404885917902 135.32138868421316 15
    endloop
  endfacet
  facet normal 0 0 1
    outer loop
      vertex -225.9216160029173 132.39983300119638 15
      vertex -217.404885917902 135.32138868421316 15
      vertex -217.63772596418858 136.03799667954445 15
    endloop
  endfacet
  facet normal 0 0 1
    outer loop
      vertex -226.55063500255346 134.6680010035634 15
      vertex -225.9216160029173 132.39983300119638 15
      vertex -217.63772596418858 136.03799667954445 15
    endloop
  endfacet
  facet normal 0 0 1
    outer loop
      vertex -226.55063500255346 134.6680010035634 15
      vertex -217.63772596418858 136.03799667954445 15
      vertex -217.77891521155834 136.77813659608364 15
    endloop
  endfacet
  facet normal 0 0 1
    outer loop
      vertex -226.81708899885416 137.00664299726486 15
      vertex -226.55063500255346 134.6680010035634 15
      vertex -217.77891521155834 136.77813659608364 15
    endloop
  endfacet
  facet normal 0 0 1
    outer loop
      vertex -226.81708899885416 137.00664299726486 15
      vertex -217.77891521155834 136.77813659608364 15
      vertex -217.82622700184584 137.53013599663973 15
    endloop
  endfacet
  facet normal 0 0 1
    outer loop
      vertex -226.71441899985075 139.35817600041628 15
      vertex -226.81708899885416 137.00664299726486 15
      vertex -217.82622700184584 137.53013599663973 15
    endloop
  endfacet
  facet normal 0 0 1
    outer loop
      vertex -226.71441899985075 139.35817600041628 15
      vertex -217.82622700184584 137.53013599663973 15
      vertex -217.77891521155834 138.2821354046464 15
    endloop
  endfacet
  facet normal 0 0 1
    outer loop
      vertex -226.24515199661255 141.66469600051641 15
      vertex -226.71441899985075 139.35817600041628 15
      vertex -217.77891521155834 138.2821354046464 15
    endloop
  endfacet
  facet normal 0 0 1
    outer loop
      vertex -226.24515199661255 141.66469600051641 15
      vertex -217.77891521155834 138.2821354046464 15
      vertex -217.63772596418858 139.0222753211856 15
    endloop
  endfacet
  facet normal 0 0 1
    outer loop
      vertex -226.24515199661255 141.66469600051641 15
      vertex -217.63772596418858 139.0222753211856 15
      vertex -217.404885917902 139.73888331651688 15
    endloop
  endfacet
  facet normal 0 0 1
    outer loop
      vertex -225.42084400355816 143.86941000074148 15
      vertex -226.24515199661255 141.66469600051641 15
      vertex -217.404885917902 139.73888331651688 15
    endloop
  endfacet
  facet normal 0 0 1
    outer loop
      vertex -225.42084400355816 143.86941000074148 15
      vertex -217.404885917902 139.73888331651688 15
      vertex -217.0840670838952 140.42065804451704 15
    endloop
  endfacet
  facet normal 0 0 1
    outer loop
      vertex -224.26178999990225 145.9180290028453 15
      vertex -225.42084400355816 143.86941000074148 15
      vertex -217.0840670838952 140.42065804451704 15
    endloop
  endfacet
  facet normal 0 0 1
    outer loop
      vertex -224.26178999990225 145.9180290028453 15
      vertex -217.0840670838952 140.42065804451704 15
      vertex -216.68032896518707 141.05684751272202 15
    endloop
  endfacet
  facet normal 0 0 1
    outer loop
      vertex -222.79653199762106 147.76011099666357 15
      vertex -224.26178999990225 145.9180290028453 15
      vertex -216.68032896518707 141.05684751272202 15
    endloop
  endfacet
  facet normal 0 0 1
    outer loop
      vertex -222.79653199762106 147.76011099666357 15
      vertex -216.68032896518707 141.05684751272202 15
      vertex -216.2000387609005 141.63741863518953 15
    endloop
  endfacet
  facet normal 0 0 1
    outer loop
      vertex -221.06114900112152 149.35029699653387 15
      vertex -222.79653199762106 147.76011099666357 15
      vertex -216.2000387609005 141.63741863518953 15
    endloop
  endfacet
  facet normal 0 0 1
    outer loop
      vertex -221.06114900112152 149.35029699653387 15
      vertex -216.2000387609005 141.63741863518953 15
      vertex -215.65077093988657 142.15321545302868 15
    endloop
  endfacet
  facet normal 0 0 1
    outer loop
      vertex -221.06114900112152 149.35029699653387 15
      vertex -215.65077093988657 142.15321545302868 15
      vertex -215.0411877706647 142.59610355645418 15
    endloop
  endfacet
  facet normal 0 0 1
    outer loop
      vertex -219.09837099909782 150.6494309976697 15
      vertex -221.06114900112152 149.35029699653387 15
      vertex -215.0411877706647 142.59610355645418 15
    endloop
  endfacet
  facet normal 0 0 1
    outer loop
      vertex -219.09837099909782 150.6494309976697 15
      vertex -215.0411877706647 142.59610355645418 15
      vertex -214.38090275228024 142.95909831672907 15
    endloop
  endfacet
  facet normal 0 0 1
    outer loop
      vertex -216.95652899891138 151.62552499771118 15
      vertex -219.09837099909782 150.6494309976697 15
      vertex -214.38090275228024 142.95909831672907 15
    endloop
  endfacet
  facet normal 0 0 1
    outer loop
      vertex -216.95652899891138 151.62552499771118 15
      vertex -214.38090275228024 142.95909831672907 15
      vertex -213.68032896518707 143.23647509515285 15
    endloop
  endfacet
  facet normal 0 0 1
    outer loop
      vertex -214.68836200237274 152.25454299896955 15
      vertex -216.95652899891138 151.62552499771118 15
      vertex -213.68032896518707 143.23647509515285 15
    endloop
  endfacet
  facet normal 0 0 1
    outer loop
      vertex -214.68836200237274 152.25454299896955 15
      vertex -213.68032896518707 143.23647509515285 15
      vertex -212.95051489025354 143.42385950684547 15
    endloop
  endfacet
  facet normal 0 0 1
    outer loop
      vertex -212.3497190028429 152.52099800109863 15
      vertex -214.68836200237274 152.25454299896955 15
      vertex -212.95051489025354 143.42385950684547 15
    endloop
  endfacet
  facet normal 0 0 1
    outer loop
      vertex -212.3497190028429 152.52099800109863 15
      vertex -212.95051489025354 143.42385950684547 15
      vertex -212.20297011733055 143.51829636842012 15
    endloop
  endfacet
  facet normal 0 0 1
    outer loop
      vertex -212.3497190028429 152.52099800109863 15
      vertex -212.20297011733055 143.51829636842012 15
      vertex -211.44948388636112 143.51829636842012 15
    endloop
  endfacet
  facet normal 0 0 1
    outer loop
      vertex -209.9981869980693 152.41832800209522 15
      vertex -212.3497190028429 152.52099800109863 15
      vertex -211.44948388636112 143.51829636842012 15
    endloop
  endfacet
  facet normal 0 0 1
    outer loop
      vertex -209.9981869980693 152.41832800209522 15
      vertex -211.44948388636112 143.51829636842012 15
      vertex -210.70193911343813 143.42385950684547 15
    endloop
  endfacet
  facet normal 0 0 1
    outer loop
      vertex -207.69166699796915 151.94906099885702 15
      vertex -209.9981869980693 152.41832800209522 15
      vertex -210.70193911343813 143.42385950684547 15
    endloop
  endfacet
  facet normal 0 0 1
    outer loop
      vertex -207.69166699796915 151.94906099885702 15
      vertex -210.70193911343813 143.42385950684547 15
      vertex -209.97212503105402 143.23647509515285 15
    endloop
  endfacet
  facet normal 0 0 1
    outer loop
      vertex -205.48695299774408 151.12475199997425 15
      vertex -207.69166699796915 151.94906099885702 15
      vertex -209.97212503105402 143.23647509515285 15
    endloop
  endfacet
  facet normal 0 0 1
    outer loop
      vertex -205.48695299774408 151.12475199997425 15
      vertex -209.97212503105402 143.23647509515285 15
      vertex -209.27155125141144 142.95909831672907 15
    endloop
  endfacet
  facet normal 0 0 1
    outer loop
      vertex -205.48695299774408 151.12475199997425 15
      vertex -209.27155125141144 142.95909831672907 15
      vertex -208.61126623302698 142.59610355645418 15
    endloop
  endfacet
  facet normal 0 0 1
    outer loop
      vertex -205.48695299774408 151.12475199997425 15
      vertex -208.61126623302698 142.59610355645418 15
      vertex -208.0016830638051 142.15321545302868 15
    endloop
  endfacet
  facet normal 0 0 1
    outer loop
      vertex -205.48695299774408 151.12475199997425 15
      vertex -208.0016830638051 142.15321545302868 15
      vertex -207.4524152353406 141.63741863518953 15
    endloop
  endfacet
  facet normal 0 0 1
    outer loop
      vertex -205.48695299774408 151.12475199997425 15
      vertex -207.4524152353406 141.63741863518953 15
      vertex -206.97212503105402 141.05684751272202 15
    endloop
  endfacet
  facet normal 0 0 1
    outer loop
      vertex -205.87353879213333 138.2821354046464 15
      vertex -205.82622700184584 137.53013599663973 15
      vertex -205.48695299774408 151.12475199997425 15
    endloop
  endfacet
  facet normal 0 0 1
    outer loop
      vertex -206.01472803205252 139.0222753211856 15
      vertex -205.87353879213333 138.2821354046464 15
      vertex -205.48695299774408 151.12475199997425 15
    endloop
  endfacet
  facet normal 0 0 1
    outer loop
      vertex -206.24756808578968 139.73888331651688 15
      vertex -206.01472803205252 139.0222753211856 15
      vertex -205.48695299774408 151.12475199997425 15
    endloop
  endfacet
  facet normal 0 0 1
    outer loop
      vertex -206.56838691979647 140.42065804451704 15
      vertex -206.24756808578968 139.73888331651688 15
      vertex -205.48695299774408 151.12475199997425 15
    endloop
  endfacet
  facet normal 0 0 1
    outer loop
      vertex -206.56838691979647 140.42065804451704 15
      vertex -205.48695299774408 151.12475199997425 15
      vertex -206.97212503105402 141.05684751272202 15
    endloop
  endfacet
endsolid OpenSCAD_Model
